<mxfile host="app.diagrams.net" agent="Mozilla/5.0 (Windows NT 10.0; Win64; x64) AppleWebKit/537.36 (KHTML, like Gecko) Chrome/131.0.0.0 Safari/537.36" version="26.0.4">
  <diagram id="C5RBs43oDa-KdzZeNtuy" name="Page-1">
    <mxGraphModel dx="2956" dy="773" grid="1" gridSize="10" guides="1" tooltips="1" connect="1" arrows="1" fold="1" page="1" pageScale="1" pageWidth="827" pageHeight="1169" math="0" shadow="0">
      <root>
        <mxCell id="WIyWlLk6GJQsqaUBKTNV-0" />
        <mxCell id="WIyWlLk6GJQsqaUBKTNV-1" parent="WIyWlLk6GJQsqaUBKTNV-0" />
        <mxCell id="dZY9HUZP33_P041iUTWh-21" value="" style="rounded=0;whiteSpace=wrap;html=1;" vertex="1" parent="WIyWlLk6GJQsqaUBKTNV-1">
          <mxGeometry x="-660" y="30" width="420" height="240" as="geometry" />
        </mxCell>
        <mxCell id="dZY9HUZP33_P041iUTWh-18" value="" style="rounded=0;whiteSpace=wrap;html=1;strokeColor=#FFD966;gradientColor=none;" vertex="1" parent="WIyWlLk6GJQsqaUBKTNV-1">
          <mxGeometry x="210" y="240" width="250" height="130" as="geometry" />
        </mxCell>
        <mxCell id="zkfFHV4jXpPFQw0GAbJ--0" value="FiberRootNode" style="swimlane;fontStyle=2;align=center;verticalAlign=top;childLayout=stackLayout;horizontal=1;startSize=26;horizontalStack=0;resizeParent=1;resizeLast=0;collapsible=1;marginBottom=0;rounded=0;shadow=0;strokeWidth=1;" parent="WIyWlLk6GJQsqaUBKTNV-1" vertex="1">
          <mxGeometry x="40" y="160" width="160" height="52" as="geometry">
            <mxRectangle x="230" y="140" width="160" height="26" as="alternateBounds" />
          </mxGeometry>
        </mxCell>
        <mxCell id="zkfFHV4jXpPFQw0GAbJ--1" value="FinishWork：null" style="text;align=left;verticalAlign=top;spacingLeft=4;spacingRight=4;overflow=hidden;rotatable=0;points=[[0,0.5],[1,0.5]];portConstraint=eastwest;" parent="zkfFHV4jXpPFQw0GAbJ--0" vertex="1">
          <mxGeometry y="26" width="160" height="26" as="geometry" />
        </mxCell>
        <mxCell id="zkfFHV4jXpPFQw0GAbJ--6" value="renderRoot（）整体流程" style="swimlane;fontStyle=0;align=center;verticalAlign=top;childLayout=stackLayout;horizontal=1;startSize=26;horizontalStack=0;resizeParent=1;resizeLast=0;collapsible=1;marginBottom=0;rounded=0;shadow=0;strokeWidth=1;" parent="WIyWlLk6GJQsqaUBKTNV-1" vertex="1">
          <mxGeometry x="630" y="80" width="270" height="90" as="geometry">
            <mxRectangle x="130" y="380" width="160" height="26" as="alternateBounds" />
          </mxGeometry>
        </mxCell>
        <mxCell id="zkfFHV4jXpPFQw0GAbJ--7" value="prepareFreshStatck 创建workinProgress(双缓存)" style="text;align=left;verticalAlign=top;spacingLeft=4;spacingRight=4;overflow=hidden;rotatable=0;points=[[0,0.5],[1,0.5]];portConstraint=eastwest;fillColor=#fff2cc;strokeColor=#d6b656;" parent="zkfFHV4jXpPFQw0GAbJ--6" vertex="1">
          <mxGeometry y="26" width="270" height="26" as="geometry" />
        </mxCell>
        <mxCell id="zkfFHV4jXpPFQw0GAbJ--8" value="beginWork()" style="text;align=left;verticalAlign=top;spacingLeft=4;spacingRight=4;overflow=hidden;rotatable=0;points=[[0,0.5],[1,0.5]];portConstraint=eastwest;rounded=0;shadow=0;html=0;" parent="zkfFHV4jXpPFQw0GAbJ--6" vertex="1">
          <mxGeometry y="52" width="270" height="26" as="geometry" />
        </mxCell>
        <mxCell id="zkfFHV4jXpPFQw0GAbJ--17" value="UpdateContainer()整体流程" style="swimlane;fontStyle=0;align=center;verticalAlign=top;childLayout=stackLayout;horizontal=1;startSize=26;horizontalStack=0;resizeParent=1;resizeLast=0;collapsible=1;marginBottom=0;rounded=0;shadow=0;strokeWidth=1;" parent="WIyWlLk6GJQsqaUBKTNV-1" vertex="1">
          <mxGeometry x="284" width="260" height="170" as="geometry">
            <mxRectangle x="550" y="140" width="160" height="26" as="alternateBounds" />
          </mxGeometry>
        </mxCell>
        <mxCell id="zkfFHV4jXpPFQw0GAbJ--18" value="1.createUpdate（）创建新对象" style="text;align=left;verticalAlign=top;spacingLeft=4;spacingRight=4;overflow=hidden;rotatable=0;points=[[0,0.5],[1,0.5]];portConstraint=eastwest;" parent="zkfFHV4jXpPFQw0GAbJ--17" vertex="1">
          <mxGeometry y="26" width="260" height="26" as="geometry" />
        </mxCell>
        <mxCell id="zkfFHV4jXpPFQw0GAbJ--19" value="2.enqueUpdate（）将新对象加入更新队列" style="text;align=left;verticalAlign=top;spacingLeft=4;spacingRight=4;overflow=hidden;rotatable=0;points=[[0,0.5],[1,0.5]];portConstraint=eastwest;rounded=0;shadow=0;html=0;fontSize=11;" parent="zkfFHV4jXpPFQw0GAbJ--17" vertex="1">
          <mxGeometry y="52" width="260" height="28" as="geometry" />
        </mxCell>
        <mxCell id="zkfFHV4jXpPFQw0GAbJ--20" value="3.scheduleUpdateOnFiber（）调度更新任务" style="text;align=left;verticalAlign=top;spacingLeft=4;spacingRight=4;overflow=hidden;rotatable=0;points=[[0,0.5],[1,0.5]];portConstraint=eastwest;rounded=0;shadow=0;html=0;" parent="zkfFHV4jXpPFQw0GAbJ--17" vertex="1">
          <mxGeometry y="80" width="260" height="26" as="geometry" />
        </mxCell>
        <mxCell id="zkfFHV4jXpPFQw0GAbJ--21" value="   3.1makeUpdateFromFiberToRoot向上查根节点" style="text;align=left;verticalAlign=top;spacingLeft=4;spacingRight=4;overflow=hidden;rotatable=0;points=[[0,0.5],[1,0.5]];portConstraint=eastwest;rounded=0;shadow=0;html=0;fillColor=#d5e8d4;strokeColor=#82b366;" parent="zkfFHV4jXpPFQw0GAbJ--17" vertex="1">
          <mxGeometry y="106" width="260" height="26" as="geometry" />
        </mxCell>
        <mxCell id="zkfFHV4jXpPFQw0GAbJ--22" value="   3.2renderRoot触发渲染" style="text;align=left;verticalAlign=top;spacingLeft=4;spacingRight=4;overflow=hidden;rotatable=0;points=[[0,0.5],[1,0.5]];portConstraint=eastwest;rounded=0;shadow=0;html=0;" parent="zkfFHV4jXpPFQw0GAbJ--17" vertex="1">
          <mxGeometry y="132" width="260" height="26" as="geometry" />
        </mxCell>
        <mxCell id="dZY9HUZP33_P041iUTWh-12" style="edgeStyle=none;curved=1;rounded=0;orthogonalLoop=1;jettySize=auto;html=1;entryX=0;entryY=0.5;entryDx=0;entryDy=0;fontSize=12;startSize=8;endSize=8;" edge="1" parent="WIyWlLk6GJQsqaUBKTNV-1" source="dZY9HUZP33_P041iUTWh-0" target="dZY9HUZP33_P041iUTWh-9">
          <mxGeometry relative="1" as="geometry" />
        </mxCell>
        <mxCell id="dZY9HUZP33_P041iUTWh-16" value="alternate" style="edgeLabel;html=1;align=center;verticalAlign=middle;resizable=0;points=[];fontSize=12;" vertex="1" connectable="0" parent="dZY9HUZP33_P041iUTWh-12">
          <mxGeometry x="0.1526" relative="1" as="geometry">
            <mxPoint as="offset" />
          </mxGeometry>
        </mxCell>
        <mxCell id="dZY9HUZP33_P041iUTWh-0" value="HostRootFiber" style="swimlane;fontStyle=2;align=center;verticalAlign=top;childLayout=stackLayout;horizontal=1;startSize=26;horizontalStack=0;resizeParent=1;resizeLast=0;collapsible=1;marginBottom=0;rounded=0;shadow=0;strokeWidth=1;" vertex="1" parent="WIyWlLk6GJQsqaUBKTNV-1">
          <mxGeometry x="40" y="290" width="160" height="52" as="geometry">
            <mxRectangle x="230" y="140" width="160" height="26" as="alternateBounds" />
          </mxGeometry>
        </mxCell>
        <mxCell id="dZY9HUZP33_P041iUTWh-1" value="updateQueue：null" style="text;align=left;verticalAlign=top;spacingLeft=4;spacingRight=4;overflow=hidden;rotatable=0;points=[[0,0.5],[1,0.5]];portConstraint=eastwest;" vertex="1" parent="dZY9HUZP33_P041iUTWh-0">
          <mxGeometry y="26" width="160" height="26" as="geometry" />
        </mxCell>
        <mxCell id="dZY9HUZP33_P041iUTWh-2" value="" style="endArrow=classic;html=1;rounded=0;fontSize=12;startSize=8;endSize=8;curved=1;exitX=0.303;exitY=0.998;exitDx=0;exitDy=0;exitPerimeter=0;" edge="1" parent="WIyWlLk6GJQsqaUBKTNV-1" source="zkfFHV4jXpPFQw0GAbJ--1">
          <mxGeometry width="50" height="50" relative="1" as="geometry">
            <mxPoint x="87" y="233" as="sourcePoint" />
            <mxPoint x="87" y="290" as="targetPoint" />
          </mxGeometry>
        </mxCell>
        <mxCell id="dZY9HUZP33_P041iUTWh-5" value="current" style="edgeLabel;html=1;align=center;verticalAlign=middle;resizable=0;points=[];fontSize=12;" vertex="1" connectable="0" parent="dZY9HUZP33_P041iUTWh-2">
          <mxGeometry x="-0.105" y="-1" relative="1" as="geometry">
            <mxPoint as="offset" />
          </mxGeometry>
        </mxCell>
        <mxCell id="dZY9HUZP33_P041iUTWh-4" value="" style="endArrow=classic;html=1;rounded=0;fontSize=12;startSize=8;endSize=8;curved=1;exitX=0.625;exitY=0;exitDx=0;exitDy=0;exitPerimeter=0;entryX=0.626;entryY=1.045;entryDx=0;entryDy=0;entryPerimeter=0;" edge="1" parent="WIyWlLk6GJQsqaUBKTNV-1" source="dZY9HUZP33_P041iUTWh-0" target="zkfFHV4jXpPFQw0GAbJ--1">
          <mxGeometry width="50" height="50" relative="1" as="geometry">
            <mxPoint x="162.83999999999997" y="249.99800000000005" as="sourcePoint" />
            <mxPoint x="120" y="260.31" as="targetPoint" />
          </mxGeometry>
        </mxCell>
        <mxCell id="dZY9HUZP33_P041iUTWh-6" value="&lt;font style=&quot;color: rgb(204, 255, 153);&quot;&gt;stateNode&lt;/font&gt;" style="edgeLabel;html=1;align=center;verticalAlign=middle;resizable=0;points=[];fontSize=12;" vertex="1" connectable="0" parent="dZY9HUZP33_P041iUTWh-4">
          <mxGeometry x="0.0352" relative="1" as="geometry">
            <mxPoint as="offset" />
          </mxGeometry>
        </mxCell>
        <mxCell id="dZY9HUZP33_P041iUTWh-7" value="" style="curved=1;endArrow=classic;html=1;rounded=0;fontSize=12;startSize=8;endSize=8;exitX=0;exitY=0.5;exitDx=0;exitDy=0;dashed=1;" edge="1" parent="WIyWlLk6GJQsqaUBKTNV-1" source="zkfFHV4jXpPFQw0GAbJ--21">
          <mxGeometry width="50" height="50" relative="1" as="geometry">
            <mxPoint x="370" y="230" as="sourcePoint" />
            <mxPoint x="170" y="260" as="targetPoint" />
            <Array as="points">
              <mxPoint x="240" y="110" />
              <mxPoint x="230" y="160" />
            </Array>
          </mxGeometry>
        </mxCell>
        <mxCell id="dZY9HUZP33_P041iUTWh-9" value="WIP" style="swimlane;fontStyle=2;align=center;verticalAlign=top;childLayout=stackLayout;horizontal=1;startSize=26;horizontalStack=0;resizeParent=1;resizeLast=0;collapsible=1;marginBottom=0;rounded=0;shadow=0;strokeWidth=1;" vertex="1" parent="WIyWlLk6GJQsqaUBKTNV-1">
          <mxGeometry x="290" y="290" width="160" height="52" as="geometry">
            <mxRectangle x="230" y="140" width="160" height="26" as="alternateBounds" />
          </mxGeometry>
        </mxCell>
        <mxCell id="dZY9HUZP33_P041iUTWh-11" value="&lt;font style=&quot;font-size: 10px;&quot;&gt;&lt;i&gt;WIP把hostRootFiber内容复制一遍&lt;/i&gt;&lt;/font&gt;" style="text;html=1;align=center;verticalAlign=middle;whiteSpace=wrap;rounded=0;fontSize=16;" vertex="1" parent="WIyWlLk6GJQsqaUBKTNV-1">
          <mxGeometry x="215" y="342" width="310" height="30" as="geometry" />
        </mxCell>
        <mxCell id="dZY9HUZP33_P041iUTWh-13" style="edgeStyle=none;curved=1;rounded=0;orthogonalLoop=1;jettySize=auto;html=1;entryX=1.009;entryY=0.277;entryDx=0;entryDy=0;entryPerimeter=0;fontSize=12;startSize=8;endSize=8;" edge="1" parent="WIyWlLk6GJQsqaUBKTNV-1" source="dZY9HUZP33_P041iUTWh-9" target="zkfFHV4jXpPFQw0GAbJ--1">
          <mxGeometry relative="1" as="geometry" />
        </mxCell>
        <mxCell id="dZY9HUZP33_P041iUTWh-14" value="setNode" style="edgeLabel;html=1;align=center;verticalAlign=middle;resizable=0;points=[];fontSize=12;" vertex="1" connectable="0" parent="dZY9HUZP33_P041iUTWh-13">
          <mxGeometry x="-0.1062" y="-1" relative="1" as="geometry">
            <mxPoint x="2" y="23" as="offset" />
          </mxGeometry>
        </mxCell>
        <mxCell id="dZY9HUZP33_P041iUTWh-15" style="edgeStyle=none;curved=1;rounded=0;orthogonalLoop=1;jettySize=auto;html=1;entryX=1;entryY=0.5;entryDx=0;entryDy=0;fontSize=12;startSize=8;endSize=8;exitX=0;exitY=0.75;exitDx=0;exitDy=0;" edge="1" parent="WIyWlLk6GJQsqaUBKTNV-1" source="dZY9HUZP33_P041iUTWh-9" target="dZY9HUZP33_P041iUTWh-1">
          <mxGeometry relative="1" as="geometry">
            <mxPoint x="290" y="320" as="sourcePoint" />
            <mxPoint x="300" y="326" as="targetPoint" />
          </mxGeometry>
        </mxCell>
        <mxCell id="dZY9HUZP33_P041iUTWh-17" value="alternate" style="edgeLabel;html=1;align=center;verticalAlign=middle;resizable=0;points=[];fontSize=12;" vertex="1" connectable="0" parent="dZY9HUZP33_P041iUTWh-15">
          <mxGeometry x="-0.0015" relative="1" as="geometry">
            <mxPoint as="offset" />
          </mxGeometry>
        </mxCell>
        <mxCell id="dZY9HUZP33_P041iUTWh-20" style="edgeStyle=none;curved=1;rounded=0;orthogonalLoop=1;jettySize=auto;html=1;entryX=1;entryY=0;entryDx=0;entryDy=0;fontSize=12;startSize=8;endSize=8;exitX=-0.006;exitY=0.379;exitDx=0;exitDy=0;exitPerimeter=0;" edge="1" parent="WIyWlLk6GJQsqaUBKTNV-1" source="zkfFHV4jXpPFQw0GAbJ--7" target="dZY9HUZP33_P041iUTWh-18">
          <mxGeometry relative="1" as="geometry" />
        </mxCell>
        <mxCell id="dZY9HUZP33_P041iUTWh-24" value="" style="shape=image;verticalLabelPosition=bottom;labelBackgroundColor=default;verticalAlign=top;aspect=fixed;imageAspect=0;image=data:image/png,iVBORw0KGgoAAAANSUhEUgAABJkAAAHyCAIAAADHo4hCAAAgAElEQVR4Aey9jVMUV77///1HpubXyCgi6mAgQSBBfhAWkAfBuTwFRTIyIuCOEAiICXOzE0GcyLCDtsQK5dVfoteNcdm1SKXMpWq3vrW39s/6VXefp+4+3fMMM8M7RZlmpvs8vM7p5rz783D+j8er4AcEQAAEQAAEQAAEQAAEQAAEQKC4CPyf4mouWgsCIAACIAACIAACIAACIAACIODxKtByMEuCAAiAAAiAAAiAAAiAAAiAQPERSFPL/T/F10NIdhAAARAAARAAARAAARAAARAoPQJpajkE14EACIAACIAACIAACIAACIAACBQAgdS0HMxxBTBUpfciAT0CARAAARAAARAAARAAARDImEBqWg5KBgRAAARAAARAAARAAARAAARAoJAIQMshAhAEQAAEQAAEQAAEQAAEQAAEio9AMi0H78pCUt4Zm19xIQiAAAiAAAiAAAiAAAiAQIkRSKbloGRAAARAAARAAARAAARAAARAAAQKjwC0XPHZUkvsdQK6AwIgAAIgAAIgAAIgAAIgkAEBaDloORAAARAAARAAARAAARAAARAoPgLQcsU3ZhlIdlwCAiAAAiAAAiAAAiAAAiBQYgSg5aDlQAAEQAAEQAAEQAAEQAAEQKD4CEDLFd+YDT3+n3/9+3/tPz99XXx9KbFXI4faHV/NpRuz/7n+5z8//p78t9xXeBG6h4oINwgIgAAIgAAIgAAIlBQBaDnZcPZu//3R7/rP9kThrYah5VLUAxzU+ydDhTeOKfYitdNq/2OFSTgq5b6HlpPd3SU+E9BlEAABEAABEACBI0QAWk422NByJbHePUJarmvRruS+h5YriWmcmpiXPcfQfRAAARAAARAAgVInAC0nWwMVtpYzr+0+e/Se+FvCx9JMRjk6Wq5jjkq5rT9NdNRV+GSzutSfZZbRx68gAAIgAAIgAAIgUPIEoOVkq15ouZJY9x8ZLVc38YD4VW5MNpb8MwsdBAEQAAEQAAEQAAEQMAhAy0HLyQhAyxUTgUam5e70lexo4pENAiAAAiAAAiAAAiBgIZCRlvM19Q8/eBr92y+bRoKQ3395+Grz+nSLm2fXqfMtX65G3rBL/r7xt2dfPQg31Zc5LJonviSF//3Laa3Rlf3hW69eGzUmfv0xEp/66JSlM+ZfT7X03NuMvHm9Qct59PsvD948+/LBUnu/39rU6U2S7ISfTNOfWD/58Xq3uaLsV8+n6sa+evSXX//xf2l2yn/98/d3z6M3Lp5wgCM0IDMfy3Rq/PolyZn5/slQ5cDKT78av+7915ftlYrHe+py5OWe0fJ//fpTZMChzenU6FU8V578TnJ1/s+jK3otS0/+8ts/SUv+8etf4rN67Wb4/CpKUpbw0yikhFxSoeXM0yD5XYPzQQAEQAAEQAAEQKAUCKSr5Y7XXoz/mLDKGyJ7Em++62uVaDOl+4uVX52k0S9LXzYpEpSilitruPtUkGSsuq8bjguqRiik8sqfog6N1DWbTY8dnpY7F4rvUoliEx7/+MvqZU0vufykr+XSrZFrueeP/tvU1N93pluWX/7D1Ox//vS1zc0v3RqtWq5t/v+TbMPwj//+qsVCBloOdjnLlMCvIAACIAACIAACIFC6BNLScsebBnZ+SWK/sifxb/0i4iar/v7o91++nPbbEHMtt3Tv63sOJaw/6LZd6PH6J750lI6GDiwULVc5/ui3JBYkiWIxdTlNLZdBjUzLmTSb0ez/+X3f1v5337WLLcygRrOWe7b9s1ku8hr/EjXrRmg5aDlx7uEYBEAABEAABEAABEqaQBparqzhHrfIJX59OjndfcZvWOGOV7b3X37w9OHvf39k1XL+gRfMIvfLyoOJj2uPa0BP+T+e/W6NKbRfN3v9FusT13KaGfDXp9fHm45rVrjj1eNfcyvfr9+122xW/rvPqODUa6w/Rex+x0+daepu//LrL189verqJ3lAuU8a7/zEzFz//OvTr652NuoOiqfq/mM6+hO3RFkVi2lGpqXlMqpR0HK/Pw1VeZWq6z9QB8j//de///lT5OIJ76n2+7vEAfLfP69wW2JGNZq0nK7c9l+ufN5cpbnaNl6NvuS1W3SjicwB5LGsXJgdfhlJ5+fzDyzzPBe/wsfS9hAwz4RcQEYVIAACIAACIAACIFBwBFLXcv6pZSq9NnbCNTLnRqX+WvjBNdMqqv9P6/SqSKTF4kupdHODW+TuedOFCtdyj37/caLb5LqpjH9HQ/V+nLCpsot0p+/E9oSlRnMVjiu8g9FyXBH9+uh6ta0xp65uUzm39+cex5ano+Uyq5Frud31bmMGX1x/R41j759cNdpW+c1fiOHOiHDTz8ysRouW+78/r7Sa7pyeOInZ+5dJN5rO8XiPjpa7OEu3JEDuE9t9ZJ0VOAEEQAAEQAAEQAAESoZAylqOG7t+VftqU+1/beRHYiL725+aJIuqss5H1GnzRfik6QSu5RI7U+avPF5lNEy9KI3MKKLUaadlJt6strdSo5yp8CTtPxAtd3OHGOV+35mW5wtpXP0rUUdMRNl7kYaWy7BGruVe3qGc7/w31XJ/+YY2fty+012GNZq13O9PQ9bx6v6OkhF0I20bOzn/exIUhl3uwvQG2ZJgfeJD+wzBJyAAAiAAAiAAAiAAAqVJIFUtV9a3Q1wlNx+N2hbNbPVsPWCi6EG8X35VaJNkUrF6S3It99WXp2zXdlx/Q9pj/1aZpmXqJsHEr7+svVJv3QtfHmdOodZ2Wspnzba5jCa50FKO268DcRIp98+nU05zi+m0fz6bS3rO/yZLzJhpjUzL/eOHm7RHd36iWu6/v6JMWGtZSzKt0aTlpHy++omoXOm3hFX+tZzToBzU576qmtbg138mSu77jemP6QDRQTmolqBeEAABEAABEAABEACBAyeQqpbj2mlp1uTu6NpifpVdcZELuZul2mfy2+Razm558yq85Hv3Omxt8PduU3Mf9fCkEXR/f/Di69ZkdsWD0HJMjVBRJMkswr9y1ml2BeW0fM+0Rqbl3j8Zoqi5THLTcpnWaNJyUssbL9mZzAH4WDqhzvvnfctUv7H/b/3pSmPe64VEBAEQAAEQAAEQAAEQKBwCqWq5a19QUSRTVk794YrL8arjU0ukZEtuyWy0nMer+D/+8rso9cNkQo4c/LrZ6yrnoOX+zWxrigdajipYp3l+8J+btdyf701ePJ1ZaGjhde3gYaJGEAABEAABEAABEChSAiWr5ch4+GpbWkJTVx88teg6+WYG1KwBLQctV9gix6zldNvcnxf7ePpQOpMLuxdF+tBEs0EABEAABEAABECgQAikquW4ha0YfCylcMuOd4eXmaXub6sXnNe7B6rleEIRabOTfZiBj2WaNebALpdmjUXjY3nYuU98VR9fmv7TFvWz/HasGuINBEAABEAABEAABEDgyBBIVctllvuEX+WU+4TnKXHOfSLzz+TaUhYv56h/hM0MNnudtRzb1eAgcp/8z6Mx55Ykn4ipazmWiSTNGjPXcpnWmCMtdzlBty4QIv0c50Zy1PZhOmwtZ7S5a5FuSXDvSrW9kfgEBEAABEAABEAABECgNAmkquU8fE+C358OuAabiWviuns52JMgh1rOy1OtuGk53mzr1uc5VALJ8/WLJB2PuZb7671G9+ZlWGPmWk7JsMYcaTlppJ87ojS/LQwt5+1deEJMcwtkA8DSfFqlOTqAAAIgAAIgAAIgAAIlTiBlLecV9wp/8UWDKeckWWMp9YM3I7nfKzxdLXcx/vT6lVppKojqyDOaB2XzovPQci0n3xYvN2tKvo/2/zxbaHMos7pn4clfd1jef3ubT638haa7fPtNnaPk0y/MrMYstJwnsxpzruX+/fNKKed4bJx4QLQc9gp3uI/sNw4+AQEQAAEQAAEQAIGiJ5C6llPKGu79SPaC+/3viV+fTk6z7dqOVzZ19zx4+uD3v9ucEv0DL8hGcI9+/2XlwcTHtcc1vXHK//Hsd2s0N+ajXzd7/ZZFWOZ5LI1ot8Tfnt2KjH5cb+wVXna8XmvhBq1Rtv+40IDx7zbpmevbU6TNOR/sxjs/ke3C//Xv//39L0/ufH7x43NGLdUfj0yvPH659w9dp/G8/5I21N3b/RfdbO2v8WlaguRMjzejGrPRcpnVmCstx7cU/99/vHsy/x+NdFtzKZzi/RBarnjHDi0HARAAARAAARAAgcwJpKHlPN7jTQM7jvu2EXuX3Smxe+ke1UXUJsbUnXHwy5fTfptBKVst51CXUeOP17tdd8k7PhpmWVKsjbfsnSAowPSHoXL8EdkxnNrWpLvMuWo5T+Xss/8rv/z3x59Zm5dBjVlpOcWTQY250nLeS+vv5GT+JSbqtM09K7RCPwFaLv1br9DHFD0CARAAARAAARAAgeQE0tJyisd7vPZinFvnLHop8ea7vlaJRlK6v1hxlEa/LH3ZJPOHzFzLKfWD11+8ZiZESyMf/f7jrXG7dLQu3yvHv1u3qjimA60nZ7MurByI/oVb56iFjSuQ398++WPnKfcaT4z9ee9f/BJWiETLeRVPujVmqeUyqDFnWk45MfbdXx2Erssm4+60C+9baLnkT7rCGzW0GQRAAARAAARAAASyJZCultPr8zX1Dz94Gv3bL9QR8ZeHrzavT7f4XFpz6nzLl6uRN+ySv2/87dlXD8JN9RLtp0ujzLWcoaxYI6mo++XBm2df3Jv4KIku4ms+pb5/OP5s7W+/0BLyouX01laNfPXov37e+wcXdf94v/vT42+uJ1NxrLUnOkPR/9r93axb5Fou3Rqz13Lp1pg7LafxOffZnccmtobWhZZjkwcHIAACIAACIAACIAACxUggIy1niCX8CwIgUBAEuF3u68su71PwFQiAAAiAAAiAAAiAQEkRgJYrqeEsxtcJaHPWBKqvfEvyWP55piXr0nBHgAAIgAAIgAAIgAAIFAcBaLniGCcs0EHAhUDHHN0t/Mn6rY66CjdvZ0x4EAABEAABEAABEACBEiEALVciA+my0MdXpU+ga5GKOWKg0/+33FcQLqC4xUAABEAABEAABEAABPJCAFouL1hLXzxAJBQWgaq+Zbuag5bD3Q0CIAACIAACIAACpUwAWq6URxeS8igR8FW3fnbrP9f//Gcm6qDlcHeDAAiAAAiAAAiAQCkTgJYr5dE9SkoG4wgCIAACIAACIAACIAACR4sAtNzRGm+oOxAAARAAARAAARAAARAAgdIgAC0HLQcCIAACIAACIAACIAACIAACxUcAWq74xqw03iKgFyAAAiAAAiAAAiAAAiAAAtkQgJaDlgMBEAABEAABEAABEAABEACB4iMALVd8Y5aNdse1IAACIAACIAACIAACIAACpUEAWg5aDgRAAARAAARAAARAAARAAASKjwC0XPGNWWm8RUAvQAAEQAAEQAAEQAAEQAAEsiEALQctBwIgAAIgAAIgAAIgAAIgAALFRwBarvjGLBvtjmtBAARAAARAAARAAARAAARKgwC0HLQcCIAACIAACIAACIAACIAACBQfAWi54huz0niLgF6AAAiAAAiAAAiAAAiAAAhkQwBaDloOBEAABEAABEAABEAABEAABIqPALRc8Y1ZNtod14IACIAACIAACIAACIAACJQGAWg5aDkQAAEQAAEQAAEQAAEQAAEQKD4C0HLFN2al8RYBvQABEAABEAABEAABEAABEMiGALQctBwIgAAIgAAIgAAIgAAIgAAIFB8BaLniG7NstDuuBYGCIKBkd9+d8Ff5/VX+KsWbXTm4HASOBIGqxt6BQGCgq7GiIG7/gmJe0xYIDAQCLf6CahUaAwIgAAIpE4CWw1oQBEAgvwTqJmPqtqqqS5cMCVfZNr2uxu8O1/gyrLdrQdUKXJ+oS/lJdyhL2Pa5eGJ9KdhblzfNWTP6TWItcmusvca9g2QIHs22Fxix9nA8vhFfm2pxaX/54F11W01sRkZrMpwwLoVbv3J8y9Azp2qzLjLkIId8vryNcta9Pjkc2dYav3w566IKbP5Yhy/95rXPJbSHyYObWT1MCnja1A3Ozi3Mz402Zc8KJYAACBQmAWg5/G0DARDIK4GKwYguvaJXq7SVVlXXYlxbPG2r6ubdwTpf+k/GlukN7fL4jJsASKXYS3f0ZhiNSfvf+HSzG7fy7vmEXuZaqMHUmJMNXZodILWfDjcdWN63ZFQRGaoyVWFd0fpHo3pP7/a7nsa7Q9Z/C/PaKjD9nxu9fmlFSt3A3MrNZr7wJUMpCqS60Fr8m/FGrvNrxu7pjV8ZKLf2izdYWl2aH1a1z8XUxN1BqWJsvhXXRjM66pdUWvHpRGRTtQ50flsraYZjf/uW9DtO3njHq4z2KxW6DdywhGf37xmZDM5V+dLCkw9Bw40H2uxKzHUm4eBYVH6mDbEWpvaUCAwEWp3e5tQF17UORsfkt2SmvU5n+jmiQyEgAAK5IQAtlxuOR/2BOBXY25/UfwIh1wd3x+oYOfNp/VGH5gqqhOB0hh9pi4nYJJM0+urH0E5qfHnIaRXicG9+OLGmX7vY53CCAdbXdGM9HrnW5GwtIQ3Tl7m6WjCalOK/6nyXywhW9i8m9DXinf4Ky2lkYZ1SjW56VWmZfqgXYrZPVgwuxaLzwUATr1fpX9Y7lfJ6jmq/FFFYT0uEO2RDc8GQQ2p0jI44GUquMequr+nDkZjrpuv+jlldr8ZuXJCVaWGbxa8VIxEyE9S1YKO1rhqjYRu3mi1VKP7WKaPNqrox237CemEh3MhZmZ4I/5Sma5JbaaFHQoOI5GzLt4sxf9+tFF5DRHWJrsajS8lPnurR30aZhjhP04YMmfXOcqS0dr1OY2sMlmh+JybZJC+eJONimef4FQRAoIAJFIWWq98iOmFya8r0GMUDKDsCpyNvUxJgyWspXC1HJ8/bto4Cvg9lhJtuGCv17ejYubSmfcYXplVLyieT9bp1fV83FiFmq5k2rjrYGCmO1oCaa8aaOzp2XmYlMBbTlZ1hQi++2OtgszpvaMK14Icp90VvHllmRYadzURVl+7ojlvrE3XcBkVqaZ7RzZJqIr6huRfKfzb1y7dVF71KZU/MZB5kAi8yzKkyOWSTKLKJp3i8TaPp2uIWIzFdseur+bvEmZaNJjmoIebBR0uXTmo0yof0oSQCydc4qYsiNT7Xx4aMXJK40+9MWz58hmemZnL5IkWTC22A5g9skXPEtmwRDErd8PImWV7HFvr9trF2wCtvcAYnZ2dYlgsDi3WRTNeURYWLnBOtr6yzdSGqhLOrwlZ4lu8jZHDuSM3a+Zg2VV2TxB6+vK4/ChJri8ItST58tLZMPpwNnNcmFYEpPprs6s56V+ZsNrIxxQEIgMABE4CWO8oPMmi5wh399FeipC8ZX5ivR89lLdhJ3Y4M6st3sZaqy/ORSQe7WabWAC0iqPFqRLeJqWp87rKjZ1HVWFRrmN3SkmStQ5yyyItw2ckVhkQR9cCJqnKy0G8wXJ4EK6VsEpLuS6ARgOeuRvXwLYu68Bud2jZZsfIbLOerab+2FNMbo1lf74y3n3P2m71I/U6vaaY5I+5R70JV64wh5NamP2VCjtoZ1Ohoeq8zNDma2asQLi3E4fPaguV8dYEFPQpUcxWOBMU2y6aEOO1zd0w8VF3kU/pfWQ04SqXsjYmWeSjtH3oLmCZ8rsq3Fe6rSKGFgUUjWO5WawonVzkbXfM3bS7d1VSlxT4v3DgiTCJfRfM7keKiuju4+Sm2DccgAAJ5JAAtl0e4ufubnadGQsvlCWzWxTLrSrpGuYwvTPEP/MnOoPB6OLlX0sI8fYUco6+QHeKvzKH5ddejcoPVBjFYqY+kFq27wZFZoivUteAnzqLCqxCbxspweqvSTyaimjS1Lnn5zd44saYJm8QiMy6d7JlLqOqjtbnBOoW4PFmtlPxyfSDI0tDsPCmcU0VCEBPzXaJCVjrD1LFTsGJRA0XKwXJCRa4z+URDIByNGypOTawtDDeecT1f61rTjQexuYARBCgGy+laLhEZFS2HSsMNPdQnvtDvd1pqO0RJETmdhlGOtbzq0oJuON2cv8S6YwuWa5wy0vnEI6G2qgM3x9EBSkmu+EeJHTv4SUrqyyaKGJnSO8g+WI4xydO0IX7gc92sIsXjJTeONZON0r+o3Yzio0mi7ujkEQvEMQiAQHETgJYr7vHL7rl8CFouuwZnMFhF6WPJV6JpRuRnfGGq49I9n/6bfpm3ks2fysXMZWobcYxUzYsbfWIo/q45aip5MNvFFuJymZqfYDkaJic4qlF/S8POQ4LlnLwQjRlOVmCWl/GMQ8Xlu7p7qiAXDQVIfBTNVqy0g+WS32XKuZbBhbVEeirOVqw1WM5XbrZ7UBuj2/yxmCUJIvZGIxODnuLxNowtTAjJVxRJsJzSELwzH8gkc4+Ng3x+5uy0rILl8tw2NqXzc+DvmnJ4c0ReSKUWLBdsE96MuIxLHqZN482Y3anBeuPQJtndKREsV9wTmI4segECyQhAyx3luwVariBHP+OVaMYXJntMsJVWVe/NVGxxwjlsteS+qCLxHqwipwMSYWXz2NQSJJIAOTUW7kluKqGaMOEUsebwOREwUp8lhfhPJoR8J9T5iugu4vJEUno6TD/yft0hWK6yf9mITPtGiIjzKh7qdalaIvFo6J2akFgyo9dZQpqKum49aZ6REM/XFFy42Vppb2HD6ApNQ6rGo+GBOibAzjTUGOefa9GzdHayPSeIO6tNwMvfCxhwWHdcr7JFSWkNTvmNBu1yspyi00YizXu3Usk+WmB7uNE5meZbIacbsJg+pzsxyKeZ67wSLxHeyxi3w8FNG3LjrE/UCI9o8gy0baJAXKnFR5Nd3QnlFNNQotkgAAKuBApUy4WeGjk5UvjXlNOi+ttdcsmbh9VOj6qyYO8uSaYyssyzilMDzj7JsNI00bnzNkiSLu6NvXjSMtRgX9mYPjnVVR95OvpmL0Su+i346mX37YGKMtcxcGpn/j9PW8uVNVTf3hx5RToY2n07cn/u9HGv4nHLfcLBEiwGfJc8ltf4AC18bCIsMGGNn3wTcxxrj5fWbponTmUWxOfMHCG3OTjPpYwvFKjmmgB5r7wW1EPzs6+IOEaKixvF3xqKUE+/tRvtjgFyYu15CJaj9jch30kF3TOALgezD5arunSXeJmKUTEeL/W6THmFqq9WRVdPEhKmGUgr++eMlB72BP1EAyciUz1Mqnm8SlW37tqq953oVR6ISDelSK1teiQhAaWKGVyMmU/T6zsmBKKOpmpSoxy1WIoL96yPRaS5vpts937XnESfm52T3X2ShcvXb1pTdNqqE++gIjhWHPMnGW7VKQbLVfDtMfQBzeu0OWHygx1c0YPlvugR/cAH9Qi6xOIA/1DzNJa4UyJYrghmabHfZWh/YRAoMS2nNK2MUB3Ve6Vc/qeUC8WXzfV8GOiiX9NyviuJcZPwINovuBV2EGYnq5efU+FHs26yEnZ/aGpyaAx/1lxoexkZNn6+76/kn/MWyruTxZlMDiXZSMCoojbcTzWwSWPvPqn351bLeWs3fiNVvPiKpia3cAh0viGcxyJdLmTosBaLlkt9JWoBkvGFlnJy+it5heyevp/WmEIWhJ6wsbMcW9x8ws1xifVbXR+aVkJsrWMPASKaUJoknbZHcmf5rzoEy7FdFmKLY2xLqIllGr1GUkpmHSxHc1eq6nbshhBaRi1Ribk+C4GmG6u6j+I34zWykDNOhoSE6cE2ip/EjBkZHYWwQ4kG9tUN3qWWugfzl86R/axUZ7bKJ+MRmv5RalijxkzV7nlLBu7euN9hmNJ4o/HhQNgt+HMp8oAKIU2FxqNuJzOz80S7GMHo0EjJ1MrkzOz8hC3SWp6k0eXRWuxfZRosl89pYyQ1SfuFQmS4nChM8bEgUXc5mnjFPvRoPwiUGoFS03Ke6sZtKqW252SZDxxPoIv+/cmd5wNMhtkOgluTtmLLz0Z+Nskb21WTu0/rnRYf5PFa2Fru1KRcyBk93Xk+RLtsl4UcLD1HZ+Vil/Mqlx9SLf26pUm2yumJ0ROSiDRae5LTCuXGTmMlasaS8YVp/3VPutV1dwMLL3F0KVQqyi1vu73UFGNZYmb/q7pkS5FPFsGxhaupeM3xc/6op76USNP+Rad2rgrbEmS5sxzJqqJrM3ELqcrhiB66lljoYeTJsFIbgtmIJ5ntJCSMd43mctDkXCx8keSWtGjgqvYJkjJ0O0GygFDHNqlI83iruBFVI7Y298dIfNUUnMaMmap9S4aTA8t6Tx0KVzy5eqNxpi0Y0QXqw/kbRr7KjdnBoVvB3gaufs03YNr3UQ4uT577pOsLvRcPUsjTyHxlk5mz2CuSDA40G5evKoMLU7nEMKA1jzFd7X7A3L9T2FlOk/FXG5MOWbbTpiF4T7CUGq7UDi7TonN4ZKwOO8sdxg0oeZCiGSBwKAQKVMuZWdDlOPV+NH9ruZ18M8+orHredMr28K3/yslwx2vRJUdwZ7W2yUifcNLXM9dPrUCTe7udl01GNt/nT5hFLrgTq+9pOGY4VZ5q/uD2Eyo59ifl2pK1sJC1XHn1feq8urc/vjV31q+/ey47U3lldchsrLNrOdMApbpX+DAzu4l+sKwo7kz7YsXdhkmHtSi0nNI5R/5+m9NXsEnidJDxhU4FunxO9hhwzkjBAzbku3Jp+yBdX1O1aKt+/oLj9MCiQ4ia2WcsHjf2GzC0k2WhIy3h7rB1h18aLJf2+2+jUt5BNiEbxqL6Imw1oscK3iWbrQn+lh6vQpStk+ozf27dWY5mVSFtZkkpaZCemli6ZA9vI3sbiG/rWZvFA+oGaeqaKOcML1migTUppTSMGmpnW1UfCllASHYcya59WkzjA33abN4dm9KTKxrZU7QSZtuNxot61Wx79HgV/zVDS98NONi+yAnbarr+yfxviq+mnbrs6oGXlEwiYfzq1msAACAASURBVGyHqKqxxVAPjxJ0uVMO/6tMguVoSKrzDW6eqOncRNqsSC94Mo26DO/WnNoqxdodk8rq91Hupw3xmo5NNfHJybZkdAqWY48F6b7hhz8hxWcOjkEABHJGoPS0nOIQDmcgq1x+TZTe7uNacxgbXfRrZr3QdthqfCvrbX8ltfhxZ7/RSOCY+Ng1jrl6cTAxkUsOQculOo1OzTFD5fj9YetV/nBAkHM50nJeV7WWROlZW2gflML8JOOVaMYXZsCBpMWTbQlg5AURTEAkd7bwiT40NK2FmCMkpZZoC6a7JDRuW41HJlqTJKuUzwSymuQ77bq/v2ffEoVmd/yzNJ64CFrFVRbBckywPSKKgiGl7oiJuW6JN3LKO8sJwXKmBZ8eBMi26SMaWNdpZMMAao6jV9mC5fQhEHZji0fGG318Zzn/kJGTU1U35y9VNgQNsbe+pqfvs4RZki3jHPf+zvKNhq+ua4rOLrZlHM1DszxU0zwyG6WuoaqaWHPfSY8CscyNA/2V2kityetd20ZucFHG5OpYC6Gk2jhXZbJyDPO7s9fAWJgY4vS3SOPc2C5mvhkcD4cn5F8ZOYHs6PI0bYy3MLaYT4ed5aoCd7R3ScsjPFoYwXIHeq/ZJwY+AYEDJFCCWs4jyABrVgyuu8a/DVjWeYKWk4suweL3tJ7pQOYN+OZhNfvQ9BCpbtohInDEOZOH4ilgLccjDJ812k2dHi9XyHv7udJyiosXJWO+Jx8py8gWya8Zr0QzvjCTBw0JMrFajbyKh7jzCbsbUQc/8/4BNEuHVeq4DpO4YNpW1Qfzgxf4qsV0u6XQqfY/xjRbX7gzvQuJ5XAteMGtqSSkzbJVmlfxZB4sR7OqqGvBkdm4tnildrbzE7rmUWluFUvDSMCMKr6tl/IRg+UsJyj+ujriYGkNlmvs6bIm5bcFy4nyW43NXda2CGcbZBmukjwIcONW11BEXZ+oa5xY07pp1nJkn/GoU9aTjN9olJ/vCd5hWyyYt4yz7izn83eML67zOLr4vdlspmJ6M9AYGn/PjZQi9+bnvjG26Eis3WXvI1wPpnqqvEr5GUvIpfOvHbeM6Re93pSKD2RVpfaG1Kn8uqBudN2OTbdbaySeotuRMYeAWK12h50GPV59yIx3BLpNVczZw/mfaGBKfo0nd7XcUKZf8zhtqBF+bZKlmTWqdthZznLPar8iWM40WHygJaxwJggUPYGS1HKCDNjt7BFuXa4BJB53XMu9Wj0rvfNPzVPz1Nv2DlLs6WUSKScxWNFCWIqR0Ma1YpwxZyNviTFzZ95qrjT6yG2PudNyHi68LdlNUsiMIgw6HYVCJ08NLGpspiWtNmd8YVq1kJNJ8o/oqN/G057/mplxhCSWNK5PbkeyN8m0ldm2qm7cDXbUKIU6viTWy9hKztLITHeWo+Or7WpAjoVguarLS3GzJydnSLU0M+Lxr8xtswXLmQZXOdc52KetKYVgOV9jYEDcgY2UTA1BNJ6N6vZtNb6imePIabYNsrR+EfVbVVGpeCQzp2Y0qnv9rQxYYwKNvpzsXyT+yZFBu6+pub9GM8prWgKhJU3DGbYdbbvzActCnwC3ubSVnx8I36MZX7SXC0tjBzYtkzo5M1NVmgfpOqZSb0n6ZkEG2WnK2T8ns0uY2/Qc+oLAfScPe+0ndFOqni1J3YiGA/JYR4ski4aTbHmf92lT2Rk2tlex39e2G4cioncWg9B4U38bIrxZY1/hAARAoOQIlKaW8zS3vCCmsNBGkD7mygUNIAmy4lpua4peYhlv7mbJrE/8KlNiD+qNafnQsWRLRYX1K+vjWKTXgYxbHkvTJVz1ueY+0f9EMQ1s3nUgpR0LTJU6/sErHM7pr0RJpzK+MLO+G+tIWegIWfWKAVckdErYF5tGQ9neN9vGS6mo650QDSDGgluM+LfG0RnBcpGrPAaP9rHuWlR+sjS+Lo0PlwKnecuZkJv+lBiyxInnmAaGNlI7mXr0cbOnb2BZX5Hrljfqn2axsym8DWKNJB0CM+KJFZmOabHi2BknnGkbu6PbdrQVNguWq2mdWdOGYzMyJqS41Kq2B8tdnI8/EKLpKvun79wa7Giqq/FX+asETW7eKNyu5Vjgn4NRlEy/7ZRehfiHaEAjUXHx5Sl5CBzJraoblExsdT7l5wfmBBudujF/SZgP9vNz8klNYFbYv1FqZ1vivqDa649osvNJIaOt8olU194m3bDRSX0pdQ1+pzlpmnhidTTOzZ5Ok74giKfxkqszzLZV3I5Hw7emqSUzskqTizANb8yBjWh4pEnaTTZqBzBttBSvRsNkbgtOO8t5vDWXZubnwhODur/oYGgpZkSiPryZPF+L44iIo4NjEACBgiZQolrOK/hDUrdAIehr4Ha1fVSYYiH7y7EnOD/oaqMhc0dVyzll/8+LllO48BPsq1ce0+37TFtK2Ae0mD5JayXKJ6RXyfhCsZDUj41YGtn7e5lLD7FELV0ylgssx6D9fbOwntAMceEoC4pLJ7OCZmCRtY1qlTTNFMmrFsw1JO5Ljc/1iULOV0EUS8bBcppTKwkspEovqZ3NGNCsguWYitOhxe5cbW6mfo8XWsg+B1qKy/jykOE2qd1u8mA5PrjUWdR1AmiNJ1qOWRVoDo87/bkxyrHMn6tLbqkpz11d1oR9bK5X7o9gcK5qH1/UXfgcPF0P+EFU1TqlK+3tROyh7gsqzFL7nV5+wq1r2sbrxh6JD2a7rLGpVH2JbxZoIsfoGJ8V9kolnxBfVnV50Bb2SV4QpLVxHzXlWW55PcrXCOsld7cW9zjRdV6vVPG3Tt0137/mscvztKkZYeGa85estLWWOATLKR6vLI+uGpt2EOcS/vwmNXcZn4MACBQDgVLVcoqo3GY05SZRd+YnGrSc00OckbH4Ogrn50fLebh4pvGNgnHVyeHTPKxCIwv2hqSZ1lU1Vfcw0seML8wQBQmWi4zW2MJjhvVk8WzxrWEnnnvEaYqu42Xvm7XunGhovzYbNRyi2ApsfbbdJUJG3DDt/Li+85vKLVq8j/7mPrbnm/vBLaOQ2KJDagQxTUJgIGCkQ1D8XXNGYJIaW5wIhufn7kRjG1q6TW29aPgEZh4sV9E11E/MBWS9S1zaqIcbdRFk0FI9iAwa2SDNwXJKXU/QsMXp5cTujBsJZkzBcuIGdNtqbK5HbyFdQLOd5c61iGkkBucMjSFuwceHo/mccKsSLacaSTuIX64tDwS70xunKP+UTTf+Cy1+loWfTxWhDSxt5qP59uRWJl9NaxPZRdChNNbaPB6wvf6MdDXEmCmPMFTqdDfRxKxb76ghXZKmiI6R6c3ChZtGBJ36aOmSQ65RaffJWwBVkqGUfLVNp2tqeBtHb40FBgIdRiCfbgH2VTWKpn7NENfiZ36/XurEK+zAYW9qfqfN+Yk1VU18M9EqdxKuqOseCASGAxcbqvx+0w7m1iTAsejChC2W1TS37V3DJyAAAsVLoGS1nEdY9Gtp66Vel6a/CkyxONvl3HwsmaWu9J6YjMwB+1gqYlaVNw+rPV4xSanUuFqU8DNYiRpPnIwvzPCBRYLlnMWDOdaF2Aw1h8wq4pUnCyQr77gZNQwITIRsxI3876ZloulutQ00sQHKAvlsF/r7xsc6mkyLIeMcs6pJlRJd1ErteMuX9Vf+dGe5xCZ18ZJ5chryz8mXjPCkkC/ddR4IRtLlYH2iRu81KVZdGrwwLMaAxcx5Gkl1TKd5fY0hQ5vpzVi92VozHNGro8Fy1Ezn0gb+lektAM0To8YmGzQbna6KHf1y036jYayJuYwUBadwTLZ6j991SGxoEfZ9LdatL2wTL9UZldGFSt3wspFmU10LGr6vlIzVYHimadDYNE/n75iXlWbg0LLR2NQsfZVgCZaruHSHJIaxVurSKZq9SZahlL4gSDdYjlfnq/hEzG0jGOL4OfrzhApXVfaY8ngPYtpU1NUleSNgNVnbnoSWTuFXEACBI0CgKLTcR1s0/CyteDOe6WS3c2Z1jISu/dZ7RT6uTLFMZpT7xFnnyKsrokfwIeU+0bk1rdD9AN91XvYqyTJqFhFV2lTqt5O2US7jCzOekEmTLpgDrohI2JgdJIt+LXuHZDlLrAeaw572Ovl8hcdsgJJcYusCeXkvC+SzXk4jDO05ZsjyVLK3OB0sW71a4cbqSnPfWosszIdDw4FAZ6PfXyWYfahtISX1JTMtKh6WzJ26tDnlAyQm08CSrofj4W5rVkByAokBow6okeFLX5BVeDxy0/ZSnwXLmVzg+I4CibuD15Z0Nct2lqvqmiSBWItRI01IYu2ONb5r+YFeKRWodLBIvj713nx4XYf28FazTU4YJzfPpGmUoylhpNo78w8zFxuus0s65SwfKv7WUIRsf2dyhqwIrOj0mGnxRENggWbs3FYT684pW9g2GA6GdKdgOeofq6oyIxsdX1OXaT6k2HSz6XPt5EyC5Ugh5TUtgzORNSMjzraacPen1ZHyfertvS6MaZPhM8oyYfArCIBAaREoCi3Hc2CkpeWERIihvfckE6N1lwI+nFzLOWS6F7w009qTgFdh+0NVJF99/oRuv06DD81/kvOyJwGpwmRQ5WOUZOP1IgGrhxiluRKlXUt7CUsvNI9dGnMyvWA5IZbPWB87v6dvGrszO9bBs8yR9cqjpYDoRel23HJDX/HLguWsHSTcJK5lVNUk3Xdu1LR7r8dBYwicabDcTJvNN1UQWkR9OfiS5SlYjharGWcu3Izemw1YtxnQATYavnNMp3GqFX3z8c2lS2eoFU7bQ4x/q0Gg5h3JBCBf2UU+HQvDcCe3k+i1ZPBGo/XmmswoasqOY06M4W5NNS6MXrOkjzdDsDDJ3a9V7RMRtuvdxmyrZTaSjRzUtfDwGNt3QUsrepMEiUlbotQMruga25G8LFiOFMVNc5Z9roU7QoBD362oUUnWIppNxyFY7lxT8zlLvJ+/9frsYjTGg+IexZb/ONx+vqG5V7DEXrvF88FE1tjQ86u2Vas18kCmTdecm91eaydJ1ppgbZYfPLzVLh1ZfAgCIFCKBIpMyzkrMeFvAx8nUWMYaoSGXfFz2IVcJ2S6V/j4RtDyd4UVfqw+2Lbz8CP5HzOjMQW8v1wZD4eTbL2Qn73CGbqKhZdESe7uBWle0AE9BpKdk4eDvuXv2X/Ll90GTjKXUm5PBitRo7qML8y8tSRYTrbvMAlIM4U8sXg5w48rZF7pnhsIh4dt6zCDm3kdz93wkhu1HCxawnCQVN128aB4aJ7GpJaZNDw/DdqZB8sJLU/PVpmLneX4VKGxjm5p8agvHHfC1BvPhNxMm9V5rLJ/ThchsSnJJhzUhU8bdIkIpG3LzxsN2l8j4nFbjQzJ7Mm0Dfl6OCQrX6nruRER9kWQJ/4h7xHIrFbjSXPue7ys+5ZEPsJspH7F8nuBRc0lN81VdC0Y1mCZUY5l03EIliPm7oSYTjbzpwdX7MyUt9Ajz7UjHxrGjTyp0p821BydzkNP/rwyu0gc1hRFvSAAAgdDoCi0nHIlQVMX7o9vzZ31pxxUzXeEM7w03baWFrXc5N5+cGe1tsnIJXXS1zPX/4b6ee7t9V4pF/6qeX2fP2EaI/TqaVuor4K28Jj/Dx/MrPa/2NPViHsW/gLWcp7y6vu71DQnDEHZmcorq0O7jIx2kCRukKemdKch/LGs/4q6WbKKBLtovu6TA9FyhqVL3VZTeoEtMMn4wnzhEtpGq/A1knx66lrYuo6noV/SrBLklX88avXH46/SaYZx4xPqwpcsWI4l0pQuDYlYSrqx8q1LYpYOSce1h0P5mbrm3uHgaJu2Fsx0ZzlKUiuQEptN6XU79QeTL7WFNtNgufku4UPPxdn4RixK/CGXWEIat7Up9YVjwXJ646uIj5+W8TI2J+Z8P0OEnCSphtaSqtYwDcbbtNmaWFPPXY0aciu5ZhCf2O7HvsZJkqNlupkKoUd3L8nTUbgXpXhO9i/qNsDY4oBVyrJepH+gqbgVquLUeCQ0sairYjN82rZmsqO3uh2bbnV620hPZjNtW/q+g5xGlbYlWI4VQn07kz3ZmI9uQq6a6CsJGtsp3hFsx3n13ri4DYmWcknPV7kWYQ8QPQ8KiW/sHFvU1eO9iUbTrhis8brXtKrN2HC331yjcI511HIxbXx17ZYgTMuv1+/GNZkXXwwKNkbLOfqvXY0mX+iUe+HSQXwFAiBQuASKQ8uV8S3FmKKgB5JdvwXc1Y3bTADsT2pJUKyPYHYy13I7z+me4MK11CIU3Jq0/TksPxshO4bTVkkunNxzVy+FrOW8itsQ7E/uPB+ifMxajieidCWj43J0oK1u2jHzdDzTcXDZKKd8cABaLuOVaMYX5pAPK0qpqPI3tQcGxmbmF6Nr0x06YXOeQ5tdpemGvhmuXMGmZ4DSqkstWI6+NdffeecsWI5yIOItvBR9QDNYbqvRa1pmdtI893gq6uvoYFqk1gYaLOf8HNP5s93YGt0nPC3W8hafZmoRX/nHF/rd1Ih9ZzlCxlcTmCe7XW2r6qO1uUCDv/2mkc4ksTIs24isqp3mBTUasHbdbNSlzHP/RoOnJE1ExrRKy42M/HaPO9oG94Gg2YnkRif3ayXf2jZdjEcmtCyjybaQJordUNSBOmFbP+v0YGfa7lnTmY7BcgwLE5DOCS2ZkLN6M7JC6AsCeTYg8qBQnV9Y+GoCsze6LaqG+BcIZVa1h6PLIdMeehUXB2x7MJgImEYn19PGVDij4VVosJz5zYtwgtOF+BwEQKC0CRSHlvN4fVcS41QtmFWBu5bzKnw7sv2RZXtoNX8Oci23NeULcVObWF1wK1xRxi8RHu7llbd/YNY58RLjOPTmedtQg3C+vZDC1nIer+Kf6jeb4Eg33yRq/dwJMw9azuu7/VxEGgiZ7KKuVO2cU/vEN/wn5mJ5b7w2H0+BjFeiGV+YfS+0fBufdAYC49MLmmghwRvcI0i3jFW2CfuP6e5GFt88I4bHIcU8DZZLzQCljSbdfGyu07mDVZcWdDuGura8YgQoWswODqrGfbac659eiKyx7Qc4B63XiY27o5oFjwbLTcoFCWkzUV+HFywn9LSq96bJBBqeCFxIYqAgetUeLGcU66sLCIkTDYUWm+uUiENf09g3htOdGn8QI/k8pFFbOX+jcaYnrG8Tp24TIacPTdVghLjMqasTjTyFfQqPHZpGMuG0LZ7A3Hnq0op8nWEWF6elLZkPGLuieRWyhbQNvpb8IxwNa5lUTS8y4vdm2bVivXXXiS3UXchxb2S3Nws1Y/cIN+ONhliRR/F3hUmcsGrPMsKw0KxIc90UAvvKq7QbqXrkJllfTe9NEkZoiYwlyXhZAJ6vnTh5qupmJNieZJ6bemE0JufTRuijpToioS1vXpzPt1yOX0EABEqVQLFoOe1RXjvQdP/l2Js95m+pr+9T13JJtpYWtZzi8R5rnet+8ZbKs72xF09akogxr3K8sz6yOfDiHb1qP7T7dmRrtfGyu4oznsUFr+W0LQEaqm9vjrwiQxDafTvw7USlJm7zq+UU0Vd293GtXE7n9E8aN8ttfdFhSSeQk4rOkf3QUs/2Rp5BGV+YUbPLm6+GF+Yjq/H4Jllhi7YadpzYjMeiS3Ph4VZqctE8lC76yeJD89dib8eJ/5Us/7gkW2PyJy99ee9g0dIc9oidx9g5ioUabicioU66wVTPnJH43hLX5w7NbL9KbMaid2aDI50m362iD5aTLKNtg+IQLCfSU/ytf6Ruk4bofbA0Zl4686z62+qaFl9Ht/zaVu0rfrKUT+bFZ2uqrDtidke7Z11lZ1g3I2uzXV0L97rZtcTqqP9qmptGitDMx0aBdiVm2UK6vKYlEFrSslVqnNeC5/Uum03l2ruG9cj0tc5Gks5UqRsjmTDlGltsCbW5ORvEtBqJSVONzfWZ9g1X6gbmGM+Hs+3OzqvkBYHUI5rexbbHiKbiltk2lZuRG5bxIsl4hZcmvqYxIexQM3U6N0kcX09+po2pChE7Deh13EPCdLJsnuMEEACBEiVQTFrO+Rnn/NgSfCyTbS1t0XLOZZboVMgEb8miuDj7mJjl7o3lxyhH87/L/QydweZyCetcC5sMzOeKyTZVTRjBVNPX9K14z1CRJr5r37w7WKPfQfTNupqgn5CFIF1iWttA8+PpES/yFG2WJIREZAqLM7FMbufhhjieeVxbnSfWIrfGgktGIMpcr5BY0iVzptHri7Ox6FI4NNz+iXnrXm/TKIvo+8awP8Sjiyx6R3JAYtI2orpBbDbwoen5Q0bBmrjfdA4bMk+6wXKaCTFZ9rwkJxCdL4/XOtHQFVpibpbxe5GoYF9S1ycatfHyNV6LxEnwW3x5iK7+6eZy2vTbnL9kBDB7FU9O3mgoFf7W4ekINRBtq8RlUZw/xnFl27SxNYKhQo1tpoU9Jzh8di3dMy2ZjcthEFk54sHJmjpr2kaFhY1FZ/rHZiJUwlFb4satVqEE/2XB35WakRMLnYpXqfhUc3y1hi+ebOgi222T+6KmYyJCVKJ8C3IBRcOlEZPjose8r1387nCNq52TvgmKzZni1nwVn7Cd9KK66VtnqPgbR2b51NqMhu3epIqfWFltDs9V7CVUUk/UHE8b4VnBHhrSgztrhpk65UDim12n05ldwjwRBhElgAAIFAGBEtdyfHey/aSZD6HlimC+HtDfmPob64aU2wg77WqVVUtoFri0jXIZX5jp3+m60JpubpqfvjbQ1VpXRd/iW7ovJkaPR8YFVzTBRU2NR+9EjDW9Q6oDhe4sR1eidLnJlaTTJ7Kd5So+penaDYucAKGqe5api+SF2yp1ywLizaIXRkXWDe6o/6ebS5tw86YbLGfrXQZA9EtMOxaUn2lqv3Yrss7NudwtUPG3Gnlx1LXpT6s0Qw1xbtT83MaMfa7pYJmFdyx8scrjTTPrPS1Km7S+qqoPW7qu3TKlrd9W1Y27Sfzr9D3ciNqkxBKba5HwxGCgx56R1X8tqjGxOPiJLcnRseRty7aaeBidC/Uwm5vpbvXVdU3dZR0xibczfqvXK3vg0C6zuZHK/h+8Xk3F8X3ttEQ4l6lcd+bAnMlZpeYD/namMRhlPVI1FUc3ONGy+OguA5o6YnvNJeasQXT67VPZFqT+vVo+KtFEn79pQ6P+zF1L/wFoGyA1xVc/zvz58OEcEACBwiZQ0lpOyL6YgmMetJywHCzsWZvvvzGnx+4ZUu7rwZN5qCvjlWjGF+Z3ZCsG75KFiBpfHrF5oNHU83yx4hwho+Wg0zJkzF9ysYmZvuqc1v21hEwGpLPlzAEyYZUHZEy1F/namt4W9ZdsISXdCEu4ZSq6zfFm0rfsLh9O9VQJpXloWhR3lzY2UesmdUNT8pVc0+AXEguhKVLOpZHCV9SoSHaWqxhcMiFVE2t39C3gxU55FaVuYPBiTSvd6VvdVp0MNVyuJCKjjXRzds1+cjeQck5jj7dq9BvbyKqJWHR2MFk0IGPrOdMm7tJGprR9PtOMqUk0vxkIryX1z6n1j7Rkw1nCWcv0+VsHgjPDde4O5OwmMkuF2EK/LGmN03NG8JXVNkUYcDfHcQ6VnTSC0Tpw2i7nn/KNIkiQ7cZdq0elrP1rU9a0urxG3T6c2Bbtk/mdNuXt4xnccSldMibZ6kPoqdNg4XMQAIHiI1CyWq7szNnbz1jcmsu2cmzMoOUYiiN+cHL4P3Up9+DGeesC6IiTceq+Znxz9E/TjCF1XaElY4PmtTvjzuEoaRqgvIrHJVhOX+amEf2ij7VSmYKPpbtzXc7nTHqJPWka9xSNeDlorS1YjhpzEqtLwUALjUh0mDzGjn/J0k5o0VzSDCjptJ/kCNFeFsQ1x9qOpgpXHz/Hha+vpjkwMWdsSC1rVcVQRBNXMluxY5npdEQsRAsqe7S2GBqw2wbF0zI8PtcSsKa85yF2aZSpJapJrC0MNzIv2dT7e8J6S5bb9efJhlaZILdm8ZkZb6+zpaG2tUQ5VyPaJw9s2qTB09ZmXAsCIHCUCZSeljsdeSvmPNSPXzY3JX/2Qcs5LLaSo8OFR56AfXVVANOm4lyNS/r1o/zcz3Pfaxpb61KXSXXt5qgqh5mj+JKvwpP062RDa2tdVS6luK9C4nXsq+nQtv9qNUJGHbqTpKmpX+WrkGib1C8/qDOVzGTzQTXPbTgOaNoc+T8ihTDWaAMIFCeBI6Dl9gIhcyIBh6c2tBz+loAACIAACIAACIAACIAACBQNgZLWcu+DL54m30iASjtouaKZtXTI0GAQAAEQAAEQAAEQAAEQOLoESk/LHd2xhMIBARAAARAAARAAARAAARA4OgSg5aD9QAAEQAAEQAAEQAAEQAAEQKD4CEDLFd+YHZ03DegpCIAACIAACIAACIAACICAEwFoOWg5EAABEAABEAABEAABEAABECg+AtByxTdmTrocn4MACIAACIAACIAACIAACBwdAtBy0HIgAAIgAAIgAAIgAAIgAAIgUHwEoOWKb8yOzpsG9BQEQAAEQAAEQAAEQAAEQMCJALQctBwIgAAIgAAIgAAIgAAIgAAIFB8BaLniGzMnXY7PQQAEQAAEQAAEQAAEQAAEjg4BaDloORAAARAAARAAARAAARAAARAoPgLQcsU3ZkfnTQN6CgIgAAIgAAIgAAIgAAIg4EQAWg5aDgRAAARAAARAAARAAARAAASKjwC0XPGNmZMux+cgAAIgAAIgAAIgAAIgAAJHhwC0HLQcCIAACIAACIAACIAACIAACBQfAWi54huzo/OmAT0FARAAARAAARAAARAAARBwIgAtBy0HAiAAAiAAAiAAAiAAAiAAAsVHAFqu+MbMSZfjcxAAARAAARAAARAAARAAgaNDAFoOWg4EQAAEQAAEQAAEQAAEQAAEio8AtFzxjVnhvGk4feGzW8v3NuKPvyf/rU/UgycIgAAIgAAIZP/czgAAIABJREFUgAAIgAAIgMBBEICWOwjKhaO+ctiS5pkNKuHY/6HlMJ1AAARAAARAAARAAARA4IAIQMsdEOgciqiCKOpc8B5TcPwAWg7TCQRAAARAAARAAARAAAQOiAC03AGBLggB5s1ZZ0+PUSn3ZGPhPy6cPpGzkksMFLoDAiAAAiAAAiAAAiAAAnkiAC0HEZIJge4vqTHuq8t5mpooFgRAAARAAARAAARAAARAwIUAtFwmSsYF6BH5qm+ZaLn1G41HpMvoJgiAAAiAAAiAAAiAAAgUFIHC1XKhp5N7+/rP03qPVylr/ejb52O77/VP3gdfvexfvlpR5uY0WL9lXL4/FunSBFtZQ+3yk5E3vxnFhnbfjmyt1NaW27TcycrLi90v3gZ3yeWh3XejO7Gmyw22M0ntrKLJrSntnKaJzp23QdL4vbEXT1qGHK/Vyzx5OrTa/+LtOOnd/uTe++CbtyPbsZYrfb7jbn10alLeP4eWK6jbGI0BARAAARAAARAAARA4ggSKQ8v5g71viLKiAk//dfdJo0SMWSWWpuWcSjDUFxv4st7mnT1TFUSSadUFt+crZepR1HK+K4lx4RJWVHArLFee/s86XxgCVdbBPSpEWQslBxfaXkaGjZ/v+yslJ+RBDULLHQxn1AICIAACIAACIAACIAACTgSKQcv9OLAj1zmaUtp98tEpuVZhEmssEmx+4VCCScs1O55G5Vlwa8pnQ8kqmtx5PkDPZCqOHQS3Jm3XVtdvETshO81yQIyKtkoFyxu0nHwCCIhwAgiAAAiAAAiAAAiAAAiUHIFi0HK6DNt93nal+ZhuFjvm72vc2mWaZ/z+sHTVziTW2IvXIU1ive2/PXzaf1I/ufxY7R8+uL05cn+SXeu7/ZyVGdyJ1fd8eExTUCd9PXP9r5jp7LdAqJpdYhywiozLgzurtU1n9K/0a7lFcbfzstmls/6rEar99BobjA4qnvJjtR+fvbLYtvV6aFl3EIWWcyNQcrclOgsCIAACIAACIAACIAACSQkUh5bb/aHRb1mvl5+NvKXS61mjzDRnkli7T128MXXdFehkouvFymmLL2VZb9sratl78VWFGatYUWg7bDW+lfW2s2u350zffv6EduFpvaVGcxUW9Wj+9RDsctVXvkXuE/MoWOYnfgUBEAABEAABEAABEACBPBMoCi03stwsWTefmmMOjYGQ2d6lCyFBYkmMadYCW78ZJSay3c4eGfQrj3Xj3v7k3vMms3QUKnrd0iS51jfzTK7ZriRomT93UqujtWHJRd3Ba7mTg18/IVpuoTv9BksQoRAQAAEQAAEQAAEQAAEQAIH0CBSDlnvb3iFd/Vc30Ti6sUivvdtcYr15WJ1UEbG0mY4nT/YTsfdb7xVTe3hFr1bPSis6NU9lp7kvZVMB6mOpi73fgq9eBu6vNs1cO1treGmaKrL38cA/UU6e/qR3do1uLvdk5T8Mn9VCayfaAwIgAAIgAAIgAAIgAAKlTqAYtJy+J4FMI3E3S1MKEzJmXGLJvrWooNPMY3Nn3uQGyevtYm6WgRmTGTCFiribZSBkmlK+0FO6ewH14aTqLvTmedvQh5Z2Htqv52+sUwFH//9kY7arivMx9evQ2on2gAAIgAAIgAAIgAAIgMARIVDUWo4LMJlaYxJLarWziA33ovSTyxu3idyy5JZkFZH95SRTR9CBZi2neLy+nsX+F3vU2dKi6PYCocKQc2Yt93jjy8/On7AwxK8gAAIgAAIgAAIgAAIgAAIHR+BoaLmkqSC9h6jlyGAf//D05cnG5diARde9iSV3EJWox1xbycxaTjfNPVmfaDy4mXoAfUQVIAACIAACIAACIAACIFBEBIpay6XoY2kxo0nlB9dyB+tjKW2McqqraZttWf6u83KuhVnmE1Q5Wd362cIGdbPc+qJDkXch8yoKp7NoCQiAAAiAAAiAAAiAAAgUMIFi0HLmfCFcJKSa+yQVLafM/EBSTTrlPuF5SnKX+4T3xTZFyoK9u8Tf0hJiVwDa6VzwHlFzj2c7CqA9NnouYPEVCIAACIAACIAACIAACJQGgWLQcvtZ7kmQkpbrWB07+D0J3OaQW4jdocunuokHRMytT9S59QIqCwRAAARAAARAAARAAARAID8EikLLTWa3V3hKWs5zKHuFPxyKXK2Q7hLetDJCE1r2f+4+9ge/v5xX6VumWu5GI7QcCIAACIAACIAACIAACIDAwRMoDi23tz+5+2Mb3U37mL+vcWuX7r69H9y4JrVTsfSSqWk5r+/2c17mTqy+58Nj2nic9PXM9b96T7+SbDvOKjLOCe6s1jYZu8Pp175hqSn3eq+YNjNQyKZ270bur9T2NBwzRN2phrOh2BB1sJzce9Zo3prc1lloOXeti29BAARAAARAAARAAARAoBQJFIOW+3GA7glOBRVTR/uTu08+cpA6TGKlqOUUD3drlFSkW8mCW1P23edYRZM7z+me4EILqXktuDVpvZZtUE7Psdc7KtsG3SznoOVK8c48+Pc6qBEEQAAEQAAEQAAEQKC4CBSDlnta75/q53YqQSbtPmmsNVu6BPpMYqWs5bxKWW/zDksgKVRkCLnt+UqZPySraHJryhd6It37O7gVlvhSljXURp6POwq592P3g1b5J3SQKjpoOWg5EAABEAABEAABEAABEDh6BIpDy3m8yvHOxvsvx3YNX8f3wVcv+5cdIs2o2mESKw0tp117svLyYveLt0GqHkO770Z3Yk2XG6h2ss4SVpGxV/ix1jntcqLQ9sZePGkZcrxWK/P4hQ9uxwZevKOXvA++eTuytVrfetKpRvPn0HLWETHzwbcgAAIgAAIgAAIgAAIgUIoEikbLUYVWgMt0i5YrwBbmvkks98nGJHKf5B5vAc92dBYEQAAEQAAEQAAEQKBQCEDLZT8SR1HLdcw9Joks//MzXym+5ICaAgEQAAEQAAEQAAEQAIECJwAtBy2XCYHTY3S38O8ff/3ZhdMnMimkwO8NNA8EQAAEQAAEQAAEQAAECpkAtFz2IuQo2uU854JMzBEDnfa/9Yn67HmiBBAAARAAARAAARAAARAAgeQEoOWSM0qmxY+klvMq52+sCyrOOISWy346oQQQAAEQAAEQAAEQAAEQSIkAtFxKmFzl3BHVch6v4qvvnfjy3kacxs7BLofQQRAAARAAARAAARAAARA4KALQctBy2RNACSAAAiAAAiAAAiAAAiAAAgdNoHC1nKsp7KAxoTEgAAIgAAIgAAIgAAIgAAIgUFAEoOUgC0EABEAABEAABEAABEAABECg+AhAyxXfmBXUywA0BgRAAARAAARAAARAAARA4FAIQMtBy4EACIAACIAACIAACIAACIBA8RGAliu+MTsU0Y9KQQAEQAAEQAAEQAAEQAAECooAtBy0HAiAAAiAAAiAAAiAAAiAAAgUHwFoueIbs4J6GYDGgAAIgAAIgAAIgAAIgAAIHAoBaDloORAAARAAARAAARAAARAAARAoPgLQcsU3Zoci+lEpCIAACIAACIAACIAACIBAQRGAloOWAwEQAAEQAAEQAAEQAAEQAIHiIwAtV3xjVlAvA9AYEAABEAABEAABEAABEACBQyEALQctBwIgAAIgAAIgAAIgAAIgAALFRwBarvjG7FBEPyoFARAAARAAARAAARAAARAoKALQctByIAACIAACIAACIAACIAACIFB8BKDlim/MCuplABoDAiAAAiAAAiAAAiAAAiBwKASg5aDlQAAEQAAEQAAEQAAEQAAEQKD4CEDLFd+YHYroR6UgcLQIKDWtgYFAYKD5HB4RIAACIAACIAACIFCgBKDlCnRgjta62YtRAIECI9Axm9hW1e3YjcYCaxhuFhAAARAAARAAARCgBKDlsFADARDIiEBlU5duuQpk+W9HnUKfR+IrjPIz/ip/Dn7KlUx6VzcZU7dV9dFsu6xtYjtxDAIgAAIgAAIgAAKHRQBaLpN1nnm06rf2J/f0n62prErrWB0zytl7Wm+uwlQsP43Wm5PatRqnAqQB+4EQlrCZELh853v7f8t9mRRlGnSX+XBYX1WNRTW1k/VPfKZF1oWW6Y0cFC4RY+f6pxfm55L9RI3aN6OLyc6cW7jZ5S/0wRIJn7+xbp+jd/qKqQtid3AMAiAAAiAAAkeZALRc9isYaLnsGZZMCTnUck03HhpiJjqWLGSrLrSmbquLB7scbw/H4xsZ/iRUptMS4Q7Z6J+fWMtaJWo6MzJcbhbSuZKgXMSqS5cyMv1Z//D0Lanb6lqowfq5uf3Jvq0IrBhsE3MXZWC9CrRcMoZybrgKBEAABEAABAqQALRc9n+2oeWyZ1gyJeRMy5UP3jXUQuKLzqQPjkPRcklbJT/hTFswEidCSI3NBeQOlh5fVU4cLKtOWKeWUpmC32ZgyQiWm25P4eQzFfKepqfBFE9OtNyFmzFDA98b9zs0AFouN+PlgBeFgwAIgAAIgMBBEoCWsy710qd/0FrO3MLTkbe58fDUioWPZbbrM67lsnJaU1qmXYxySsuNaGTsEx+bCXYtV/HpRCR6szkn9qJsmdBbTPG3hiJxapGLLQzU+OhXuaoiR+UcSLBc1eDdtXC3nw2iRMvV9M+t3x2sTJ1S1WAkiVGOV6exapx4QNwts5quOcJublvqvcaZIAACIAACIHB0CUDLZT/2OdNyGS1loOWyH8EclpAbLVcxFCFGuTmJUa6Cmuxi4Z4qXa2ZtJxSc2lBz9uxrS4PVmU0qXIIhBRV1T4R2aR+lZuRYLugYQ5cCVT13nSPl0stWG681Wb0S4P2hVtx3YAWj4w3GprWZJerYro3PtOUarHNt4hRLnrVyShnLgpaLvdT3UwY5YMACIAACIBAfglAy2XPF1oue4YlU0IutBwzyqnRUYdIOS6NNiPBT6uYltPMcYZkOmy9xFe0vroA1ZaqGo+E2gz9yU84aC1XQY1XVFtmFpi3PlGXXcuVuoG5B3ob1Njc5Rpul6vp5587+aBKquZGOXkIouQSaLmSefKgIyAAAiAAAkeUALScfOCPX/jgdmzgxbvgLskVGdp9HYhMnT4uWQ9ZtZy/r+n+y3Fy4d7Yi83G1pPyWjxefi1NIKk7TLrmsTQvgjOxy5U1VN/eHHm1F9IrDe2+Hbk/p3ctqY8lO+FtW4eOovZqyxbr7Pvgq5f9y1cryiSUlFNd9ZGno29IpZN7vwVfvey+PSA/2dPV9oqQH4t0afSaJtq2XgcNSrt7o1srtbXlTlQP8fMcaDk/zQ+ZkBnl+OgLLovxzYS6rcYf6Oa4gtBLxhD4agLzMepUGY9MtJ45xKHhVSfZ7SDFYLlK7uPKB0U2812/5YiMQUw8jBluqGn7oJIN8VQ1VaMcfCz5lHAdI5wGAiAAAiAAAoVLAFrONjblFZ9v0r0BzEn/NSHxtn+m1XIJ12NbU0rHV0NU/pEwNu2qn9s65MKDX2uoFPJvPrVcbbhf0sL9yd0n9X4m1Zz2JGAnaFrOdyUxbmo2wWXbz+Bk9fJzIsPs5+/+0NRkh2PScvKKdp/WJ3Uk+7T/0svIsPGzdsEycPn4NWstp3SGE4atxtEoZ1p3iqlEttXC0Uvc6LStqobdKW2dk48BSl7mgQTLmZshmi63VfXBfKAuXaFYMxo1zIwOeUHl8GGXMw+EnBLOAQEQAAEQAIHCJQAtZx6b8srbzxxVh4PQ4npse7WdWpMEIacrnDexatMSnCwa+LUmkZM3LXdqUi7kjNp3ng/RZtj0mNFgQctd+WqEnmzprPna8rORny0nWH+VqDJBy91fDUjF597+5PZckiVv0Wm5VI1ybNFZmFque56l7E/ZvuSryMXO4JLsl4YBrfWqe4wc+za1YDm+Q91o9u8IstdymRjlYJczP/zZPYUDEAABEAABECgeAtBypj/nHaujXJ/sDX07dbaWeIUd8//hg5mYbnOzCi2zHtsbigQrT2mGpmP1wbadPapbfuu9kmxa8E3ArVWYGmnWhOn4WJZX39+l7dkf35o769edP8vOVF5ZtZgTzXqMtZxruZEXv03u7YdePW66/Aef4Xpadqaidbjp/uvuz9n5Xt/nT5g2Du7E6nsajhkemKeaP7j9hJv1rKqMazm9wbv9M316LeXHOub63zB76cvmel6XhFKRaTmlc+5Ryka5AvaxbJ/TfD5VNTqWun3JfzWaWdxasqsMV1XSpGQnMwma8sFa8Lxk4plvUpcTcuJjWTN2LwOjHLScy7jgKxAAARAAARAoDgLQcsI4VTduU5Gw+0zm+OdVyho+2rj/kXmhJmq5sUivUKBXKQv2UpuS9StzIdpV+dZyp+YGqFIdvz9saqfHq/jDovkrmZbTQAW3wg7RbkxfBTqp7hqNBI65dfl1SxO7yqsI8XKTe78FZj40tbZphZkEAzN2/0yhnOLScv5rUUNCJImU8yqFnfuk4YaR0sO2T7d9ArBPymnqzpRFlKFekv+rb6FeUdc9EAjIfq7NRmmCzfi92THpOYGBsfBscFB2eaAlqaMv66PlgLuhZpn75OK8vhteWpFyxg0FH0vTg8UyQPgVBEAABEAABAqfALQc/1tez5wGbeLBdSAFLfes8ZQgJPSrajc0+5X2szXF65IWmG8tF3pKjXKSdioeb+Xya3pC0ni5/cndp/W2zlo7ePkhsby9eVgtTYjiqW7aIfp5ZOFj4XLBLidxT/24+QW5imRGkfL0eJVi0nIpG+UOZ0+CEynsmm04SX4yYVjYYn/slHg82h0pjb22nco/P05Km2mzltY7b6T1j1yrs34l1FLusMmecq5z7A7ZvCF2Z6JLakJUKup6by5v6IpxdaLOoSin6ef2ec72JMjYKAe7nPDAsT638RUIgAAIgAAIFAcBaDk+TjM/ECWzm6h1W4RZ/+pzLbczbw/f4j6Qsm957fm3y51lu4o7tYSLyeRaTmLZs0E7vUwi5VxOZnxCG9cEGlzLSa9lzKXfCuVYByvfX2We+8TYV0DdVmMzLTaS5mYrneH1g94r/NKd5BawDE1q7uY7fdc1dVuS0qPm+ppeY3TUb+bjPuhKhb91OByNa9eq8Wh4oE66TdyJhq7Q0prh8rqtxqOzgxdyuydezWgkB3uFl/ctEaNcZLjCveOSb2GXS2fmSADichAAARAAARA4ZALQcmwAmKiY3A6zD1M5YLpCannjxb5aPe2+RudSKi/xcqydzt6eLBwuuZZzcMI0LXdYjczc53ZgsltyLSe1vPGSTVeZak9l7HJ+TqZa7mT/IomUiwxWpt0qtr+c+wTL4tvOMFU1GQo250C1tet1Lg2joXdLl6w2MbpN3Mat5pTHvT0cT7A9EqKz03+kKUwia/GNuP6jR/qx1mpib7jxYLZSMO0VnuIcaAiuGxo7Nt2c4iXiadByIg0cgwAIgAAIgEDxEYCWY2P20RZx25NKMnaa/cBdVxSkltN3bJMsoFPXcm/bjf3lJIXwhTUnQ+P0oOXs80f7JA2jHMfLi8q/luN1uY644vFmEiznXGbLtOHfuDJQbu14z5yuypLGFoqFU1Oe2caoJjQVZ2wFQVVcYn0p2Ntg+GdWtd9cXuhP3+qVOjT9zPS1XHZGOfhYpjlA1hmIy0EABEAABEDg8AlAy7ExgJZTPGloObJXuLhQth1Dy7HZ5XpwcmDZMBapmRjlbNhd68r3epSmo1wLNeSgYc23jIi45cEKa2n0q8iQ7SuXPl64On1tIBDobNQD6ip8isfrq/ikJ3hnjdjrdENc8znuLO0fJQlpYnOdeZdzLi2XfNV042E2RjlouUO9UyQDivaAAAiAAAiAQNoEoOUYMm5Ag4/lXlIfS22vcIbO6YBpuVQcMs2FHCUfy8YpmoEjaaRccuZmjAd+Pk1HGc/I5c/a+PYvdI/HR/PtVgdLhVrY0gyWE4AolU1iRJxoiDPpRoX5Maq5EahCG0wVpfl5+eBd4u+aSaScgRo+ltYpl82I4FoQAAEQAAEQOHgC0HL8b3n2uU9ksVtcIh52vFxOc5+kpOVY7hPnCD2n9evR0XKVw5GSMcp5FefwNn6jpfqYO3c1qpORJYPJJFiO1HuipnnkVmSdxsUl1hZDPfL0J2xyVvYvEg/MxGJfVartZ5fn40Bpmc7WKAe7XPpzMh9DiTJBAARAAARAIAsC0HL8zznfk2B/4LZ5QzPX1RuzPkkD7Q5Oyzllp2SN//wJDVfLfk+ClLScknxPAqe5e2S0XPNM6RjlPF4a3uaemtJp0E2fV1y6QzYcHz3Hb1I6md2D5WoaW2sUU2najnzhO9EYD4pLxO7eGrzYUNfaI+w7Nz69QLOhLETWSDYUcyiduhZstLfnoD+pYNvxZW6Ug5Y76FGjsxf1ggAIgAAIgEDOCEDLCSjFvcJ/bO6QbUJd1lB7/xvHvcIPwy6nMHPinlyh8Q6W8XA4SSr/9PYKT03Lefhe4eMbQR6DZF7THKsPtu08NFPNkZYr9P3lSsso58ldsFx5N9n/WmaUUzzuwXLGt2picZDb0KjzpznrCc104pac85GR3zIe32SmvPmuk/y2Mk/mA/k8N0a5TLVc/Y317+l/D26cN2vmQ6CBBoAACIAACIDAESYALWdae3WsjvKMi3tD306drSXpyI/5Pz4big28eT+5Z90w4HDtcsqp+QHa5uDOygd+l1VmefX9XWqa2x/fmjtrnFx2pvLK6tAuTeOpl+YQ4cbUYIpazuv7/EmQNi/06mlbqK+CtvCY/w8fzKz2v9jTm2ShejS0HPFI3FZjU00lsAimeinrYLma4WXDgJaQq6aqMSMfyVpQZj9vntH3jtuOjokGvQ8n1ox8lauROWp80/OgDBh2ufZrxkZt0eAnfj0niunJoI8OCZyLhXuqbPF7Bzl8ftJ9VZWk97Q32+WTjOLloOWO8IrhIOc56gIBEAABEEiFALSceaFTXnn7GdMeTPaYDyyqw5upluNyxVy+SVORr2QWP9ry8toNQw7ZLrRH6JVd6zVrNlPVO8+HqO7KlZZTPOVnI2THcFNdtCL6oYUqh5PV/nIFbZej8WCqejfgosCLZ+GYm2A5JuQcvRndg+Won2f0apUDOqVuIDzVY9nkoG5Sd3YVdquruDgbXZloFTeXq+wMdOd2x3B6Fzs0VfIQVzrDxFM0duNC+pebKoKWyxIgLgcBEAABEACBQyYALWcbgPKKzzfHrEqDyaS3/TOtlksOW8t5lbLethfvqShiTd2ftGs5j1fxT/VL5dybRK2fmd1yk8eSgiqvvP2Di0IOvXneNtRATzbWmkdAy5WYUS4nwXJV3bMxIxPMtkuWEbpx+UKPROpcJM6Zkm0MvIpS13MjYljtEuEOccppWw+o2yrbrU6h5ahqPBJqO1xDnNjN3BnlMvWx/H/Df6Yulo/nL4ptwzEIgAAIgAAIgMABE4CWE9dz/Pj4hQ9uxwZevAtS2RPafR2ITJ0+bnqrbZx/+FrO41XKGqpvb4682guJKlSq5Wwnh3bfDnw7UVnmzfn+cpynx6sc76yPbGpIaQtDu29HtlYbL1tU3BHRcufGo0awVqkY5Ty0Rxkm7vfVBRZIGhhVjYUv8lA36zPRLViuajCiR8TZtjHQVNyKoeJUTZ5N9dRom8vRH6V/WR8OYbc6X+O1SJwIS1XdjAQ/dW4SKyffB0rn3COyp1zWRrkMtdx5Fi735N4V0Ys1331H+SAAAiAAAiAAAjYC0HJ0MWdDw9d5+AoEUiVw+Q41Wdzpc5taZOe0UomU8yg1gxEjNUj6jn+Kv3FknprjVHXz7mCdU5ocHWnfkpGqJPaFKW5NqWwavEvUWnSsht2/VReGw/e4iouGB0wqTh/ZqpGIXqZtt7ozbTdWebqU2ILkWlbRARz4r5GNy7OOlDMmZwY+ltVXviVT/PEcjHJu9/gBzAdUAQIgAAIgAALQcvhjDAI5JJCaljs/sVbMRrm60Jpq5BGhWfsTzH6VVop8XcWtEUOTJpliC/3+pGlFOmYTrvknE3f6KwztfWE8ukGVmBqPhgfoPnKd4Y14/EF0UU+CwvaaSyxYg+j0vxBVraEIr/HBRF2qwj6H80ov6mT/Yi6NchnZ5ZTLd57oWu7Jn4Yrc93BwwKLekEABEAABECgaAlAy2E5AgI5JMC1HLXPff/998t9pgcE3TmtaI1yNFEklUlMWT2cbU9nfc9Dv7bV+L3ZgLs5jjOsag9Tb0xWtXHwaG3xWhsRcl6F7JGgxpctHpXe/kXLhduqunqz1bnxyifjkYSqJpYuOZ+T71eDmoQ2mp1d+kruJCnMUXczMu9axxeP9as2pi/wD/nQ5PBWQlEgAAIgAAIgAALJCUDLJWeEJQsIpEwgFS1X9FOuPUy3XKN2uVh0aXqkKf0EITWjUTWxPj94If3kkEpFld9v+jlhB1tR1y5rlb/nBt2WQN+f4NZYR51lb3HJiPtq/Icn5CTtyVRBZaPlmmf0vCePl/tKIvNqDqmiKBAAARAAARA4FALQcvb1Hz4BgYwJHAktl8tHlc81NC5TuZLLFpZcG7LRcgALAiAAAiAAAiBQUASg5TJeteNCEAABEAABEAABEAABEAABEDg0AtByh4a+oDQ9GgMCIAACIAACIAACIAACIFBcBKDloOVAAARAAARAAARAAARAAARAoPgIQMsV35gV19sCtBYEQAAEQAAEQAAEQAAEQCAfBKDloOVAAARAAARAAARAAARAAARAoPgIQMsV35jlQ9OjTBAAARAAARAAARAAARAAgeIiAC0HLQcCIAACIAACIAACIAACIAACxUcAWq74xqy43hagtSAAAiAAAiAAAiAAAiAAAvkgAC0HLQcCIAACIAACIAACIAACIAACxUcAWq74xiwfmh5lggAIgAAIgAAIgAAIgAAIFBcBaDloORAAARAAARAAARAAARAAARAoPgLQcsU3ZsX1tgCtBQEQAAEQAAEQAAEQAAEQyAcBaDloORAAARDy0DyCAAAgAElEQVQAARAAARAAARAAARAoPgLQcsU3ZvnQ9CgTBEAABEAABEAABEAABECguAhAy0HLgQAIgAAIgAAIgAAIgAAIgEDxEYCWK74xK663BWgtCIAACIAACIAACIAACIBAPghAy0HLgQAIgAAIgAAIgAAIgAAIgEDxEYCWK74xy4emR5kgAAIgAAIgAAIgAAIgAALFRQBaDloOBEAABEAABEAABEAABEAABIqPALRc8Y1Zcb0tQGtBAARAAARAAARAAARAAATyQQBaLlst17E6trc/af/Zmsq25HyMN8oEgZImUL8luxn33rZ1eHE/ggAIgAAIgAAIgECpEYCWy3ZEj4CWOx15y8Xqq9XTMjHA1tBjka5skcrKPwplUoYQHpnrLsrQougOEulUwHiz43CnHIWZjD6CAAiAAAiAAAgcEAFouWxBHzUtt7fb2SNZarM1NLRcxjOKMjxI4SEZyozbXwgXUobQcqU2soUwu9AGEAABEAABECg4AtByuR0SbsIqIR9L3ind4BDaCNqhsTU0tJwdToqfUIbQcrnSIdREdqA+lrRS2OWOqoE9xfsdp4EACIAACIBADghAy+UAorBk4bKndLXc5N6zxlPW1TbVIfvQchnPKMoQWs46uzJFSmUVtJzwjMoUZq4GBeWAAAiAAAiAAAjkjgC0XG5XNiWu5V69NRK9jCw3W7hRHQItl/nNSRlCy2XO0DwtoeVyRRLlgAAIgAAIgAAIFCQBaDnz4o8O0vELH9yODbx4F9wlgTeh3deByNTp4/QEh/fcmWi5sjNnr6x07rwe331PUozs7o2/eN55e6CizL26k6dDq/0v3vIL994H37wd2Y61XOnzuTU1vQuFTq20vNCBvIlVmwlQHeKg5dLqIw9BfFrv+fCDyPNxzbfz/fjOSrXeKd/Q6sCb33RW7wYin/nMLWEDeqx+uOn+y7Fd48z9yb298RdP20KdxxzOZxce1gFlmIaWS6ePH9Zv7dEcNrudl8tt3Syv3XA/wascv/DBjDblhPvi3diLJ1KqwrSZUvyfte28C2nj+G5gOaAPgT6y+v0VevO8behDU3v4HDBofHj29uNROpSh3dcD384lvRkVT2Za7mTl5cVucx9Ht1brW0+aWug4i2il8LF0ROT+WMO3IAACIAACIAACKROAlrOtz8orPt+UbzOgrUTf9s+02i7huE3r1+RLmZOnZx6PUrlI19lC2obd5y09DitI/2edL6j208PYLJc7+jqmf6HYKd/MM72i33qvmMQA1SF2LZd+H/k6/of2yM+mfu3M+zq+GTX3V9LTsoaP7r/VlYMAk14VehH7wM+HTD6an/ZfehkZNn7WLsjPST6+yWoxl0AZpqblMuhj2bVeNtlefWPNR3r5oa6ZNWKjkV5rl8saaomoliCd3NsPvdr8qNY0Jfi02V5te2W6auD2h6eXzSNrcYPkc+BtW0dv8w4TmWI5r9uc7g4ClsoqS+Fm7Kae1k52v3K6rd6Pfuv44kAohFYKLefCGV+BAAiAAAiAAAjkhAC0nLAI8yqe8srbz4J00W9SEfzDp/XO6Pn6NZV4Ob5gFVeoluOf2zpMS2S9wdX1W8zcZDmf/CpROFqzM7nQ1KmyINED23OiQYzqEJuWy6CPbpfsjr2x9Xc3UWsaEdEAZTvZGMdXq2fdbZ6FruUy7WPHKlPCA7dFU1gXl1t2mefxKqGnDreDQHj3ab0gkvm04fcOPfnNrv11SWjjGr8Z+Rx4O7Cz61z1z64bx1FZlaKW808FmNa1t1n/RKJyTXPPy42B0HJWMum92uCTAeWAAAiAAAiAAAg4EYCWM60YhJXu5N7e0LdTZ2vPGCcc8//hg5nYkLbUy7mWezeytdp4+Q8VpwzNVn6stq92+Qkzkky++KrSMn71X43QtWZwJ1bf03CMKJPyY7Ufn72y2Lb1emhZts9bRhfyRbkuUKu/NdbWr1ua+OIsmZZLp498Hb8f2p7THE1r58RF9mhEc9I7NrRJEb1tF3aCFgw+78c2Fj9o/dBwqjzm76v/9kcm1Me/DZiG3kK4sLVcFn0sP8tMnbtP62kOG9/t51QvPW8S9BhHZGi53Z8Hvl2p7fmYevCe9LUONwpUg4Ie49Nm77fATIPiKa+Y+UEwlv7crlnVTn5wn0q1V6tn2SgIc0Bv2Nv+Geo2fKq5NsLHcXJnXnynwBusFZWWlhPU7N7b/tvDp/2GSfykr2eqkxsG5XtyCPXSSqHl2GjiAARAAARAAARAIE8EoOWERVh14za1G+w+a2qyW8O8SlnDRxv3P3IeDL5+Tckud6f7W+cYvCsJKjx+bmvlqklr8OdP6Mr7ab27fcnS1IwutHaqacVQkqLpz1nLpd9Hvo7/rfcK6XjtBrND/tBIutzbTj33AiHK59TcAFG5e7p+oJ9TDj4mJ3Yf17qgOwwtJ0xFa7NNX2Xbx+ZmI+hxb59Ir1PMHrUXCInGOqEZn9/vdw7grFx4SSfkE3Z38GnDDaeCk+d2mHSKD7fwloR/qDk2t9tM03wcHTY81AunsioFuxx1Ht6f3H3aaHYW1Yv6sHGbzEDpnhymAaKTDR+CAAiAAAiAAAiAQH4JQMtxvtxm9VtgxmFFm2yVxtevqWi5JKXJtIpxyZUEtW/83HmlmRrlhJW3U8kZXWjrFBW9QgYURy3n1BLyuayPfB3PI8d4G7j1ppxpb6YquX3J0Vwz3Em8NLlQ5HOAtbaAtVwO+sidCd+2d5xkKU+CW5PONi7X2VUWDhAJLR8yGpvHbV9jLCRPdq3C58C+g3YK0HG0ufWyQUzDLlfdtEPe45hdT4Ves3hCLk2Fb3ml+BAEQAAEQAAEQAAEDooAtBxfx8/8QGwLWazVuOTIgZbjWmXgdjVvp8erlDGDg7EA/S346mXg/mrTzDXmFGo6ny00M7pQ0qkrj3UxyTOgZKrlZH3k6/jnTdQJkHsVCq5r9ko/2mIrcjMxRsDjZVeNLHwspyScXIAn5KSPvtBTYvV9s0tcVZPGELphYZr8Xedl8vDi04br6j+wqDwmv+WekHwO7AdmZBZyj7f6/jtywzITn7WF7DbhCtNhQCf7iRblU852JivtZXP9QT2grT1CvSAAAiAAAiAAAiAgEICWYys2vvR0XBoK4BzWWLyQ1LVc7UBjZFPc/4C6q1GHzz2J5YGvxWngHLtKkuFdaG0GF8o6Ra1bNAMKE0jCGl3AlVYf+TpecLpjuTfctBw3+zAaLgfypgqs2NwopINc9bG8mgWqaVNImmJHGEEdy7HWay3f/jDy6h31/uVTlHFm/q6yacOFtACfaSRBcfE5IHxoGRr28kWYEuaRkpVsKcT4lVcn6RHrGj1wbpK0cHwIAiAAAiAAAiAAAnkiAC3HFn/M3DGZugyzjYp0/cqqsB18+MG3r6m3pNsiUlj48uW1r2ex/8Wew+XOgU8eb7oXSjtlyYDirOXS7yNfWEPL8eGmkydXWs6rlF3tpmkbucejbUqTestam7alGwNY5+3BaTmZvKeUDG7Qcvb5g09AAARAAARAAARKiAC0HFv8HbiWE7dmti6IqQWAfC7VcqTlxz88fXmycTk2YNF1QjAb66PpIOULpVpOoRlQjISQDlouoz5CyzkJKu3znGk5IWGJlvBD3E7ANE+0Snm6FMvMtP8KLWejV0J/MNxmJroJAiAAAiAAAiBw4ASg5djCiyuWg/GxpFpIWw3vPu+cGT5N9z9gTXIQSM6z5FSXYDzhkUusQMcD1ws5GZPFkmZA0RNCypuaWR9zoOVK2AuOabns+si333hPTLs8qs02wUh4pPZmIfTqccuVvgqSr5+dyVq1f3BaLh8+lo7umqynOAABEAABEAABEACBgiEALcflDVsaHkjukwqWxn33ce1x6YRg+SQk8XK82ZY35Wwv7z2+qnY8WbzW+UIHLedV6BJ/YKZaquUy7GPmWs7LjKtOCTNSQiFiKbzjHPSxjE2tvf7PW1m2faeNsPmGEC9WTks3cuC5KPmsk04b2TyReULyOXDAuU/YjhfSWxIfggAIgAAIgAAIgEAhEYCW44t7vifBvmNe8mQre75+dbFy6IXwM03GLmFyCEYtNx9La5MkFhLeR+vJQnWC8x4zrRgXOjeV5oV/sdJCE0iKTXW+kNYr7SNfx6cbL+dNIV8/rdoNRUGfk3Ufqz/aIpFvoe2wtglBE9t6Xp4BRSbAzIioqp8U3iBIR19WVBItl4s9CZLaqFPYk6BoJ0xqt795QNFZEAABEAABEACBoiAALScsdKjToOb0+GOzbXti7cyyhtr737DdkIVr6UqIGff2njXSfPqS0zxevtJ987Dabuso62XZ2yfteSw/fzgUuVphv0pbl5ONvCf39vs/p61iczGjC3lTbbKzcvm1HjH1eoRuPy3Xcmn1MQstp/B9tH8bWe6Vklc85cc65vq3VuimZzZKHq9SwPvLZdlHIZHp8yY/6Tvf8mE3Yd9CnQmwSekbCr5bneaEyV4ESKcNK0qYJ0m0XBZ7hTPz474R1ekwHzQIwl7hL1uk9752+585O/M4sNzlUk7mX/Utf8/+u9OXeTnsZscBCIAACIAACIBAyROAljOtmXgQ0f7k3t7Qt1Nsu7Zj/o/PhmIDb95P7gnGIvv8ODU/QDcJCO6sfGANKxJkA9+2ez+4E6vv+fCYUdqphrP/P3vvwhTHce/9v5Kt/Y8M0gqtyUpBepAhQkSYABKIywaEgkAEAUIIY1Zgbjb7yGtYo41ZvEajlZ7k6LEeX44SXxQncjl2fMqpU06dl/Wvmb5Mz0zPlYt20Nelcg270z3dn+6Z7e/8Lj1RuKIlGHw+ZqQZNC8faQa/v119f+10VwPdK9woSDKmyMRkqILSRTnlZmgnWZqWcH3cjZaLxQ1Z8vzHsSfbTX2/SZwgG5RVvXK65/RKof/z7zX96R4ZVclabjd9NExwPw6JmsTwuvxx7KNblh3DDV/Z5z+OfrT4y6ZaMvqvpH7zyzfvj2gT3pir+6Dlfrz5/Fnv7Z5q4op8ovl09hNjU4Qnb9fYb0P2ibEH3fNnlyea6Z3CvjXd+4Jd+ubz51ffX/xlC7uzjtQmuq5feO9jvadBHJ7lFxIeAuIJ0HIiDRyDAAiAAAiAAAj4IQAtZ17PVdW8+dhYJjJVZk7W56rlYs6ZG63iwXCGNNdPRdHYR7eaZI6LWoN5NnZ5C7Ua5LFPoQq6ablYFbe0kF4I9hbvpIvyPu5OyymxM68xH0IpWPqhdTjMK+zK1nIh+ygae+07g18r8Zlv9TE+cbOXvVaQIh3KzrZ9TuftXmu5r/r/9Ex6Uf3Dv7S2mwfO8tQTtKulEt5O4wlgNjBazud/mme469UtjXH/E1rOnQ++BQEQAAEQAAEQsBOAljNWcpROVeL32+QFPF+9CQdf9d5usRUxr+eOXG59olt+LELLLh5SY5e/oCtg4RLaJ2N/evsXR6QbK+vXOtJwOvvxqKV+48/vR94fs5hWaJtDFXTVckYGFNIF60o3RB93q+XiSsxjU7uJz+83thx3G8dK13Ih+lj1i+xXbJo96+gjtkpx6hpxdJKtw9vf1m3Fkuk6ujVWLRi1uEaSThuu/IV54u5j+VVru8MN9fxpa5frIOp3dPXEA65RWfe1XvB2mqZB6ncd0puX3lzfDW1lXpVnKhJJhjk+Pvi/uYvl+ugpU6vsD258AgIgAAIgAAIgAAKxuAItJ18zHT3/yzcL/U/+xr0cJ549TWdv+V3GHWk4+eb21c/NG3nbtZwegGc+87uxJ49aJzqIv6Vs4SssE3kj6ULz+7Evvrr60cZr7iolFlcCFpQuygVuLAOK3gxhjc6aaqXh1cc90HL6pU/3N733R2EUvh/74mn/e2unPflUeLyc+OTy3cfq3xuSZmzrujB8bJhicSU1m+b2N7vh7mjHa9lHQ8++Y4ro+YjmwtqgV2UYmblGkk4b2ZT21HJ6nOqKcemJZ0/73wugqV5pudX60VN+L5P283baUFQl+hY7yp+NCD0dffJxx8p1v7e/OEB+j5W+5QdUy93PXPRbShg7FAEBEAABEAABEHgJCUDL2VZyWB6BAAi8aAKGnt/dNnqReaa337lPpNyD9Wswyr3o6ReZaQNQIAACIAACLz0BaDloORAAgYoj8LJpubOTm0TKbd2+ACEBAiAAAiAAAiAAAj4JQMtV3CrW58jhNBA4xAReMi138tp7upR7sPZb7whAPLJAAARAAARAAARAgBKAlsNUAAEQqDgCL5eWO/67d3UptznZeIj1OboGAiAAAiAAAiCw5wSg5SpuFbvnY4wKQSByBF4uLffS+/pHbn6iwSAAAiAAAiBQIQSg5aDlQAAEKo4AtFyF/EKgGSAAAiAAAiAAApVMAFqu4laxlTxd0DYQOBgC0HIHwxlXAQEQAAEQAAEQiDQBaDloORAAARAAARAAARAAARAAARCIHgFoueiNWaRfHqDxIAACIAACIAACIAACIAACe0IAWg5aDgRAAARAAARAAARAAARAAASiRwBaLnpjticiHpWAAAiAAAiAAAiAAAiAAAhEmgC0HLQcCIAACIAACIAACIAACIAACESPALRc9MYs0i8P0HgQAAEQAAEQAAEQAAEQAIE9IQAtBy0HAiAAAiAAAiAAAiAAAiAAAtEjAC0XvTHbExGPSkAABEAABEAABEAABEAABCJNAFoOWg4EQAAEQAAEQAAEQAAEQAAEokcAWi56YxbplwdoPAiAAAiAAAiAAAiAAAiAwJ4QgJaDlgMBEAABEAABEAABEAABEACB6BGAlovemO2JiEclIAACIAACIAACIAACIAACkSYALQctBwIgAAIgAAIgAAIgAAIgAALRIwAtF70xi/TLAzQeBEAABEAABEAABEAABEBgTwhAy0HLgQAIgAAIgAAIgAAIgAAIgED0CEDLRW/M9kTEoxIQAAEQAAEQAAEQAAEQAIFIE4CWg5YDARAAARAAARAAARAAARAAgegRgJaL3phF+uUBGg8CIAACIAACIAACIAACILAnBKDloOVAAARAAARAAARAAARAAARAIHoEKljLvTa5+VD/78H9D4tb629Ndr52fE/0KyoBARAAARAAARAAARAAARAAgagTiIKWI4pO///meGPUiaP9IAACIAACIAACIAACIAACILB7AhHTcg8frP32ePSsn7sfJ9QAAiAAAiAAAiAAAiAAAiAAAiKBCtZycarZlJr65tG1+8w6904ftBwIgAAIgAAIgAAIgAAIgAAIvOwEIqDldOl5enSDirnNSbhZvuyzVnwbgWMQAAEQAAEQAAEQAAEQeDkJREXLKT0r0HKQcCAAAiAAAiAAAiAAAiAAAiBACURPyz1c6Xs5ZTd6DQIgAAIgAAIgAAIgAAIgAAKcALQcZD0IgAAIgAAIgAAIgAAIgAAIRI8AtFz0xowLcRyAAAiAAAiAAAiAAAiAAAi8tASg5aDlQAAEQAAEQAAEQAAEQAAEQCB6BCKj5c7e3KLJTxAvx3ZreGnfQKDjIAACIAACIAACIAACIAACkdFyr46sUy13f7FdiZ5oxlQDARAAARAAARAAARAAARAAgT0kEBktFzs1sv6Aqbl3pzvPJRWYp0AABEAABEAABEAABEAABEDgZSUQHS0XV04Orn3I5BxVdQ8fYuvwPVT2qAoEQAAEQAAEQAAEQAAEQCAqBKKk5TSmtRen/vfWfa7koOVe1pcQUbnB0E4QAAEQAAEQAAEQAAEQ2CcCUdJyiUt3tmCXg3gDARAAARAAARAAARAAARAAgbgSHS13fOAdLuTydzrPnaxGBhTMYBAAARAAARAAARAAARAAgZeVQGS0XPXguyzzyUrPceSxBAEQAAEQAAEQAAEQAAEQAIGXmkBktNzZyU2q5d7u2yd/U1QLAiAAAiAAAiAAAiAAAiAAAlEhEBkt17PCEp4E2yu8cfweK/hwc/y1l1q4R2VSop0gAAIgAAIgAAIgAAIgAAKeBKDloO5AAARAAARAAARAAARAAARAIHoEoOWiN2aeAh0ngAAIgAAIgAAIgAAIgAAIHHoCh17LXZgpMh/L+4vtSH35sib5OfR3MjoIAiAAAiAAAiAAAiDwshGInpa7n7kYYJBe4ylTHq6PnA5QEJoHBEAABEAABEAABEAABEAABCqYQPS03OZko39J9urIOrXKfXQHRjn/3HAmCIAACIAACIAACIAACIBAhROIipYz0lEG0nI8++W7g8kKHwk0DwRAAARAAARAAARAAARAAAT8E4iAllNq6ttvrt9nUW8Lnf6zlVycI8W2pn9VwbZR/6OFM0EABEAABEAABEAABEAABECAEKhgLSeEujEd9/Dhg5Ue//lLfj37oVby/nLPcYw3CIAACIAACIAACIAACIAACBwmAtHScvffGUD+Ev9mSZwJAiAAAiAAAiAAAiAAAiBwaAlEQcs9uP9hcfPdNyc766sPk4xGX0AABEAABEAABEAABEAABEAgNIEK1nKIcAMBEAABEAABEAABEAABEAABEHAgAC13aE2uofU9CoIACIAACIAACIAACIAACFQ+AWg5aDkQAAEQAAEQAAEQAAEQAAEQiB4BaLnojVnlvyFAC0EABEAABEAABEAABEAABPabALQctBwIgAAIgAAIgAAIgAAIgAAIRI8AtFz0xmy/9T3qBwEQAAEQAAEQAAEQAAEQqHwC0HLQciAAAiAAAiAAAiAAAiAAAiAQPQLQctEbs8p/Q4AWggAIgAAIgAAIgAAIgAAI7DcBaDloORAAARAAARAAARAAARAAARCIHgFoueiN2X7re9QPAiAAAiAAAiAAAiAAAiBQ+QSg5aDlQAAEQAAEQAAEQAAEQAAEQCB6BKDlojdmlf+GAC0EARAAARAAARAAARAAARDYbwLQctByIAACIAACIAACIAACIAACIBA9AtBy0Ruz/db3qB8EQAAEQAAEQAAEQAAEQKDyCUDLQcuBAAiAAAiAAAiAAAiAAAiAQPQIQMtFb8wq/w0BWggCIAACIAACIAACIAACILDfBKDloOVAAASiQUCptrVTsX0SxycgECkCSl1Luj+d7u9uTrn/3qfatNPS7fXKnk/yY6lkKpVMJfe+5j1vKioEARAAARAwE4CWi9Svvnnw3H/48S0IHCoCzTOFslraXB04p92zSn3/7HpRXeuvqoybov5mQS2rpUzHPjCvrrvcVQ/VWhkDvdfjm+xeLqllVS0tdde4/RglepZKZVUtlxZ7kp5tSLw+PjvS4HkaP6Eto7fh3lR9CMinhrOlQm52sNHa/vqxTVXr2kIXv1Cstqmxzq2bxpm8Jcd7F0ulQm5upKXO8m2qZyazMJ9ZGG05FrBOXjkOQAAEQCD6BKDl8BsAAoeDQF2z/nZfe3O/238XUpX2aFMuTH+grwtzw3rbEuk1/c9yfuxsJQxfaiintWelz9wYJaGbO4jRw9f/qyyaraZ1LFvcN5Vobm2lDfpL0J76ibymdtT8WKPrWDSO51VtguUnvBVa6soqVX19HoY+Jo0aJu9plYd6E5EcyOp34s6qVYseH8xq4lPNXknQC9UNrpRUVS3MdvpsmMak+bb2lkQtlzKdrB46MehNp27NNL8EU4UNlus8AQcQAIGXkkAla7nXPvrx5nPt30j2Ep5fL5JA+40vvtn5wf5v+7JHq0IXxO9WYAKNUwV95aSve/TVVeg/rWujBF2uha5QLJgbTgZ/1NL1nJod4O/+z9P+lu7shynMY2JbR0fpXdH6mBtKmQt2zgccjuzAcXMNNb0rO2Q0LQaZBmr0ENl6HOfHzpgrDz4Q1o7Hky23csWtYnFjvtufvaXqSpYy8bACGbPOj4CxNEyp7xpbzhdL5hthtddymu3P6rrL44sbWjlx4KwSfQ+4aQNRf0MXcmW1tLGk25fmbf+fupRSYjW9i6QjO4UVzQwl/zfZSe11zILn14gXSw3n9JkToptVnfO6blSzV2zWwp4lnaEx61IDRGRqbPO3WhN+MDZO5fW2lRa6rBZ4etMFlKDVHdObxeJWsfBGBTw3/BDAOSAAAiDgRQBabs8XN4ewwtCSLHRB2xrrhVNtmiR2oXJu5FSgxoQuGOgqSnIkJ64+d3Nsez3flTEvbXdTuXVd3jmnKQHrv5xopmDrRYuYqRtZ1xfc6mraon+8nnp7P7va57QVrU2c1N/QdY61d/b+sk/uDtfZGp/g4kd0w2NGjwBjYZXowSaYDFqyLaPbTEqrA/6EXCyuUHc+i+udrdex+IXpLSqoFnuCNbV+JEsEhgVO4aarUUtpGLqruxpaJXFh0t1oJmm8d4O5kLM00vSnutR9rGmSeCpaW2VSm2q5NNtuXJSa+/xY/OJKrG9Vv6jtTYRnv5SOWSIyqbXcaIBuT9PsyRajWaJnvsgeJoVMh4ecU9gLC3Hm81aRm060+/GvyEF1tWzSKin6qCxMnjc1WHoyPgQBEACByicALYenuTeB0JIsdMFKu3OqBshyRw1qBQpdMCiB7lV9beds9fIOiWGv5w2fKLIkOt5wyctpc2iB+EEVF8c8PDybzUq4+ba+4LOsU9X5S3xZxowSpeVey8ovdV2Tr4Xl0RZurOOlDvZgP4PllFi8jjhwal5wHAI1eqwOaCkr3P81jOj+n6awpT3gw4VcdiiA1GF+cWU1f6PebZIbYjWgG60eV2lSRGx2ududmC+fRSOpanm12+L4ult6DJ1amO2pT6bqW25kS+XCdLttHM92zRIhV1pKn0klU3WNA3P5nVJ2pME+6GbvXBaGp8m53JCr0vZ+Mjj0l1nLc0Pmm1ofVirDbC+GFEHOFWfb5XKLTAymSO3eldpvFvvWQYLWasbM/ESTJJuL0pEhtu6KibZ1uxEc4KMICIAACHAC0HLeSobDwoFOoPOddepv6eljaSYWuuCLHiMerBXUKBe6YODf745ZfXVitXoZ9TgurYwxovLAYW1kVMyz5C8AACAASURBVCUZDroc3Jlrcz3NuBY9jbYq9wZVgCPLurTLDjJ/qmT3qm4q2clND9hU4tD45NigPTjQIhdtF5W0f3fnUH1i1cDBULi2inma8XU51cDO0t3okdK7qFtC9rZ5fgO9rBC4jddkRzJay89nVhdVFPb8W8cDHkipltYGG2stEVbOkI/3r1B7UWnlalNy/3Jp1LSOEeufmh87pysZbn3aHDdluKntmiW+AIJVKgB2Ui0PTlMuDMmdM1fzRNhs5Ry8Nx0yizDNnBuxpiTRRpO9GJLqZ80LVC1m3JO4sDlvV4P6bGEvBaTWZhKYp2n4YqZdMgfYK6QwzzrJXHWcjc7zDUVAAARAYO8IQMvhaRuUQGhJFrpg0Bbu8fncyc1hVeF4udAFAy8XaLCc8/rYdWlFLkf1mHRt5PHEYe5whgZzZGLqGrW9cMMLDZHiFhv26t1uKnH55ADWZ0Yol9T+o5bVTKc/Ah5gjUra7pSK2XFmgaQauHj7gomntLbmmaK2qDXClryLSOsRPmQRWRavV6O1jpcwojptkYFC/Y7FPc8xrHnBpoERxedHHns2w+GEZNsUSWGifjB3qVbARXVLafGyITyUc3q+k+15U04RLvzW+i1magm0s71pIhfjSoxrY2aldJq61s+lD4TjXRniXZkdlDaD8XQchWStLb5OhMa9Ny36lp/D3lDYn8mUm9bN0soVmc4UaOztCw7JEPAG4wAEQAAE9o0AtJzwg7pvlA/XIz60JAtd8IWOEbetqVJXIue2hS4YfB7SYDl1ydEZzNvm5sNw59QwJhRzIwHS02k3BWmVsVgkRpvidLNOla8+1ZI1oI5YEuyfbxWLudEwedWduib/nFpBrateY5W8D0JFdPOjisVZugvNpnrYgOw8Y4VSbo8slo7FcPj0WdAIzZLEFrpd0X/9dJ6rAa15SvcyezsgJtD3f11/ZxINXFjoTSlKqsVkZ57dKGZv2ozMt+dnR0ynaVboW9lCdmog3X+p0RB+nvQSnVNSs9tijjg5F3Nyq918ZqjJVjlz4BQMhpZzKM/10VAZcVn9Luk92cPBIsYSF+cKxL6qFjMuaTxZ3pS9djze9c3lbyJZaONPEACBl5xAZLXcmdNbz0iWy5tflE5LfzCO1P5iYiP95G9jejLMm89/nHj21dX3F0+errI9cNMdX9CcmaPvD9q+ZY/Xa/cnaFVPLzSxD1/EBJreZlkliZdj6ldvbWT/+mVJd33c+uLxzNwF+67KWoOtBc2NN7TWJzc6zV+JTIzTXgYfSxYoHzBbWpxH2Acu6ExeHAXTsWewHPUpclnQM4OGZW3kpzHsHTzTYL5vDdqqZZZdkFiQiE8dC5NTy6rd+kRNiLyg7yv66U7Ac2huG7t9IGA9pgH1KEsVix/FyEyIeyZRWA760vwl55QzpjSSaqmwNt6im6GYb5uq2lNKnh0nGQvNCtkr74i8FBNmhrpWLQlUfJt8l7r3dHYlT5H3HXQbAHNnJc12OcHSIy2EbGR+Oki6fyMVjS1tj8sMZI/E0mKPJibbZlnmHiHHD00EKn3bIpymvaPJkl1GjPlvDI3zDc7OEe1+1Y3XWc4bNT/9uqvdL05fXamb4/v/6sfomgtVfAUCIAACoQlEU8ud+eX7f3EXcq90rV15RuUZPZMpupvPn6ffbLE8XmtWntLTnt0/fUT6413F90i4+eRt5xei51s/yw6Sfw97a0IPjGtBUZIdbb/25Esm7YxtA9bX28UX+bRHYkELASUWN0QatBzlz119AhvlWIa3oAWlc8/jQ2omKq6O24PH9E9GF0ngzfqMwwn96dskDaa4NrLPEPknuwyW4+qxjqRozw5WcUcyfS1u81ekLp2BzYAeGOW9c70TlSq6g7NtZ7l9uBZvCVVEfrwBmSsah8wrCXfA+kvX8bJKki23aKp9kw7RbDgsxkma+ISb1AQB5m1ek5YSa6DH1hcNhiFOcrKgqVxef+xmiKkpOzftlVVIcsMOzeu7j1hu1WTLbYLd2bFQ0uDgO8uxne5UGhzL/KvdMTp/a3lTw9x3tSFwvsHZROKjo9QNrLIsStu+sqrS91/BojHDPCJk9wjqAQEQAIG9JBBBLScIuWcPXpNa5No3hgzlJlV0z9MT5q2WTmT6WZH+2ycliD1PoI/sg9Vy6vj6J3Yhp3/y9CYzdxg/4dBykpF1+a1lb6AD29ZCF3RpjONXRgySsAZ1XjyZVtiW0/jayJgznsTYYm7PguUudC+LqeFt1ie6DuZRdp4t3LcTuButeWe5qlpbQkKPVJP0/ES1ErNv0rBuMR28uGA53l9ZDnp9fia7F9iS2jK1tK2o50gWFksCfTKxqZK3lPLSq8w+4znzLcqHmWUsl7P/6dUAx7vS/Q4i2wCEq5zIV5tBSUChJbr01TDmHS3NUCKpQbCWU8tqdX2bTY5OkuQuW0sj6f5psnGIfizRpen+FjHHJheK2kA43+DsDQU1htf1ZuiGMaq6McViSj3ueibm99juKoHmPhPwLQiAAAjsmkDUtNzxk1lmkXMScidu9nKL3LOPOyZ6Eid0p8ojtTV9i73Ml/Lm88eNJ0R8JxvLTPX9ad6eKDmx8JmX4Y7UdrBa7pvSD99sPXmnreWEZoU7cbZt/dEW29R7e2dI7KB2DC3n8QNv+iXmqauD2tZCF7SOl6/WsmA5W1AZ92Ui0WVltcQ/sR5Q7RTGUZAtB51fojv0gixJDfVIguVK+U19ewM1v7iqH9jWu9SlM3DOTIdmhGJO5glX7Kad5dhC000z2zWD9olmO6JGTvEEi6fZiwuWY7l8HOP0En3GZtClu1OXziX1jPDVqfYZmvOD9sumz82jQG0mMvda0x1qLhWL9y7S+i3KzWvouXHPNtlcL+dVrbV5xvksz5BT6kj5buAk4G1lU7tbpbeqIOfU/A0fci7QznJma7nz/S56HTPNbJnDUjKiUCyrzO5nQDPGwgiWS9VdXeUb1uVvtSYl3iiyGuI8QhJaTs7HoC0dLHwIAiBQSQQipeVEIfdIbpGLxU++x+LoPt84edTG+sjlts+pZru6QlIssHPcwuGaLzyhpSa2xlyffQes5Xa+eKfhqPjYPdKxw1wuv3inwdJUaDkLELc/yfZlTssmkbnlOHRBSz0+//QMlqMLR5eQGKbHuCde84jbatKURIHmTlCLOV9FZtN0VzGHYLncylpJLZcWe+oGsrqxxZYqnaxl1e3coi1bw8A5bUBDm8Xse3ZZP6kR3vLUDGbZrselTEf9yNIsybFO80Z6WopsJ2juXon6Tp7rYianKxM+KHQ+UOHhIYf0k/c2WI7teu+U0II7JIv74LGnK78pNIlrCHjpDcgsveWAnqvcQB1Q55PtAUPc6T7vUNtp+xIsp1+FZQ0pq2ppqftVKV7jQ+8nAxu+mNIwtqHPWDrnneMYz0/pLqClzEVjZwLrHObV8gMuFNk9pTrLPyZZS4V7zAis5ifbgiVegl3ONi2NiYGvQAAEokUgOlqu6heGRc5RyCmxQZbF5FlHnz3HifbLUf3mx9TCZg17EzKgvJc2Pde6CqPUA/NZRxf/+ZEeHLCWW5kzWRe1Jo3+Ydtp/zdoOdOwut2roW1roQtKp5P3hzRYrnDT6TU8fTUufZFPCVB5wK0ZnnkabTpEtCO5HrOEDbRVfJEnBMt1DI00xMJYt/T2syQuwc1i3p0SIJMUIKWSbvMsfkBsia5bZlHBbA3ccpyEfC+Bs6ZJ+8KC5S7Ol/SRXRmQRwsbaq0012Y3j4hJSuyJT8R5zt4sqGVnwSCez45ZDh5VDebuyxRvWeWz0XFQ2LV2dQLtoB81bhp67aKeZZW6gbWSuj3fLe55IG+2/2A5JhHV/PRsVruznNVy4y39XiAn0AeLs7ckaZgh5PLTV2ZIChxnux8LlmPPmdJdvleHDZe840osXj9GNmG3uaruamQdL+e/YTgTBEAABAITiIiWu+xPyMWVlrs0Uu6LD046PZTbN0aIMHtWOm0+x7DpfVEQi598/29U/n2+8aq5SGDie1HckGSP+u0vI40UJrZvjYKyFJRGQeQ+Ya9+1YKfLbyEn/DQBUNODLrid3R7Y4s/NxOH9fX8meGs1QlTkqpO3yeABbb5SVin1bk6kNJvGaq4+CKPrqeNvc5pv2yp0lfzuqIo5ZdtZsDbvVr0LPO/2gctZ0Am3oaF2bkVbUGZG2pkNjrnLO0x4s/mO9cCdZ21LpqZ05of4NtkdPZmZ7m2O3pt6mpanr6SWe3Kau66bFMvQcvx/QPlc56PoG9WpB46jQN7ZvI3F75ltnC/y7vgfsI+BMuZmqEkqmge49TAqtOdWyxusZt3x+WcwnS70jJLztS2E7y0oL/ycFLj7E1W4Za2kwEdEXczrNIwROLrNGt8kgly/mSw/sIq9aM5brtTC5l0ve7Haz3NBEQyHGzQg8n+oFfB+SAAAiBwEAQioeUmnj2nUkrTYJ81u+wHMPFIOJPFv7GkJravHr1meeI3rV2lJ393+Roz6x0Zu8wC8KxumZbiB/VnaEkWuqA4Fw3JJxOE4pmW49AFLfXs/5/HexfpDmbZgZoglwtdULLa8HVdKh0P2c5ycYX2a3O8zkzGM1iuqrFLmmJhLz5sTRFzE8nQUJq/1DOnCUvdeZWHiuVGdCdSm2GKrmvFtaPtHOEBwoxFFk+zEFZH95W0Ga/QAPP0Y2t0da2/SlqESzUnscdPKBuSWHo5IwlKsOg1w1zjN5MH6YhhBlx13J5R2uWwH3LNGfp1gyX3oxSj9mEY47bFOq0ZD3VTcGlR267NI4UsiyDNjZxSYjzvv2UOW7ixt1FkX2+qFa2vMPTZeKwhvaAb/XSLnGaO87Y9mqcxvzQbdMHS7nAmL4IDEAABEKhUApHQclYN9uRtx1z/u9RyMSEDSjlDYmOqbz9mDfi4yebQ+EJ+AEJLstAFxW6GlmShC4pXP4jj0La10AUdV2MeDw62fnVaYfNX4z6C5YKtgPWGsZfogQ0aDsFyfK9zqmTsa1a6DnZfHXpA290UUhomNe+s0kpfksRZMefV5MAa355Y90nbys1eaWDKh/qzUZNUbdPAbK6ounjZUbuB1dOMOq2tDngnxmwYyenr8j3ZWY7Zypy8ENlMcPZv5MFs5pyf9pkfNvEJyZ3jmv9QOjE656mmOiB3OzITSvlVm2HZFv9pCkzVvl0t6O+YmKOy10w+3nDJlmRSe6lxO0fcZdXNuQHpCfzDy00J7cVKlgit2BmyB6CD7ytLc1pa7tWmPdNLTnOGDr22bTffR4GFSlpu8Or6tHa/iDqTO4R7QZAOOr2PVNt+J6Fqk14CH4IACIDAQRGIipabeLJxeoHFuT3/cWjlkvyZu1stFxeUG0l0KVF38kvbFyX79kloSRa6oNjl0JIsdEHx6vt/fLx/hSwa1KBGubAFQ9/tbLVUWBh2sDtFbWc5goLZE2wrLQ+zwL7dcXzW0cCh0nJvIk6FtF0Dsz2yNJ8x2iQ6UlT0Uv/JsvNSkiofq6fZiwqWYy8prO3hwLmtydHQQVMm7n/ik4CemTzxibonotfzXqYzwUXG88lmO6BWWbeyzbcLheXRtlNCkh5Lk3i6SBd/YEsRZkB2t4ozoxybJD6D5eJ1LW3MKZdqRWFnuWMNJhWnFovEY2J31mY2Xd1I8rmNAxAAARCocAKR0HITf1qs0fbvPtNY/o6ZyP7S2s58IEXEXMt9dMv2Q2j5fXL40+JRKfW6FK/4Io5DS7LQBUWYoSVZ6ILi1ff9mMbulwNHyoUuGHoKGcYQlgYgtNeWKau+w61hayd7iS76Dfop6zdYzrbSoutgtlj0c609PYdKGrII1uwJerAciQDkF6rpXdGXm7reY9PVEizHHA7thkcC2SFYTlFq9J3oxHSa/LqWAyVBknBWsYW4bfhY2ywFZX96bqzMjWlOsXBs9azSfclkV9FaaDiROhh/HAoa94LNL9e148yXVbp9ucO1XCv0okpmwsZUo7dl1bZL4ZVV7QZ3sR+eGiaxZMxWbGsMzzJSyg412r716q9bsByf9pkOwoeOeBDRxQZRu8GV+q6xZcOjUlWL2Vtddcd6yRaFjh306oLeNvbgCubEGxjXruaJr46gSSAAAiCgEYiElhvJMitc6laaha7d/HzjF5rAM//juU8+3/iF5SvffxqZTr4oNGa/ourRlijFemnf9e++YGhJNrBxzynFpRKLG9++vLlPeKL5oEa50AXNEzjILGLLUJc0GOQddjR2ljMcNalksverRJ2s7Bvl5W9dCIIu3D2ob1+m5sfIIpi4HVqdV+uGiGejOZcjXdcaopelXnBYl1NpJHqaKamkGLqp1DWeY0Y/cQrV1vnfYss3MZZD31EmsYwsZVXu/sfD7TwlE3PmVAOa16jF0mHjNeeesmW9VxSfcw3B5pKhacO+f3HS/7F4onuZ5Kdxcigw0lHSOcxmjnLqQqMW4eb+z8Uqzmvml2ZTQpzDtP5qhaZmsV5ODJar6lmijqBqMTfbX0eKsOnh4repVDvbJEkDaISeYP3z6Li1nV6gcD4IgAAIHCiBiGm5WLx64tEYy2Uykr1sg+W9J4GtiO05buxA8P0Eu9aoZZeCF/o0D63lDMvY42tanjHTv6Z7T3eo0vOp5Wx5Ms0VWuqPG1cPWNC92r38tvk2fRMcNH1l6IKmIbASc+3aqVGy/5hTjnhfeeSYl6bdUdCzYewluqHBPIuQE+iye32G+oWOLRXLqmqkb2EaNchiN0T7fbZWOK1hbLO0MkD9wczBcnSkmApleo8OqDlYTv+QGbJstkftW2uwnFI/uLKdn+SGFLLZl1qkUUzkKkqqZSJbVNW84+4UrtOJNlV6DtuDW7IuJ+ezDO9l1chEKlTIvO80KW7zmzVdcfeJT6wRhkIzhKFkF2XzX0tGarGvuhcM+S0Nlsve5LsI+j8YX9nWAMrVclyJNc/oG7upuRHmsmhqJJNberpIA4VS100SijjH3NKTnYPlmFOxcGkGViK6mmeKmjwbrLcmRGW6mk6zpsnN/OL1jpQg/Jivr8tg1Y2sq6opVJWNNaPhlZHVer7BitWAT0AABECgoghETsspsZP/6yOe1lKyiZywr8D901qOctm/o+dPZz/u/L3sK+18Y2dw5tLpua0cr+pg95eTZZI0JJNNkh29tUTV2jfvZs3pQE/fWvr2G19aTqhEsrudHLg+CqELKrHXJjcfsv/uTZ7ltPf2ILRtLXTBXbSfunQ6pQ3Uaqavxt38kWhMi8vayHFAqYVBmnHOrV/shb1FqnGbFQuWW7li8THrmP5AW8vmbjRZt/BOpfbEk1D6rBA+TDS/zjfxkwXLscW0Vc/Qda1J9HLRIlmai8FySqrlVl53nWWepTWt02RrLJWnWtHHqHGKbMyllgXV5zYQjiMrdFk/h/s9Omo5he28rKr2ncRJ2k863B4zjUlc1dn6JG02T3xigmztiJ0GT3wSxBXQu1r7hcgnx1pHtBQm4226jCHQ3G7PuEK9bTX7bdOQUNbWBnZbfTDTLPOqZSpIiOGkjWQFyyT5pBSv9iF9d2O/3/n4ZgcTvOPOwXKODy57sByvjR6wVE8ug8XecDlSZeHQpTvUF9RG0pEAzgQBEACByiQQQS0XV45c55sE3HxWOm3xtDxxs5f7YT7/Kp299YvXzrxC6B8982rfbOtHT4llLz1h/angD3FjP3Fil3uy5pg50zquFa3llLPXPueC7emdufajR2Nx5WhN7607f9U+L/mxyykn+p+wSr59NDwgvje10jATDl3wYLQcd38imyO590X8NnRBsZJgx8xpzW1Fwl6Nu9isaMutjoL8RnA5YC/RuQYzj7Vjd5gw4H6SJT3TjKF/qAeUzWBFu8Mkjc/L7dNp9mA5llLCFCZHrm4JliMfMm8xu2hhwXLz6bbxrG6K0YKFJlo158narlld0KpqYfai1ceSG4fVzal62YLecVDcKbHoPtVZy/FsLmpZLSz01x/TZ86xuuar8wUx/aDLKlxrA5tUZbftECW94C0sB9tXgCkcryg+dz7hvqW3cClz0eUuU4i4dVQm7NJkw0O1XMp0SnZyZ93k6SJNV6wa0MPwyqrbwySuyIPl2LRXzZlU6INFMtxsH0KbGZDZ+Z1vcPaWx4UG27DeUdKzqGYP4SqZYww1vgIBEACBSiMQSS0XiyvXStzTcuyjm1b/+PYNumM485Bk5jXTjnMuWk45kekXygbZVq6ytVzs+JzKBBvTY1S/fbm0vrHuS8vFlNE/bDH7HjPlkdpslkDToiF8wQOwy7G0AaqbpcvcHfLrHrrgLhYHbHHmuiLxtrn5MNw5NZIJxWAubXElRlplLPKIRcVYe9Gu2UKzHM0CTi3c188twXJGSomlbjGqTW8DXddaRC/TtKq1p8zFlEugjSm6j1bjcJZEDJayI+esDz3tp0XpmGUhhfkb3IQom7SB4FDhqrpouRjfWdFibtW8Z/OLqyyJhWWPaTpFaRikW+Ye99cNPEmm+2m2XnMzoGP6TVuRoD/hVALZsez+E55483hXhoy7aBljLa8fyZLAM8cpwTSS66NPFizHpz0PIqUXZbY+u/g/P6U7gkoUrBgsJ4fMXn9I/DbpdZlQ/GCqkXXfVBVzoHBRg6bzpZXgQxAAARCoMAJR1XKxqpPvP2MK7Xl64ox1vdI0b2RJEVQZK/K3/uxwwmLQMz3Eq05v8ZyZTy+Y3RGt1zIVrHAtF1dSl8tfmgWYJsPWiwM1Ls6Z1i4facg+lmlCDy0XV0IW/PXsh8zF8v78RRPwPbqjQtvWQhcM3wt/KxLaMJfVLdNjLoY7p0ayl+iGBnM60/I5DZbjy1BihbMFy9mtVbQ79tXhHk0ASzvd/zQHy7FIJOuKltw1kmA5vXKWUMRiSjJcJVVVLWTS9YrewcTFOWrg2p7vdt4iWcgYkRvyzmZhva8des3i5SxKzEzeaKGoUtT82LnUQJaqNYtkYq8kfGg5ixI2X5onPnFTm+Yiek8NM6DE01Vyvk9c4mnGJdyUqkjM9zGXNMwea7doJVtuEwdd1VHI6d2kIWRlNXddGmunSHaWUxqG7uqpViwBeK47y1GzmN1Rk5tknW9wNluc3XQvzhPV6tCLxKUFvcE7q/YXLg4zXxxKHIMACIBAhRKIrJaLK0cut33O7GzPHr0mCY07/urERuefno4++55KuGfPR548aL3d76riyE+4oOWevC3xWnF89Fe8lovFj55uzW7nWHTc1ufbw9dOax5ZAbRcLK4cqR2Ynfn8E7OBzlPLhSt4lofLPVi/tmcrVOGeZFEWrm+mhfP5Oi90QV5D4IMkXRl7ZNr0YXPzNtzJuqw1OJFe09ffkjWZUxHyefLSTW2L5LF2dk9VJ7Xgt1r2JzURlGbbLfXIzAKB0VnqDP2nKVguQV3U7JFIev10hkhEL40xU3ND/FUUN7CU1dLdcWqOi1c3XqemFXVjvFFIBSF7CrHpUda27Tbil3bFiplZXN4LkPrrusaW88RpVlVL+eVRvQssaact8Yl/m5WrIYWFUXkmybRAYO8y1HJ+jA+B5Zx9+ZNJrNL8JWv+D9OcFILlTJ+bxp35l1oQKfX9mXtEJJeyI4aRtqqWhKE2tekbgg9MzGk7kueKVGo6WLSsVvHqprENqsAN72jOikYhFibPmZtdO5jVrc0SJ3bvYDlmry7bvK/JdZWGSRpHupqWUa3qpEove8XqnGziyXuBAxAAARCICIFK1nLmn4GDBSr4WPa/efJFtgQ/M7H4yWvvUavc/cz+GOXukBfMqmSR4Trx+PvsoAVDDyt7OS2kjJO2kK1THW1u3D/KIS0+a2F1gmyExfc0q042Xl0l77/dA2xYDUFuH5YuPJARw2lPszANkMK0fGgLllPq+8euGMtl47pKiqaJl4neuvTU2OUGc9YW3cSnFleuUnNcTKkbWKXr7OJCr6/9Btji3il6ymiepV/OfzLR5bCMdi4Y4lqHvEht61hWH1C5Fdd0s/gIlmN7YOwsdYsChnvwaj6upSLzvPVxW0m8H2OWYLmaDhq0WVbzN5uI3VgcNf6MKm3MjeiKMZ3uH5hYooZlS1P1ycPs/HbTIgdi5EoVqyW5cAcm5nMkstQhk2qMxfVJwlkxe0EABEAg4gSg5fhPhXhQs/KUeWM+bjwR8TEWf2Ujeaz0LT/QtdyDdwdtwUh70CO+9g0aKRe6YNgZxXN/q7lhiSFarNZqc+uY3SoW9X/57Hwmmy+yreccMpjz24H519ldv1SXhRcvHuyArwJ9LDq5Y57E5LUHs0KEaTm2BMuJ3zbPFEqUs0abQXb3cDO1tqb10uvMblDXmyGZTsql7HXJotlUUGgG9/tVHbIaOhV0+pynx9g3X8Rg88SpnZX7uZJItfQLRsv8JB9lYeDM7af2TBfmLOWJ/c2Oh29naVubpYXckmaUW5gZSfcP3KHemKotKwnPSZMbSSnnRmnQpmYFlb2/iCt8tkjuYrWY6WHTW+i4d7BcXGFpS/iNLzkoLvRKbNH8vZV510cz7cM+AwXa6DgIgMAhIwAtJ3mCH+Gb1P04sTUmOeGQTYJK7077nfu6lNuaPr8PTWUb7JaDGuVCFww9oy5Mk3fP5pRxUibWYDnxPb2oyjbGPRIecr0qltJe9psT4u/NQoG6UdmD5aR9fFEfmoPlzKMpS+ZRXB1MhckqycJ7VD/rfnMzSEQlz365+9FhmdwDBqSZW7X7ZkSxhmNdmQ+o2Z9om+Ia95515UO3pnAOD+MeuRLFnujO5BY1nTY3dlXbwq7tnO5aya3rdpLMkq+q2YFXzQ0Tdpajr5Msextaa0u23c4Vtk29VkvFfHYmXS/L2cOD5VwDMmNKXfesrVryXNopFjeWxi4za7apPSyctbQ6UGful+k0fAUCIAACUSUALWcduROXmsrC/nVdeNy/aALNt/W8J/dXekQnohfdqhciJLSQ/F/pyAAAIABJREFUDx+uWbE4DUvLDLEd4VNdk9k8scuR/xdyS9Npi4Of9V7Q+pjqmtRWhMK/26Ppyxf8b0QRAJRjsJysYS9sApiC5ay9Oz9sYjU7nj6fsp7jv+VKw9jy3CXnTCcuNTePTDmsm0PCpAk21D1MqRKyJS69rsyvaGDkTiE3O9h8SipmJCh8BMtVJ851jS3nZmX7EARHob1JKSwMNtrmmzlYLtm9kPVhVJT0yLFJ3sFyQWoz31/U1O/rsRn+Ko5dMzcGp4EACIDAfhCAlmOP70utPJMKz3v55G3f28rhkQ0CB0EgmbSttPbjuYA6QcBKwF/2VGupg7gp2DO8Yq9V19DIs/tUbCMPYcOqG2/qjqMQcodwcCv+rgdzEDhAAtBy7Ilg03Ly3JgHODZYFYEACIBA5RBInOvSU01c8IjVxEMSBCqBQO2Fbj3zSgtcKythONAGEACBfSMALSfTcs+HPlo7fbqKfbVv9CtnlYaWgAAIgAAIgAAIgAAIgAAIRIsAtBwEGwiAAAiAAAiAAAiAAAiAAAhEjwC0XPTGLFpvC9BaEAABEAABEAABEAABEACB/SAALQctBwIgAAIgAAIgAAIgAAIgAALRIwAtF70x2w9NjzpBAARAAARAAARAAARAAASiRQBaDloOBEAABEAABEAABEAABEAABKJHAFouemMWrbcFaC0IgAAIgAAIgAAIgAAIgMB+EICWg5YDARAAARAAARAAARAAARAAgegRgJaL3pjth6ZHnSAAAiAAAiAAAiAAAiAAAtEiAC0HLQcCIAACIAACIAACIAACIAAC0SMALRe9MYvW2wK0FgRAAARAAARAAARAAARAYD8IQMtBy4EACIAACIAACIAACIAACIBA9AhAy0VvzPZD06NOEAABEAABEAABEAABEACBaBGAloOWAwEQAAEQAAEQAAEQAAEQAIHoEYCWi96YRettAVoLAiAAAiAAAiAAAiAAAiCwHwSg5aDlQAAEQAAEQAAEQAAEQAAEQCB6BKDlojdm+6HpUScIgAAIgAAIgAAIgAAIgEC0CEDLQcuBAAhUHoFjqWQqlUwllbi8bUqNfkJtIloP3Gi2tlqplo+C/+5UHav2f/JBnKnstkcH0UiHyY9LgwAIgAAIgAAnAC2HX3QQAIGKI9CWKallVd0cr5MvZ1NDOVU7YaGLP8te8MGp4dxOMTc72Fi7bzDb54pbucxEf2ON6yWU3pWyBic3kto1k+q6y1MrW2ppubdKPhCuLeFFTo3myqqq5kfO+jufF6QHDWObWo+yV0JK9/qbBW22qEvdRMLVtE5vqsXVwbpda9RdEw4HBKVAAARAAARAgBKAlsNUAIHDQaCuOd2f3pt/F1LWxfQBI6Jr9+LtC/K1stK7qHov7huH5jMLfv+NtIXUCXoLaYPV0lK3WWilWvwPSm+zmw5kl/hgptndptQ+V9K0XGGycdejdrx/ReeslnMjp0LXluhe1pV5djBR03TJc4q21FkHPTWsScFyfiykFEwMZHXlnxtOahM7eWmxqEm7sqpurw7UV5jB8AXfeqFHGQVBAARAAAReDAFoOVfux1+9Xeh/8rex5z/eFP6lJ16yn9v2G198s/OD/d/2ZVd6cSV0Qeti7iUDHqb7jVMFsjzd/f+3ZppNwNlSePc1l1WVrqddZw5du5dm2x1Oo3IlN5RyOEFr/4XpLX297qvZpcKaL9U3m663j079RF43++THrPKJCTBfbcgOHHfsTuJKVpcfpcUeQXMqFyY38tnboy11RkFqg9qZazMNonGCvf0un7Td0WVYWS3canI5ze2rs+N5rfuFyfNKciRHRZQzEIk5sWdJK2Wdlv571DG7o82Ews0G1s5kW0a31GnGuuLKFZt63At07Fr+24kzQQAEQAAEQCAwAWg5Z2SXmv/0XJRw/Bhajuq6l0nLNU1+QIRBUANF6ILOM1O20PSzSvZcRpMTSpkO8zK0K0ONM/6lkeOZ+Qm+nq4fulssbsn+bVP9UNqWfbtVLOpLc7WslqTFtwrT7Uqsur5NMwGNr2xrjcnfGbQYLSfvEjfO+YF0f3pWF2POAoOjk7j5NY7nNT6lxZ6kmZsSOz6Y1et07Ije/hLBuzleLxtZrc7jXZmSjjQ7mBDOYQKvMN3MZwvzPl3ttTZGKBjgKyKb1cLiyIVQbpZJYhMjXpptbxToiJMRVEu2CZAfO8/7Qg+ow+1y2B6dIWLS+mqgfiSrGzDV/O1WkWoAOARp5zyfHsZBqVjILU1fvZDy58ZZdbZ/OpsvklEuq+pOsZCbGzgv8ZKlWp3MVYc5U9WzRLqmt8f9lYeVduDuh5tXKAUCIAACILBHBKDlnH7JEgufcPFmOYCWe+m0XNXAKlmlle5YdI7T/KGfhy4YdEXVvaqv9Z2tXnRBfG/KUTBQa5gtKul4g6df3NACsXIUF8c8XAqbuase0znG8teHlPJ3smDgolcpCmqHDA3VPMRWU9XYNbKs+91t6tLO7gd4i6z7bcti5cK0LvJLy71MD1QnapjbHjEolVdpmJb8qU1b4uhQGlfo2Km5IU4vrsSUjlmy9F/rN1SWz2C5s6M5uQy2i2dN8bprUabH5rvtuoVKQXPL41TgyW191Ukt7Y2R1YbaNiUqWs7Tdkv2kZtXmBWsYLJvPnuzySm/js970CSu7HPY0+5X3TSSZT6ftuL5G/zdB+mXxUi+1M36YrSWzUl6s4S3Z9pI2q+FT0AABEAABF40AWg5h5+rk01/Yn6Vn39w+jVn3yfjF/RFj+VBtaTznXW/Ws7cpNAFHcbowIAba6OARrnQBQN3jXqRCVYvCzS6ILbZ3ITTqPCwyRUfjaFiI5Bfn6NEpJa04vKoxZJG/xyY03321NwbDrrxchOTVUqMdMreMKrxDFsN7YJDMhXqaiiqJg1LkkaCbY7Xsxi2+huaia+4NtVSqzTf1tfozgJbu0FY7N9ijzAWIvPmGeI9a1nWp6i/ojmKzF+w3B5acQ11be+m0jCp5yzJG86Neh/P6/7AFmnKukygGRPVEix3vGPMdwwkiZZc2dQNsDuFFfeCQ+GcSC3iSm6Rdrwx9SwsBkObllPLxhTVH6f0TlepqTw/dsY6bdjEYC3ZKwstGyDzU916dXwLAiAAAiBwwASg5Rx+ii61fk613EtnhfOagqElWeiCDmN0UGsL5smmGutLf5cOXdBrCGxAaLCcZdknnMZsbit9wofmXlAxE+YtPotMyw4aBiJz5QF6xJqa6XRoKpUrklWs/SpUTdkbRivhFjO6IpevuWkKENGVUWsbDZMT851Qf0st8WMiTvWzEKYl6xFticRqpHWHySFVkIva5zW9K7qbomVO+gyW617WF/ql/KK7vPH1ba6oKxC7XZHIWtWarIWmQnEwcVMrpWGFI1Y1Pi2lDo0SCcSUjO+v8jckkZD2GWX7hImrsmrMWCWRPHMhPbFU4M7JcuFaR9Ox6o0sLAw21+nBkEoi1T6e5f6Wokhmd4e6ubqihYPabnlqrS2trNHQxLD9ks3V0Dc1CoIACIAACOwbAWg5h1+sm70s2Qm0nAVRaEkWuqClAQf7J7etyVdjzo0JXTD43U7NLDzlur0Gb5ubD8OdvVryCVtfSrJWOBXhn9e2tljyhdRe6B7oT6e76h2M4Up9h26g85Nsk3bK3jCbxYyeKTWOpa7ry+L1UTG9Z4KEJKlCvpOa3kWy/ia6y2b6s8kAbfJQQegQ+FR/kwTyFWdfN800Krxt3o809E4Sh1YsbnEfSCo/TOqL2RUljSROj6lUlfQcmtpEUDJkcE8N53QlY4VPz3cwcVNohnGY9pQFyyUvT/nPTaqfyaRmzj23zVw6XJJMNvm1NJs2E1msbpRA0DKv2JLHCAa00mKfLTTu4jyLeRN0PpeyC8NEB1rw0umUHRxYoGrWUJj8psMBCIAACIDAISJQ+VrutY+ofWwke0lbzRxpOL3y4OoX35EYtolnX139aO306SrTQocsR47U/mJiIy1kodROfn/xpPTkWJxfyBIdZ//zhau76W2WVZJkH0n96q2N7F+/LOmuj1tfPJ6Zu2APXNFmrbWged1maK1PbnSavxLxGqd55j4xVxK6oHj1gz7m6y2LAcTcNUmrQhf0rNl+gmewHJUu3Lhhf4TRNbQtWM5+pu2TKppi0R6TJsEiNj5xcU4zXJTmL4myrW5wpaTmb8nTUVT1LenRWTRJY6JnPjfblZRqDC1lCE09opasYWBE8wgWs95FzTYi6wILS1sZEBJI2vOdKFQNGtsS7D5YrnGKeJOqFh9R5nXp6ptnM0xx845dfekqtLA82iLbFIHFgwmKQpgDbPQt33KLkwVpIr2mN2w7ZzEJ0gShxEppTNSGyXva+YaZTri0OJccj6nJ2uyJGrQSl/O5uLKMESvSeIslzLRslqh0ZHgKH2u2IXLj8JxDxvYSbCy0zQOJyjUJ8prBrKaf82NnKTe1bKhiR0SsqTgBBEAABEAgigQipuVSY5e/YGFszG6maa2PbllWja90rV15JjtTK/U8/WaL5Xxlz7Tc+dbPsoPk38Pemv2ZE6IkO9p+7cmXTNoZ2wasr7dLFrhiQTsBQ2tBy9GBY+t4NbBRjuWlCFowzLqKmVlWx+UBZunRRZKEc33G4YT+9G3ikRVm5UctJw5rWZdboKqTWh5KC13EOTPx+pSeE1It3R1tlL2PoNfSZYnCDRcbUy3mXd3oRamasqka6ncn+KfRlCGSFT91lBUdBRuHif9bKWfwHMhYtyWwmf7sd5xrsBzPXVlWVTHkidt7c6ONqZSWJoT/S5PshcXZTuFD/i3LyJIYIHp4qZtK6CZj8wa1mL1uyQXCEmNyKWieojQ15d1hcVd3/iLDvwol3r8EmvHehFq9JOPiMq/Er6jUVOcvmZstnrObYy6uVLsfL7ki9aFV1bIpT0lyiGwyoapqdkA6e5mPrlpWubmYvrXRXSvr9MhMcW6Qu0Ojx99iGKpYNv32h8lueKIsCIAACIBAUAKR0nJjzU8c5JlFy7VvDIlKT3L8PD1h9YfZI7vcwWo5dXz9E7uQ0z95etOewhtaLtiChi9JjcWlv9VP6IJBb2Dt/H3cWc4Prl0Fy1FtVi5MNyfqrq4Wda+8QsbJ1EavxaLahF3CStkhi68mT/94d7SO6xlyQDUPD5ZTYtRUZXeTo1tKZK8Y+w1QNzZ7IJZazBjbEjAznf00yScWo5aQVUU/WfSja76t23lUibzxGSwnmWM1rWNiKsV78918wzqmCgQbptesYEGDmtnQpHCosa60sWT4Sa4VdE9C8hLBK1iO3H2OWXNYLpzOBh636aiolUSV7GWBBI7bLW8kPnHkw6ygZi1XN7JOXzE4xA0qMYmWY/casbaRVxXcO5dciChDLiDFtwBuHfEaU5QFARAAARCoVAJR0nJPnk5oquyr3jcHX02RN8pVr5z+zS/f3L76/k3jp+jEzV5ukXv2ccdET+KE7oF5pLamb7HXMOs9bjzhMiq30kwBBvSoPFgt903ph2+2nrzT1nJCs8KdONu2/miLJpn8ZntnyNpBaDljnngv2rgTVFDbWuiC1vHy1VoWLGffqos5FnJXLsc09Gw/N7mvl2szWLyQqDe82fKe0rQiWlo+benvnsCdXkt026tuJPt0l0vZEUv2dv/BclzLmSwnsbhCt5QozbWJVu7OOd3Ps5Bb1kKwFnMkobx5fzkmgXy5QfLlOMNilouGix0N0iurTM2KQ8MMaGGX76m+eSNXx/ZcG5E61LYpMhcvajvmvqa6ChUTb1ALp9mllrogEqMfhWYYh6nUZ8FydF7RPQaczK2igKRay/4uRsvLohZzs71iDGSAeUtHiosrw3RmrUSq5U6N5qik17ZQtxahlRtZVahdjt1rdNt0WjOZtKZtHri1UDZPnC6Hz0EABEAABCJJIEJaTvOlfPao0SHajdM/+d4zGuH2+cbJo2xtxH8sj1xuYwkqr64YG+zy4uwgKlpu54t3Go7y3mnxhB07zOXyi3caWHcoB2g5CxC3P2nGi3Lg9JWhC4rj6P/YM1iOLoiD7CzXPOKeKEL4lioZteiRW4IWoWFRwo3ZMss219rOjpxjO7MJJ3AUTv5yqSvzi1Yhp8Qkwo8MN9U8JkOKaVnMZgXzZhSNcrwx9IDlO7EumncRLMcFW2mHJNOnwYExdi0tp6Wdj8+d5YSCiXMX6iy2qdqu2XuqKiR0oZPHrwMt36RhdUVz6xUUIEu8aYLJ3nrQWER/wXKsSexVhfCGgoRBCq8VqNYSPtEHl+VlEXYFZIMu8LGOtf0rLq6kiU/I+dxEJvh5GntCfDDVaK+WfkJiOEn8m948HptHrJ2iYzC5yg7xmzWshUh84j2IjvxDTQnUBgIgAAIHTiBSWu679MRJr8frYAe1vD3r6JMlRInFq9/8mIq9J28LyQws6KOi5VbmbNbF0T9sO+3/Bi3nNX/4NGCrzBCRcjSlQVBrHr90sAP68t6kTEw1UPOU3TRhrHKo8OD2EMMg4MusJHEadLSZ8Mgf7erV9Wm6ybh2vlUOmXqhDRzNpG9y23MeUNIpuwihxh8hWC7O7XKC12VcoY6yLqvtmt7MttbyQqbD2NFOb7aja5/YKenOcsxBsbQ8OJLVMVI7W4JtJLDULQ2voprBMOIZ4ytelB+TC6mFxeutpuQxSiplZEBhdieLZYxXYj6gxNT82EXd7mSoF6bxcsOiHYxa6nbmidnTX7AczephmkikGVTbCAKS6VuzpKEmLCNLjbkXHtzEk7m4sk8zdhrLDaMKCtzQWm53pWHQoy64NECurLKbnaLIdFKPzdxInd54fv/yO9r5NmHtDNBrFAEBEAABEKgkAlHScl98cNLz96blLo2Uczm5fWOE+E8+K512rDC0ljuI0TUk2aN+WybruJHCxPatUVCWgtIoiNwn3MmtcPuC4ySRjXXogoGuYpzcPKPv7mVWJmLDmOnAe2c5brg7M5wVbB26P6HEBqJ/Tp0zVXkSfHup1YGUvqxUUi3X2e5barFIUvmz7BrG8jeISlTLJhlDrTe50XpLsFwfSbhikm1GvBxPTH+8d1HzTS1lOh3e+DBnQplth+pntuZ2WElT9SUEy4mWt+reRUtO/+qmyc3iohGSZ6o2YLAczzOpy8Xt7Fib/UmixOjscnYgFGfa2XE9b43ua0rcIJnqTvStakFxlrcbzOyZu04UiL9gOTqfZSqF2qaYGdOQ6KbYQhbL6jyyYqdcj7krozks0DQuVNWXVdXYhp5rLdXlroxxV1KWv4QlPuGlqCbM53IaXp6e58w4TX/KChqPC9fu4DQQAAEQAIEoEoiSlrMkOJHinnhEbW4s2s31z0evSSvRPoyIlgsoyaDlTMssx9Gn63iXFHMO9YQuGHaNRaVjhHaWU1KNV+fzLISvsNBfV63Q9S4z41xiW2MFswqabCNeqUeYbqRzgNpADDVIpWB20GJwo+dzIbc2mBJD6cg4Sk1/tiGmYyc4TNLgMbL5ONVRRpO0S9uvRasNESxXXZcWAuTKajE7btmTgI3LUrfjdYUbQTeEEuMqoUeD5ZilMXslmeiZm2UbqTGjHEunGShYToDG72LKkwlI7XNqNxN0O2tM/qYlulLoiG2k+CUsB1xcOYv2+rFNXS2XtV0EaHH2ekXfPMDxunQGGiKQ2UiFdxbGOeXSYg976cBFYNjISUs38ScIgAAIgEAlE4iQlhvJXnb82eOIoeVigl3OZl6DlvOeQsb2zWW10o1ycbaCX+vnifv4vUAO6GqP29zs61S2snQzEdhL6Z8wA5rg1eZwptEqaoxS1Xvz6XoaHaekV3XZRo0tVbX2lPp16WViAyxMt9m/1T+pZWvZOA+WU0vbVtugbWc5MiVobBKFQDZws9iReNdqWqfJAn1jvF4UOcdSyWN6baGD5fpWeawaVSYmgeo8e5kzoSEYeGvdD0Q3V7LFOT+fuRk7J1o0t6dxKk8lFvH902cFszSWlnvryHaCJEsN2+3DcKwlE8MwJVEHQsvOcmQ+y1wT6b1gIkAHgqW0YRfV3B3FgeNdDnbAxRU3lJmBiDscanu+sW+ZtdOc2ZJ9S9tgVE4JUK1r2tuAe12qgvMqtwQ6K0zLtfAnCIAACIBAhAlESsvpe4Ubi0LZ7y60HLSc+wzx/tbIrOi075PDDR+6oGwme7dTUCyFhWGHjeMqcGe5uqHl1bH2OoX3mplK3MwUnK24JuY12A8CBctpxenSWVv+so3dWPSRabiVc6Nkczl1Jzc9NpNZmM9uFIvbVGeSnIR0MW0x/VkaKQ2WO98/QLO/sJAqaloxvPKC2SqZk6ppR2lLS+JKsm08e88ahkdzeJZdEi2ayMRSDfUkkI+8HdCsrMw6SrRTI92XTy2rlJiQIJRAM0QafcUgSCCt2UzgDdUZu+pRH9rBFc0l1fRagUodqodZzB4xe9og+LrjxFLsJYg2b6073FAy7GWHSjNPkuJUYaqqyxuW81MFOnbMm5S/BBFtktTwWJg28ngZlkBzlKB5sMSO4BgEQAAEQCDKBA6tlvPjkOn24w0fS8dpbYTVyTw8XVYMoQu61Ln3X1E/t+BGudAF3eah4yhoHTdWimzJHm6hr5VyWVY6toGZDkSvNseT5SOlnCNBVsQPzbJwN4pwtuK+yS7cqDXS3jC6IBac7miDmXbKTQ0RA6CDdyVNQCIFfo/kJGQCxj2GkMo/IVhORMeUHrUy7XoLweDLerqxnro+KmYrcWFufCUEy2kDIWqnusEVEhupARQj1gIFy1GvRclsN5sxBS/WZMtt62buRoNF8v6PvROfGJvIFW41GZfjWk5UZebrtt1hkajsjYBhgjPi7owbxKicWWhVsgeduVrjNHwOAiAAAiBwWAgcNi3Hc598vvGLXf1uHU4tN7BxzynFpRKLG9/anDPFRUNoSRa6oHj1fT6uGczSjc4CGuVCFwz/KGHyw0UzsLC0kmMuE7pkNOwh/tvD7BImrzb/xeNKgjrdqfnlVd0K4aDlDLbaIt7idCe7zamasjfMxWJG1/1EpInyw9wjouVKW8VCbimzMDOS7r/UUp9MJQ0zo+EL5yw5uBR0Ws1bguWqkzYzlOho2jS5oV/Lvis6y/tSpSimDvIG7MEBMxwxUERI02C5Ux2XLHu419PMHKXVXiMWMVCwnEubzeqddnlrboBtQuiUOUY2izweNQZP80V5VVU9S/o26Kpazo2cEmrz1HJ8wpdVulsDT+JaVsUt+/i1jAPuwGl4qwqXZmNknI9PQAAEQAAEIk7gsGm5mPeeBP5+2A6nljPU1ONrwntiMomb7j3doUrPp5az5cl0Z2tcPWBB92r38tvm2wXysj9opFzoguEXVWy7Yb7as1dFzVMuqzqmxw4oWM54XFY3Xs/qK119j2+6urWby5RYPNm9qgnO0vLwWE5TLN6yk3bK5G6nw6HGn8Lt1mSqqS3dP3Jr0Njdi3u1Cbur2ZE6Zx9h85D1ZYDpKJkMo+rLyfWR6gSzlUnSGMKTmWLs2lUowpS/ixAK95XVoisEyxnDzeDEHRwd9yNYLm6Vr0ZsnqRhvIV+D3jiE/kgskBByYzlcosl+xGGSbs6vW3F1JTMuVQtq+4mVmPnOgeFabkW/gQBEAABEIg6gUOn5eLGXuFf3D/t5B109Pzp7Medv3f5RQ+t5c63fpYdJP8e9tbsz/wIncLk6K0lqta+eTfbZOr+6VtL337jS8sJlUh2t3NZCYUuqMRem9x8yP67N3nW1HKXKwb8ir8OVyvfKKdQt0N1NX3cqZvUPOUmfqjwsJpW/MxbuuL0qTfEIattHbur2wPVwmynltyPLkBlmpOqGn1EaH5LJ1sWvwTpFGmYkkim6psv96evz2QWcvr+DYK5TFjv1t/QffDKqioEcfnhYDnHxfRnnMlcKCWbpGm9YLrLZx5C6jhqznjJabADWUYZ0bhHj1Ovj+eIObe0lD4jOcEqTWvM27sTIe2gUpgtS/Su1GZvoGA52XuHVHNPfzrd3yyav+KK4Zdo373wVP/s7GDzKXPjGStjpBw/YQ7GZUniE6V+cEXfeFB7MWS38RqW21LmovXmTfZxa15ppS9JW2IU8bhVeQ5YJD7xMYhW+CgCAiAAAlEkcPi0nHLiZu+zH9lWBF+ls7d+8dqZV8jYHD3zat9s60dPx/QdC9ITjr/Tu9iToKK1nHL22udcsD29M9d+9Ggsrhyt6b1156/a5yU/djnlRP8TVsm3j4YHUtV+fxFDFzwYLcdfh5uCW1wmCfsqdMHwjww/OQZ92Nxoy62mFT8Dytayghzy7o6SqOd58LdXB+rohWgzbNIlQb3U6KKW2RwcsnEcSyXPdaTT/ZNZIhRLJGWlJKpK80ot5JbnJy+TNPEsmIoZpqRZTxx7V53Urnt9PK0lwKD62WMlTdWXv2A5Ns2cGhBwZzm3wU22Tel7xGlyt5gdbQshdYRgOUuD2WjaN4VPppe1dKOLfSwTKalEpu0tdbr+Wd14i+rz/Gyr4c+p82SWT7pNuWs9MmLs5hITnyg1qcb2wbFlatvXJ56+2551BFn6WU3pZcfa66r0pJpVdRcGFoyypn0L6YRRVY9XJzQ3jKf5LnB/rV2QMcE5IAACIAACL4LAIdRysbjSvkF3DHfdZe5l1HKx43MqE2xMj1H99uXS+sa6Ly0XU0b/sMXse8yUR2pzdc5Uwhc8ALvcqeEcjZRzsXTJVjChC+7ihmf2DXMcjqVCb5ubD8OdpU7+J1vLuvr1mXG92rvIjBWFhV5hWzYqCy1VKeeorjAWtXQXOFWaJZ8xEcxuujYrbeuxbbPj08QYyJJJ0OWskupeKGrLbrWY6eua/kAv7rQbAek+FW8zmWye7nJeVtUdXRVQ+4nz1u16DbSpTgZGS7AcZy4/YMLApoSDrdfFzQmYptUU3drUJbZ1hJ8KiSy3x3RxIWeMprw72pyh2n6518/pvPZBAAAgAElEQVQVY0qCeszenl/M5afb9VnHh1Xvi827kmZ2CfrWxmgPT3wisNLFmzD91GLGYWP3qk6yYb1wsqUe864J7C2G6rIpudY2dlci8YkxUs7TDOeAAAiAwOEgcDi1XCyuNM2nDescN9Pxg7/1Z4cTR1ye8ofTx1Jb5aQul780CzBNhq0XB2qMeDYPSRZXjjRkH8s04X4V/PXsh8zF8v78xf249+jysawGXd6FLhi+F8wX1M15ki+IXWxubOUnc1ozyzDbncJSaNpj0lwKJgeyqrqdHWtjmyaTaqlCMyU+SXbOFXRpXTJtxs0TA4pJ2OkVNe8yzeCWzy7MT1/XU5KIO86xvfhMy/raVpo1RC3MXtT82Yx8FebFdCyeaB6ZW8wVDPEmLr53ioU3OrQBZcFyrptrU/Ulj7PiUV4eFhjG2VewHDvZNo5am6vr2iZWi+RFBtkx/GzriMm4pBbX59JnmdFMWgn9UB4sx/0GzaPp1Cq28cAVyRU1T1HN+jo6vbCUu1cssuw+TEfpLog1bFg1ia7rpQ9IilF2xYu6lHJX7G7dNHlvskubhFlpc76bmZ2ld7rh0ytOJP24uGrdgJ57TjrNGXoJrjB9Th7XPkqbjQ9BAARAAAQqjcCh1XIa6OOvTmx0/unp6LPvqcvls+cjTx603u53VXHk5+3warlY/Ojp1ux2jkXHbX2+PXzttObkE0DLxeLKkdqB2ZnPPzEb6Dy1XLiCZ3m43IP1a+aQmL25o1geEdUt/IwtBMUFUOiCYiXBjnVFpC1S3YP6fNjcvA13si5rrU2k1/SVa9AlY00qad2jmaY2EXLfJ1uYa1zp7rBlT2e26ZksDMlas7nxNouZ4U9Yyo7QXd2UWLxuSM+woqWsMMlIypMu3NVScSObuT2qJbEk+4Prg1ixwXLS26TqbNfYct7wRFULmXQ9T8ip1HdNZnWLJRMbmqJzt9GRtwOmYDme5Ea1j6a0VTF6T9FN26qah2dNm/iZJBPXUcz6OtjC3UQ1fZ5ie0iUFnu4MqSzV2rdlTfJdofyxCe8AdqE2S4WN7KzE/0+w/CS5wdncwVDjpYKuYXxSxLNbHhOuidxpd62ZS/zna07PnuN00AABEAABCqQQOVrOfOCDD9CLyOBk9feo1a5+5n9Mcqx3ZwCG+XCFgz9LOCehB4xXZ42N4WJEydPPzrTqhMkHyNPcVGdbLy6SpKt72Y1rBFQUky2UadEpb4/c48u1guZLpvwMwLStDX09nx3re/nA4k4Upc0i1l1/cAqUykbUy1kh2t+Z50VtrzbGG+k4aD1Q3fz2YWZkcsX6kzmPiV5eSqzMK//W9KEUVkt3Vtln5DPzf9fzZMEnvlV/fOx1ip+aY1J76JuSrJ4nDpNmMDBckoi1dI/tpAriBYttbgy0SENfBVHhOgWN0VnCZZT6jhnszB2GzWaEpZZ0viEN1QTC3ecvt6fbm9K8uFQUpdmWbwZj8bkkWYlFp/ZPOO2AYY4FjgGARAAARAAgYonAC3ntqpwWj/h8wMloPQtP9C13IN3By3L7j25wVgUVmCjXOiCYZvNg47U3LBTjlY6NFabW8cs22Iun53XAr3YUt5DE8Z7F5lZxlhMk09Uk1ekvynRuyjshsctQtoOEGK8llpcuVLnWGGjoLXMpiTHIixToro+lb6+RLw31bKav9Uqk4uKwbmsqh5al+WcdKLk9bnJ5zOuxPYhWK6qVs/JMbuUu0e3EzSGcis3e/WCVMWJMJNt41kW60gV3dq4PTOKGCwn5nJ0kOX6s7dnSfeM1XKfaP/YTuK563QC1E/kS9taohrqN8vfKZhvIrGFxewoU+DanhaaZy+dscXccpb67i50mSS0uTax7zgGARAAARAAgUomAC0HLVfxBNrv3Nel3Nb0+X24lxLdy3SBG9AoF7pgaOAXpsl62p7l3LYSpVF8PFjOyGnO1rVkdbsxbnFitBLmetWiSbRMIeawN1sbrFXFlZi9NrWYnWhNvNq/wuK11HsegUaxuJJ4fcZIt7jQK9Vj5quzneVWV/OkI9vZsddZwndZy1l6khmr1c56ctPAHbPZjdro/H44dN40H+h1fTqv+gqWo3k+DP2mZWop5GZH2yTufKbGmBiKOUg1hvYMjaZgufqbeg5JtZgdaTDVYwFIXzqYp6U1WNG5VXptiYFVrtZWrhpuovS6Nb0ZsxCV7BNgaRX+BAEQAAEQAIGIEICW81gluK1CIjLGUe9C820978n9lR7HjdRelkHU0t+572RN52Ty0k1dSwyxHeFTXZPZPDV96AaQQm5pOt1AkqG7zZBU16RFnNweTV/2tuTI6zzeMHCbiZzZ8QGhHs2zzreRTau8cTi7XcpPNPH4LvkVCRAhWK4tUyws9Nd5b6SRbLnaL5h3DmaOMSufz6SU1IHQY2c5qg/1GD8tmquOR44F7xQzn1rNiTyJIg+WUzpmN8VARPm1Ep3cQ5VMjJmRdh/T0vrs1Yxvxex4i5PPbXX9pYmlvD7z88ujXvpc3lS3CWZtD2oAARAAARAAgQMiAC13QKCxDgCBvSCQTDqtVqO+mqxOJrz1Fe7WUARONTWfSfoSvT5n0bHEXtbm86Lup7lnvnEvi29BAARAAARAILIEoOVCrY0iO957ISdADARAAARAAARAAARAAARA4MUTgJZ78WMAfQUCIAACIAACIAACIAACIAACQQlAy0HLgQAIgAAIgAAIgAAIgAAIgED0CEDLRW/Mgup1nA8CIAACIAACIAACIAACIHD4CEDLQcuBAAiAAAiAAAiAAAiAAAiAQPQIQMtFb8wO3xsF9AgEQAAEQAAEQAAEQAAEQCAoAWg5aDkQAAEQAAEQAAEQAAEQAAEQiB4BaLnojVlQvY7zQQAEQAAEQAAEQAAEQAAEDh8BaDloORAAARAAARAAARAAARAAARCIHgFoueiN2eF7o4AegQAIgAAIgAAIgAAIgAAIBCUALQctBwIgAAIgAAIgAAIgAAIgAALRIwAtF70xC6rXcT4IgAAIgAAIgAAIgAAIgMDhIwAtBy0HAiAAAiAAAiAAAiAAAiAAAtEjAC0XvTE7fG8U0CMQAAEQAAEQAAEQAAEQAIGgBKDloOVAAARAAARAAARAAARAAARAIHoEoOWiN2ZB9TrOBwEQAAEQAAEQAAEQAAEQOHwEoOWg5UAABEAABEAABEAABEAABEAgegSg5aI3ZofvjQJ6BAIgAAIgAAIgcBAElESqNnEQF4pjfQUCLxMBpa4l3Z9O9zefOuheQ8sdNHE8QEEABEAABEAABEBgXwkkLs5lF3pTirjIqeuezRVVVV3o2tdLo3IQeBkJtM+VyqpaLkw2ijfdQRxHSctduf/Pn//nnzvXAnMJXfBlnIt4kQYCIAACIAACFUcgUd+pvfPei39d9ccDLyQith5oHM+rqlpW1bX+hDGU9WOb+of3puqND32hqJ/Ia7WF/Ze9IrEEplr2ZDRNlUhNIvvR+IjNh4DDHdHeVdWmkqk9+FdlegPi6waJxZX6mwXtBtmZaztw2tByfgcpojN7H5td3XZr6snje99+s/OD8K88fuCTeB/7uK99acnPP/mvu9q/rwdaDmIe/madXM7y/11cvabvnfsPHz58uD5yOqqjsK9DXFGVX3vww//8+2f7v/98G2O3FwQax+9p98L9ty5XV9S4H5rGKL0rYYWETYFkB8xarvl20XZOWN1iX8mdHc/vWctVtVyabff6vajpXSzp7S8tddeYTm7LlPSe5sfOmj73ugVSQ7mwQLS+58fO2C93YXprN3VKy0r7tR+Nt3cHn7xwAns0o+y38Kne6YX5jNe/HJnP27lFrzMzC1OXUnuJC1pORvNymYkTKBMZn7gSq199tCVKOH5cMcROdLXMP5pT/7FG9dJ/3f2Pf6yqT2++k+/8bd/RYw79Osh1T/S1XHtGV3If3WkP9RLLa/VQAWMUbD78bud7KpZ+uP+7iusdtJzf0Xz7U6Z4P30nyCS8tKjfD1szvw5Sym+r9rvORHqNLI5LmYuBrhW6YKCrKDHqvyRdwQf8MDecNGFn1qo9UVzLvZZ7PzmS2zOhqLVwtdv9eVvTMfuBDqSUHbL7evUskcYUbjVZ2un2p9K7qFv5Mp3BRo32fWum2QRcr6RuOLtVLPr4VyIGxrJa2vY6f2O80X6h/Wi8/SoenzjLjFKxkJsfu1yveNQQjLzbaB7IhdhbgwN06N2rlybZwSozor2+hVVVXfK4i80N8BxNaDnZ7QEt5zGNmu6scfFmOagELXfizBufrHIJJz1Yn/G8N/b9hKhrudcmNzU7xMP1URjlyGMEWk72OPV4mFRgkbBaLk5Ncw/fGzkZuV6fnyoQJbM+mgrU+NAFA13Fh/8SW2+5SJ2O2R1N5BRvXzA/3uuaPV03b2X1SBg194bJo8/u8Hmp0epM2L2sK6ud7KTnVfyc0NlgWWia+lLTOk28KNX8mF3IxZUYEzbqznybuyYUB4gKaas903Rp8Xx23L2q9z10eJ6SarlFfTvzt1sFZ9Egz40X1XgGQaOUGs55vim4N9dmNqJ64q3gE4z3I7mR1AG1szq5Jw6WSdu7fqXGh99meokEy023+Th5r5MPVb6WO9E2ufHoq29/+m/BO+i///XTd395fH/jjd83m9+uibd36IJKDFpOfAbZj4+/9Yj5VX4yNXq2WsT+wo+P1s1/rTsuWjwJzX++lFrO/DyduUlVbjgfy+O/XdOV3P1FGOUY2MrWcuYbWY8i1h+q8LE0k4nFQ2s5pXqA3hULl174kzBQA5IDWX3NXQ5qlAtdMFDzlFicucnZrF7s7lOoZLLa3IQL0df2PnwUrVNCYUIxNxTYM4oKSHXVaq/jLXc7qKmv87++5xY5NT/9etKp2rY7xM1SzU80OJ1j+ZzGm92baQkWjNSb0cWzNFjOcgn7n0p9f4YYGNXiypU6+wk+P3khjbe2rXPel212czxoHKP1Qrap+4JO6F2k2rU43Szcg5XSvL1v0gsMlovFlcrWcjWjm8/+JQnwYA4wP//Pv+U+MKELknkGLed+v9Wvf0K1XCVY4cz35OUPl7gh7v98cvVaX82pE/RZ9kqq5n+1v/a7u9cKT9fuvox2OfMzfXda7vz0FpFy8xfN1ZqHw30iHbZvoeUOx+iH13IxpW/5gX5jbIxFyTTXPEONcrnhYEa50AWD3vssWM75HT+VTIWbjvqE6bHAxqVYPEG1rtRX0L0vzO/LaHl108jCjC8LDNFmpezIuWrvx2xtb2ZbF+RqYfaio5DT6uGmVDU35Ct5OhPSnpYl+QnSYDnXZ4WSapmghlC1rJY2liYvp2LxZEu6v7HWtaBkLA688ZI2KEbyFYv/XnWyrmWQSlaNXpgXDd5zQ9ak/S3VyOz85RC3W9AhPojzk5en3OPl/AXLjbbYjH57MhCVrOVa174SbHGCfhPVnUzLhS7IJgS0nPudf7Fi4wmPGuk9Psqf2Z97Zk9uPK2SA/exNLd8V1qufV6PDHr4YTRDg9id7j7PA38LLbdPYA+42l1oubjCbo2tqfMH3OzQlzNsa95JNUw3ReiCwZtK3eSkmS302nzY3LwNd6beiY2kQrGU6TA/RcVz5MdMQLI05Y3DWZKVZHOq0d2lhRvZyiVPq5RybpRW62qRY41PdC9T05y6OV7v6WnJ3DK9w9UswW+6UU4NKICTbeNZIkrLavFegbi2ZjqTLbd1Z0u1mJ1oTXq2mQ/lwTaeEbZOBuprKvHv1c883rtIWJUDGEudrlUJn1ddyVI7ZPCMqZXQflsb2Nsc+dsK4tTg4//7ZnetXC13bOHjn5h+++nPG8O/Psm3Fjh29mLb7+fWin/883f/smu5UAWnt5nTIMt6YgkDM/785EanMcxN957Sgn/dcPzlPjr0Jkv2+G62iT9i4sZFty8rsfjRpov3HuXZmVtfPL6THag9alzLKMgfE0dP1E+/89bnT3kaku1vP8kWZ5teOyI5mZdSYtVNvYPFx/lvvyzRfn157/NHU2/1Ol7OaKoXnxdrqbty7RH1pbx5zR2dQCOuvHLjMXPL/KTT8bVfS7pEK1+7O0bGxfDnXJ+JnRoeKPxdq+fx32+90ff/aUNw5lfznyz9h17q0ScDPWdMo2nVcmfO3Pxw7sE/SEvW/s/TN5YzKXc5qud3mX9Ei9x9oiV3uTE/41GKzo1daDlufCjOSiLaJXPPEDn0hj31u7VHf3nOHad/+vbPj+5ekb4hPtU99f7HX39v2Od/+unbP99/W36ycemTXbfu7nz67Ief2Pugn//10/fPPvUuqE+MmsbhlQef/u2fhmv3f//z6/+7caOD2XjZhQxPRfawEt80mY8/W2alTNNgNx+GhKP10Wh5EB/LY2dHl+//5flPwnB8/+zx+xMyIwNXRP/cuXaiL/vZ85/1sfju43kd47Hf3v30O1rP80/v9jk4kgW5otav5f9kI0761TKR+7/PfiCX/vlfP/zt47WrJ+38jVKe4/j9gyvuQ9azohvmHt6Pisma5xQJapQLXdAdoOxbT/8ltnZ0MQLQ5BO2YDnTb4F9bmifNM8U9TVcCF9BFizH0pQrDXRXgLLqpqNqmJGtXFrs8wg3SnbOFUh2EDU/5seCF1diNYNZnlBkudcjDu2g4s2U+q7JLEsoquYn21IpmjYmO1BT172gJ3wni+l78+l6H7bKOE+Z4zIx5BNgt5F+pmlsJD5Z6XO9nJuWq061DM7mCkWm+kr3cpnrHSn3NwJxRTl1YeB2Nr/F1LtaKm5kp9MNvtLuV9c1X53JbhSF9DP5xYmuevvKhN0j3q6k+6Zn5DevaSDk8P0U9NjtwGewXI2/SRu8zZWr5d74f2y5wH47uZZz5x6qoH+t8oNJy8Vblt5lcujNUbmCUqa3mWR6fE3MHGVcdPvy6aHZv0pkUunb7R4HYVbdu/Q2E342Ifrl0ltNDi+ujjQ4paD84ZvSt2p/i6wXRlMljTRd3VXLnW/9LDtI/j3srXEfx1DfGvrk6m+C3LSvjN0giuvJf8290SK/tCG9/nH9t7RyQ8vl8wMfmULy3pg4U/emJXLPHJlmVPj1wG+6era4JBPqefz0qkUBspv86IBqeJNyt1Jy4FxK6JrBKvCOCHy1mvHpYGnScsdG/vA1V3HC0tmW+/FE29LHdBUunEYF0s/fPpppFbrDh/tE2+yDP//IFvSSgv98vHTxGMNoryF548OvuQK0Fv/X1/enLwhlDUVkPdPegL3VcuHgcEohtNzJG8Vn/P2aWab+++ef/pL7rUXoGlru8f3PTAV//ONUy9ufmufAT//5ti1QJOgVtd4Zquw/33aYad/ujFiaKpTyHEf2e2SfOfST4797l4q5O+3CVHE8/wWfU8dyzQd17gpd0JiEvpkwN7mNOXuuEfLJNMmYv7U04pQ+5PqS7kcatJtaa5ltbY+C5fiGAWW1tNwrMTHVsh0F1GKmx9VbUkldmmUKp7Q6UBeAbaJvlZi8NCfGtUHzluKmeqh/4OZ4XbC5So2ZvgRwbdOAINUKC/11mkRhxhB2ac1kR6yauqIrzHZJ6JkbeRCNN19RMquNxCdO7qasp2VVLvbqejP3HMw+247jbtLGdoPSxlSLwxs00oVU3zx9R2Avqxaz15tMiTf7Vr1VHKknXOCoJ+QXeoLnyybJrNjTBleuluM/yXyF51PLhSroX6tYtJxy4rd/ovKm9Kdb5i1ryOA5n2Bc9NHbT5w10rfbF22v5ZTOd9YNU6G07JdvTUsiH06uPmbCUlrqm51vty/b0xIaTXUoxRvzYrXc2HVPSeZw/5xZ1k1qT/7r7oM/nJGdIz3B0HIWNaXV83e71lpbowY9bW4IWu4NYtCzV6J9YlaApG2/VY29FpxK/cbdMhleyzEp9/DdweP+nlCClsvOPTYv4rkq4Hc6qfPCO2YBIFlkSxblYuIKXrPt4F+fviPVgcqFmT8+l1xIFGb/3LlmLHRelJYLC0fWcl92uRPD97+1YRSx/Pvn//5s2bRNItdy5tN0vD98/09bbc82TenOQ1xR6x1//v/85wd8iwjrtX784w3zPW6U8hj9f//sqeXiJ6+9R8XcnOc+YOZm+LubjEHcg/ND29ZCFwzRZRYs53exaF96Gp8Ets8YiiKgr6A2OvZgOdJ9vpG3LudMZjHuhOnpLVnbNcvX917rctlUSRqelmVVvTd3Se6TQoV06e6Uk5CWfz62pBszndQLm8ZmFaeaDG5UDZpMqdX1A6vMdldW1W33YMJ9brzPycxvFnX+krSIYSaVvC9IvD5Dt303prFZ15XmL0kWnw2TfHo4FCwt9zrkRE22Zdg7AoeyqrkvVMw4nSx8bhpNKY0AH1YngiXj8ZFhklRIDGgtw+4xcvxbf8Fyxg51Q45+fOy+CABBKwItJwMXKF7u+JzK1NGjfpvoijfdyToZ7swCqfTtoxujTUf19Xf16c6+8lNW7TebxV6TkS11/Q6zyJW+fXRzurM2pRvTjp6oG5i9Y9j31N9a2nN69m0uuvSCNfr7ae1yO5/wy22XxyXPBQFUID7ijNx3u1yqY5Mbtf5+40a77ugotFxsjOX44h+Y9Pr7Nc3l1fJPrhIFLfePWzcaYvGjNTceCyrr66sXT8TiJ371DhOKat54tWloOb3Nj7++cYNtfHeipXn+E6Oe4tuviu155cq1B0I3b1559YQ+bfRSxmYM4rXE4vQ4tJa7MFMkS9WtKWnOa8m1DC33/LkuCX569mhltO0sMY+c/FWn5rn356KwJ9u1Dw1N9f1nuVu/+xXxwDzVPLzyR8OsZ1uUcy33/Ks/FjOjbb+mDnXJX/9uKicU/O+P37C/kjQbi374dGPqKs2Ue+zsxeHMh59q28eZtJx5nhjdtOhS82mWqRX8z/BwjGsZKtSHlqtfMXT1T8/+uPz7i/U6vWNn+6fe/8zYgvyru4JtTdBy3//xxikldmriEdt/7+f/+fdP/3m3rUY51rHxNZNPf84a5rJQV9R6Z1Zl//r6/lt9+jRLXn5r52/M1+N//vU4Y6CwjY7RcrsPv+1kST3Ntz8kd8jmZKOf81/cOXUj62RRGNRaFbqgBJd399lSuGQJx+J/MluNS0AXdRJzyXIpeXCR1u5dsJxwiUQPyWCu8ef5JI1Vu9OOArSG6sbr2SJzkixkvM1TDpDNck4aisbizUIKaWcBXHW2a3JNVGW52bR5jzWWP8O+qZ3hVqqJhFJ2wmG7gn1rvANP+fSuu0G3VVCl06+6aZJsI1FWSwtdVnElyH713vxAS32COFUeq2ubEOaAfbdA8gZELeWXx9O8lJJImVKtSKRjLC5katHUcm726oU65hxYVdt06ZZ+XWYslaAwXr7scxJLw+BpFreCdAw3b0lkrLFF3q4rNDfDOe5XeERIwDp/W7lazlhqsPegPu1yoQsa4IJpFadwOP2uPpl9TF0Qv/1Dh8VOImq5b9UeqzXsSANPF/mDSZXxIL3SF+/8ylj9sPYfbR//glrPTOF5SowX3Pnh8XCbxZdSuxyTc2ZfUNvjKRgfofi+azklZjFY/cff53La5uA1RO043wmxuCQcjiFVYgPcDvY0LQgYQ8v9h8oixwzVdzefoTX8Js+E4qPf8DaYtNzXV21mtKMTn7Aovr9fFXbvFaL7/nFjwDoBjl57xESg4QtqdIRfPR5Wy50cWScL1YcrPUZtwihLPjREjmYh+e6BtrKXnMY/bOR5j8iK33pyy90/U+Pevx4vWAi8vfOpJLCN1tD7B64cPl3hl6MHNx5xY5GTA+fJG8WPNwW7nLlhRjf3U8vtBo7RZeM56a3lJh4xn9Xn5Qn7NjDHRh4wOfdtsZdfwlBEX39AfXHbPnjGTGT/3BkhZ55Y+zM13AnQwl1Rq1DUcj+UR03OtDVvcZvwD+VR89jxZiv8dYBjnmS3qavVUz1IvSwfvt3nfBXxii/o+OI89bILGikXuqAXOikuT/8l5gMZYGe5VM8Mf6fucbCaJ5RKm6seZy7o793HWvly3BosZ+6+kduwXFrsSSX75qk8c/aa0/kkLi3y2KdCpi98sn6tNiXVvWAIKokspEK6mCO98/v/pRzJX2LfWU5J1F8eXxRNRmohc7XJ7i3JhtXBlCqaJcuqKrVM7nnjzSMona72D+k0sCU+qaptars+n2fxb5L4SaWByzzp9nqp62wbensQ2tnh2Vtduquq7fFimAHVxR7bt+zViZvzbd1gZkLu26J134idc7klbdcNzpZFye6xkFPLBEuivtNhM8nr/39758IUxZX28U8yNekYvCCx0CK+qCRIZLOAglGMiFGQCHILzoKogMosziJBDIOz0Fw2eXljYrLoJmZzsZJoUqZSSeVjvdXd5znndPfp6wyEMf9Uyprp6XP7ndNN//t5zvMMsuW9pGcnB738uttTg+dblDUcUjjNRR++vNI2r5ZLSE9dz75eHH6rqm3hqe9LcVoZsQtylFG1itBI/71ZTd0wa2vsISvZ9O1GXj/7IGk5h+hiJ5T3jZEZ7Uo/l17He1mda70t/KA8qQmR/+2zS1IynEPvkMZTdMYIviJitFy/stPZW2lcUfnwqjZAyyW3VvxtjSQQN14ZH8b/tdYzPFDhLeokjbTaYPM2kcx900Nb+HCSmtBywgjW1KKzdkeGm9i8bBnqY56QksOkpOV4MBXbPCabT5P9bZhXldRqMzQue2eorBCl18ZO0UFp+lj/42q5+ktWCMvlmf59EgrvhrREUoicUJdwFbfVfJmxue2JUfR+yGwszz4e9G1aFDFPUyoH6xzh/OnUANGHKckSRwfy/logOBG0XN8HbLfbjx/0uo2ZBpyqzJdMj3HZplZENz4lLfdwnKpqWyIJzVVlzBYNtpKWezguvXaxFonYTc3bUkyuUKHx7HKJxqvsdUeEayTvhaEYiH+dsW1rsQv698frV9os573NJjhApTPKJdVZ4NftNktiWngAACAASURBVCNbIskMet6Z5SSzGBnZ9OkB/11Mxkre05bRTfWy69CZsOJK+HdxRdrdaG3GM6x8uSV9qse+A8pcUeVn0tnZbHaiTXiUhFpph7qns9nZ7NVmZ+b02hQJ0SVdn59SqjjramXRR/zsP+VHhCtgLn3GmY6i4J23Ohbx32BfRyN//XiHO64phX7Rc9c84tMIw1Qk1SQC8Li0XHW3ldPPPzaP7xogEW5E94m4bLxuAh7Ht3n4TO7rsDKzz7z7hjN7+NFhFsfoXKXzJ8ld0yswjLanoX2UeZ/OjHYdUQbgMd5W9I7NmgrzVog4sb4wQy62Tazlktqp2+6t9j8brlNj/ZbbjNcgYxdkFUbWKsdvTjPRtdYj5wNtuXWbHbdHTLHWpdByn3RJsTGled15kvbRTU3SNvq6EbZTzidyJt9N9/hOnbgGuq5QJ3tb1Oh4soG5+TNSN5wnR+Yj+uCsyqeV+D9tLW2e6CFB5dJ1318cbtuqrHwXV1w/9XVK7qm7rl6kPWmO8JhCy81cJY1Xz4OgSAJMJZwkLdf3jsNmy4jtHyPnTG7iSwqtePGC1ElpROU85kr2eql03A5f1SXPk6UZbLayIS8v3+6Oo+W+vCW54UnVyk2P0RO/z8lcFXx9p04uG/SZK4dnH/bbgAjjkmPjlkcnFQ0JybqOWq5AcMJrueYc2ynnJCYR4LVJ0porop9X+ogh7/zvIhIML/sr6au4LRqtCC2nWjyiLdWvtB54zz3yl0oDpyI0QOun/d3TkW3X9hoCm8j7hJe4j1+61bZfK6jm2AXVrIKaS+xoTZuKS+RncxZhkilEZjn+vNuQ4v6ZQR+Yc6aeMyRN8P8z/X+hqfTaLCf3Xw5ruaTn0n4xSGSA5ftMd0Rqwu7BFdJMYfN/07Y5RZfcXCE/7zGfs2czqYBQiqrNcjI6+lx+6lpWz6XbnUKukH2mtuLUSQtYPUe5qdT5ppo9qvCGWoOVaV1fyrR7ebIILRfJbY/eMizZ1oAxOm5y92k0iMaRy2wFxsjhEYewuz/HRkzaCtdx8ndVO5d6tm76pqYypgVbz2ZSJxWRPJNaYtuBIxdGuKE1mxlsOah+SPNsyD2WcEc2tZZLJI2QdF4x5Z58sXjRFSKcAMUuaN6Fo2uV6rbPmFvj3PwZ2tv2YsP858zB8rOR3XR/FxMjtJyZk8B9gpYQbpY8pogoFRSGxFBuUs1c4D1R7eszWxdJwD/so1EQUql70fkoKhEcpJoLevCF/adqL97pyT4aXyVDFkmy8ckBlZzbWjNBwSRzE3yL2ssXydD3v3rNFltvhZabFMnHeY670FpOMtY5CLxDyRKE3Y9rMOW+PrN7Z1eYghWlbN02p4PX4926ozPm133iMTW8/1g0kSMeuGknFRlzFFE01LEo9rx9MfvBAzmpgLsqUg5scXJx+MNim2rgIdZwtGGGqNA9a1L8SfeI3EfIQd3dloDs4OAau1BH7vrdR0RtXBFJOwzPcm9MPy0Xt0UDlygreiIwilF7k1FbFF1Y3EjFkSLQcvzF/Ex/jeAjhuA53tgFI7Uincwey7wfVZ02N6ksjSLYcEdnugiwp94YT6VknaDMcsomdjWluBlkSddzI2+SvdrVE8W4Xqrr4EY26wOLwaDPpL3tdeyceUqT4OhY42AIyRpG1jrOmepmThbby/aE0I07DhwxQ5LWeMkYqdtCiK575xWzEDBTksuiWs7NDasnXciqMOJcIU60PYdOXBjO3M7yNAauDjhLcXfQ3KXIqRSJg7BDhgphKs0j1RAdsr0Sts9NH3nT+RxL8UK9t3G6+1CXEikZspnB/otk4k5P0ZUimZqXdN0Qe63Rk9rnNepNruWsse1u6rueXXn4rSJQ+NPVy94+u8m4BWNoFSkCCu1tkzwk1S6LQpVJiss+nUJcFVLLeTanDepMfP7nRqW9J/KlEoOPXPwP+Lx1y97mmov6MEW5nLhnt7zxLkkRUGiLmnB0dLssrruWU6iyEBpMuT2Pj5F9CFGPs4ixJPLUcnJ8C/dN0zoiHrjdUsF9xPlQvrN58qEtAr67iHXE/qzPbUFqcahC4eo/tNxv3LYmKSJoOe97aah1VfjisW1rsQu6Lpawg2KPZe/3VnmwIsnEbW7umoMNd57do50/MZ5K2WOxl2RKamV1vSw+oW7+Zzl8hkne7YEikSQHufGTfM+ea2ikxkdlHyIBreZdsX3O9egfRlR4neOcoAhbFr10qbQ10RrmhnXeRVUAdPxE69PucFhSVnVCivivmq9ogTfsUSUTJdXtPFOfjyOxU9Jwe51qH53nqrOPXdghfd9ihKwtzmmUzU9BtWnIdGaO9GqGTHn2hW0Z6inqknWl5KZHzh9lifvK6nrHLnt4xsYZlB2yq4ai0HJsDOYT3tOVgbd7M4sPRDy0L6fFbnv1aCMXjKNVJOU2NmhsNlOoO0f3oOUcQNb/65Ym7gA5ofY/FMptZNS0OynUnegntJzj75bHVyFywmxAykfLNYnoGiojnqzroOVUmtY9g8LSJdPz+iyowi63vBwhPpC4q7inoNBH6Il/KapRLnbB2KMjs5h3QPxiyizHn8C08to+im2YM6Lqy2Etc4HJu3k9jg8He60cekNSrCzn4iGvPA91WlJRr4zW4D7YcdXaEZQZUOckcCT6azxgl5cF2LLI43/SGDes8xHWs4/D4fZTaVLLbi/KSpFT3keM8Z/k2CellJ+Q/+r1waHn93ZNsTOd9joiHGLg3A7pkJeOtbp+X+n9y1iLy/xLP3ksfo/RHWzrP3fyxImGKnNDnRlHtGT7a03nR6fIAdswxMmOssbiNknODDVE8mCPwNkOsPi0HEvuVNox/x17VvPZxWFxsbRchIJxtJzm8KhUel3a5ymElvPzseSWOo/1Z5/pRPJP52Npp02URETKlVonIuMcu0el2uuS17zuWm7z+Vgm8tsvF0nLRd51JgUq/PXXp/ezg22NLKkAnzIhFIXqMNdGsflYRoZjX+2eHOynyV6LYeaOcy6IXS5ii8Y8CuXpmF9zXGLUTnMu3R+M07gKfT73y73UQll9o+6Ui1tQWhUy5xCf6dmLHnntr8a9nlDVx512oRC9iuORxaqlnWyKbX5SAMbcRBdFOpHioBhhLX1ThLsuUqvRukumr1duUPmnzTqHQv95BId011zbev7EofJtrski80u0x2JeP4Wtz90acbiJBn+1ti0tKXZDOed0nTrPRxH8wd/hkCxIS3rmnCMeqfjJFZ7ENRe2blScydBlomfTfSdr9pbbI3mILjkXJy1afWnkTVud/i3afhWJ5pQJGOJW65xZ73rYVTA/XOd0sNTIwhZfqWql1fKOONkQZ+uhtA/W9cbBhstWyntQgacVrZZLapWTFN76u7vNvghsWi5MQR4CZD6SXhKRTtZ6Bnku789TXsGvhZaLFfvkPzcORFoTW/tGAmKfvMhFbHHHPvHFIiKOSOkB5PUjRTrpu3C1h7bYDb5b7b6cCqTlfooU++Q0hXXxin0ieqW2PVp8YvpYJvKLYxnq6ZxHyHgwYYspL0+T8vPQR+Rd+WX2lCNXgTVqEcdS8gY0fypA7JOTWXrBlKfQcq80cSQ2HDsxoWpUmkc0l9S496lvHH/3RccVUWQfy7gtGn3YFFpuM8ex1A71sw1aEY1ysQvaF568tAI/M5c5n7gj5ONUJJnlSipOX+N54ab67FnRpOc/PSC/nPtyo+CWClVgOzni1kFyyHTLfmZ+8d7H6D/vrLgr9oZ/KfNX9kSu2A1lG2kiuW6dD9FJtrZJsupLaodD4RTqVD7Hr9IriWhajr/+8FpCVuwZo3JXlwqg5ej1hysBQ+DFXpgTrBCvS/rMu4dcFVLfnJ6ljmWj+rqtoub0QHqa9sXlpq5eaFKHP+FrQ1hHY76acfVf1TFq7rnQcn5vWI3Be2o5r4KKXWp+EDlxkYGAErV9Ne/MUsBPTiSFlvuqsDkJaHaltoz+13f+0TkJPDrm6Of6fg2yyyWSUgYCETTFkaWArQehmvKKffJTcE6Cv9UTlq08tspEYXISeMdQUc5XfvnlQmm5EGH3iYb9wpRsa6eUnZcNd04NI+Uk+LA/moaktriQWEctFxsOddJCJ7ScX0RHE29whgD7LLCG4mu5RMwWjW7wKXBqdbNXYtReN3/jtGguwe6luJnzywm3LvfTuX2FOMYVu6CjnghfKY7fjDsPMnWVNiP5WJk2zWa5XW903yKDSS59/i8qy9u+LraDLnIclO1vjpoPmvMjb+5QXo/mQcqd7bICqYuwSdczZ1wBSEiEBOWd62tyZ6Q0slH3mIHdg/WYu2P0RO4UP84z16/zEdYwV1ZLHmZh7pG45FjDJESX9EiWTzI96V6ZMMQ2PLcPpNBycSV6UpgTI3U7AlK69lVF6CpQrdhE0n+zXEVVbYVmr7ysris1mpmhF0b6Um7m2kDL4QOVtU2SX3FHv9jPmZ7ioW5FKT3Oqxl7T1SDtS344tVyb/CMRr8Gvby3a7kQBYWW81FiNo4MtMgMzixgX6kzuVllJS03HytX+Px/7zQ4M4zTlO/cVze50n+Bvpotijx4z2+ucP8LIHi/nAlK6D0KgKlWTVJ+ufy03MQ9/1zhtlCTUh68fHKFN3H7HtsZ6I9O/HpoIGsFXJ/tdeXvsq03USTqw7GUDvvru20egd227esYv/8wK2fu5lrud2ViujdG/82y0hmBMZ1aTpNyhXsFVdp96r0PvHOFS0Lii4ng1AuCj5Gires2C2MftMkqLhxbc9q29EOKDqrIw2afR5G5+8nHVw7Z6+Fnlh29Mv/lB6Pi1zy0XDJei8bFW1gt92TFfgsVo7Pu4ep/64dYCsbp7irOJ+iDvACmu/araw6qJKhUbNta7ILhiCnHRb6gM90HPccVbGVij6ch/PFcXSWhGMMji2JIWDnxtPLaC2lujsumFZnEOAF545wiebSrk1bBlxpZ2vdMu8NVz44ukjGt9PiYmcZa5SQWdrebR5AJKp5utW+is/dWOViSo6peScXXsfNSK8oeSgdpCdkDn0gniCSELs3G0usZed56K13ugua8l5TXd1ztozS2ZrUiAb2KbWW7kUiQeSwrTmBqx8gSfqnBIWyslaZVtqbOKXyUaAHHNSfamEQgTO0aRfhVoDLKiQzmapFpqW49d7VFvGQhh2QixtEFfpinIK5z3JQ3fMTnJUvew9+8Wm7046eP7i9mxvpPNVRZ78hJku2sfKs/+0A8kz3I2P5exi4orYmOO3NcjC31vfqKKn69crWVp65TQTMg5GpbrVSto4is5Z58Nf94pbOjequZZ6zklcbmpTVu3JsVeQ7M2srPXXrMExJ8cmWy69Xq8hKr8p3lr7T0dS6tvm9244o9g1byFal7j1d6+htLTT80o7n5T3hzc0td/muOu2JG80HVEuufK/yvE9+PZFfPXhyqqasu3Ssye7ywp37/O3cu/ou02b2fBt/1mZpTZ1fEmRP3vu9sUed/K5Rdzkwh8E1nZ/NWa1vCztqa4U/Gyb1zYuaqbQVuOXWWcohP3Pums+fUy1YCdLPUNV7KLyGBsVpE8rp735w7W7vFnm7Be91qjVeY6rjZusPnNOmnqFpOS5y9+y2PrvHs8ep74j6wbd/htqG7K19YCaYl/72klmi884iX+vHTTN/JSksH7qk51Xfrvhkw6dkvdOtwablE7fX7v4iIKU/u3+o9zbbbbdt32KjBcKG0t2i/BdeJyCs/P1q44p8GU+ITScvFhWPvakLY93579vXd3td32/tju1lVjn1Kzqu//frDw/mxjjo6v+x1IxjV/W8tqiLTgLTrTCIWLieB8do+TotGnwuh5TSRUvz3p/czHa+6jBI+rBLJ3Wf/YV0gC4P1Noy+pTZCy/HUw7oiwptfV2MX9B2yX4uJJGUkn+wodyxd8TXY5kYP0x5WEVGVuzNk/4nhkUX2jUx7uXawIz1Hz4L6zNAJMy+cX7vSxjl96vxBVeYxR3HuzSUHwHCcY34NDAoqzRffdqVyg6TNctkMxWcXpgnbkTMsD4Edb0g9phpCglm6/MX5enZe2SuPgz6BTzhqngZAt0cioXcZ5uJ5f7ilttKMuqElkiXb95rJBszYM1OdlbyqRFKjBa/rS7n0hQa20bGkrKK2NTVppUdjq1EphtlmM1OrzFxurdlbxhTdtvKq+g4rwdpYs302bWMXWk6f7q0pDbF6bcV9ag76qaJ1zDKF5dSqichMnd+rqIrszPYgNHu7piwH71tpvo3TjIPCQgHVnRsxtXHm/GvlNDuOypl9dSbVVKYW5I7zY37dxFru3+Khynh//OvPz361HzEf2p79+7rjPbH4W2491YUuKF0PW8+khFjiqsn6oMr6LejvfOtD6XxlWjl+stByK9cpJzhLCSALwsdzh4UmYZ3URCATqTm5lFLLaYnKtNBsirYMSTl31MvWRz3fzFpuUtZg3p//OVXhK132jlKS7ns/TbjSyvGlUiAt9+jijNQcF2Psw9oxl/lry9srQuk5z7dG/ajlr2r9yTufqLo+qC77U49s7HLfao+NMTF35aiozX2aOBJdyyW1Qzck/cAVmvODpBOM5qpG75NUc55p3j2+WxxfskSgwi6XSGqHBj4QGlJZg6+WSxyXxKSzuKxz6FISiORH+bFj4rj7TONILDiOqnZKisV+a1X4H+5sW2AZw8maZy/CBiuPMR+7nJZIxmjRGKC4/7u1OvO3N3uuGKPgs01svHQN07egcTnsePsmk3KX6oPmUbp85AWwPnY5rSHF3H78LF1SlwhI7IIRhk9tURFKfpDzC8kYwuYWbLijFl0DpxCaQ5ETbdFTo7kfiXbBZdNdtbucw3Q1ap5gWUHfHzwS5vzSBpahTg/0i2P+b1nFViJnx4R5Z0nX3e64kex7bsJ5bJZjHfN1zlzfzruH43lExKJ0RhmRi7AMirruCNdBK8c38I9L09KGMWWpqZ7eMTMov+4VOca3uFmnWgvRSuahbun9BTdh3e6N6KviXJPUhOo4F3JeuwST/q9myDXU23FXqzyZ6mtymJGZq7D0umf74cHMuP1KL2040eh6hpcXQCE+F4+Wcz4YGX9in9yfaHb5X4m/5aoi1oOIsqBtoZR23Jl2SSNT/PhruYQm2fTUu+D4QhRabu7oK12SqU3Is9zjuWP7X1TOtFabGvEUnF/NP1kbm2zZpXiaf/HAtZVZ9dC+yj3WT9aqm5P7UORa7trMxF53VC55gEktUTXBdY7HZjZjHgul5Vr+2nRsltKUy/pqdc1Lkm1t0UfkM+XPq2unj+21rWfH6Ojr1rMrwo4n1RCg5bTm0UXzcXUh5NNqHC3HlJXqDQ6TE78+vp9527kZo7Rj+msPOffjR8O1Uq5t1bO+8V6z8+4jRSpL65n+50cL/Y6XR3bOO9ve/1KYsGy3IFnn8JsA/yA/ygdruZhwaN5Zn0s7st+6tMrvv3lk2AtK3Pfjw/nUYWmfYZ5azpBzAakCnS0aMMX9XzW/4fbLaYnkG8Mfk+a3TaIXHD6PWoLedCwMH7avDekcx0QYX7nr8vLywtX6dXiDG9u2FrtglOHb4XCXzkybt1GOmyB8bG7BhjvPTtJOJ7VHlmIGxRCYgOSZ5fYcbw82x4niRpcqKsvDrIFdx4cso5+eHQoKfUnyOFjJV3Za+RJyY9dYaHWHDYcZMaRHWE+MKlCkx4aPqH71rYqeyL2fude7877ds0+iCHyism3ysZORU6GvShtSt12iiKuj+SmlmdfmpstPXsqlz1VrtKp15/Y80XPtNWnTpihudkPPjp0OMCx7tG68EXAIoQgkOSvVh7LGwRkSqN4BYMnt+bLNJZX1gdKyK9IYJDWtsqmbJetzKGfmKswdiTWqR9ez6QtvrKshzkFv82q5xJ6atqGJ7MqnD777+dkz+8PZM8P9cvS0h1NQ7IKOVaLtP96aXZ367+fc+TCills96+NVrMmxT8zk3TsPNWdXp0iezf5n9VJaKcbkKdz6P/03Bu6t3qZSucefT3021zl4XKXiRMGSanNoj/nQPr/92UrvlYBSnM8m1nKJbXvLj/acGF25mPvm2r9kdfT9tZW1i6MTNbXhXpAILff9ubfEbU4wNGkUTMsZjih79/bow9Tn8X+t9QwPMAcJTt7xYWdT7fDK8Aof5vfX9LXOwFL2Sl44NNAyuXZNyqI+cS/ILpfU6oetHUF3B173hCOxiqnljBpKD3e+98GDr58Ks/wvP3/7xQfZIZeKE+PafWps8cF34qbx7IcvV9+7UGe+9xFP86pnfdbn0qq2scX7Xz99xl0uf3n66P9udTYoY2M6CZSdvj7/4PEzpyAssJaLC8feWwPvR49+EKwMnexjetrz9ujCR8Y9mWts82483i2rOKuJ/LWcWU+EFo3zC6TlDCVZ131rVV4DlqjzgWOuQLo0Znu9d3lJlwZNx/7uaWbsXp5sD/KMEEudigceoTgiRvC6SB2LXTCwS94n1LxrBsYISn8XbHMLYbhTzIXZsao+qw95bJZLt5WbCanK8v2X/NzsxMqbKdl0CCGX4H6YvvLYcG9mW6py6fYDCS6ql/SZyycpcB+Zm+w+gV4kXcdps1ymozIymVbLrDTTc8BVrXEtrH/nQ19xSbFBS/cKfMImlIAoYz9q2yuPdg1lZrLm3kXDMpbLTqUH2utZTmolB8OIZMbsMM7Xc1OjXUcqDXdHERlluqvCvpxs9ZSYYRtvZVn+tCU9NxciciNVWHawNSV32BSEYazBtj5QbX4HSypPXLauU13XZ1KHxVY3ZykSsapXM2UtaVOpOuyiloobNx1TDYzZdF9TBdvNZC4D0upSnSVV58TOWH3OI8RRmKFFPGcTaznXSGi/XJRryawkdkHnanB1yX2C5GN5L+W/60yKY2lqucjjcreOI4UiIHwsV+7uDzHvhWq3aOqhR8+IxgcschB4rgnsaLlhmaxvnd8d5b7xcvskk3L/vLQuRrlzzMASeadc3IKxb2X8vT5/2+1RVaDNjTae+frjGSETdpUbcmsXZRbWtpfXD7B4kn679TxWMm2WUzq5xTnoskFJhgIjRF63HBJzz6ET9dWWemQbeLaVVx3tTVvutZ4eaOZYtPIjQ+zJWBjiqiQrjZ6byQyfPz2QMZ/OM+cPhJOpdi1Km+XioGBmIod5ZAM7H+Wi9li3HssGNUcioJVXnaZ3GUu6PnetxRSrnszJkXXmkm3fmlZa3XKNqTU5bpAhR63thaaKy6RO2lSc2dWy01aqd9frHjlirfkSxF3Ws5+RIEgnQ8sV9rqqHblJ7otjgzsl0KqZk30sC9sN1JYfgS3nO8lOFTHGY37tBiyYTVX5jrfGzYfPxfG3At5ZbKpuozMgsI4Etrdae+UWLh+J1go5Zi7fbPV+tRz7/rDj+FX2Uj+iUS52wdhd5cohN+hO9Wv7M+q0uVWemWCx42YyI0NSJPEgTSiCv7vURW6okQRe6BHRZjlv1ziH31rQV9kG9dK+k1b8CaurRqpx+54638h7vnmuKo4PMXc+0yInjVd7TQrfEtRbF0NXpi8RhT82IpdX7YZ1XsJiW404vmEETBU3xa2Uhlg6HuyQHLTqcqPHt1tDONiRMYPKGCtZz2ZS3BzdkJrNZm9nrpphfniuudxl5yY6c2GU1V6QQobe7lrHvYJmt6Hlov3F9b96XzyYXWMBRR7faVDsVbMXh5YrJHw727xq3nrhEzOw5E8T99ZOuOKOFLCh4q6KTHOTHevgErZhfxjQEAgUjMDB3lnzBcc/2iMZ5RLJw4OWz/Js/6sF64y4B4pQEBHDV8YuGPfORs5O/uYjExFJJv5YT9ELHGJjbvhN16Z6e/ekyHv2slMXqpVh2e3FBWd2fJtp5YvsPehZiuLjlZ0Yl8TPXCal2oMnpsw+Fv32SMtr3kEFX+tiO470mZQ6TkNJxdGuVHrK8Lpz1Oz/1aXJabPcyJthNgTaLgePzXIb2PmAqbf11rUw8GshCIjtu0t6dnLwhL85TrRYVpcib0zHip2funruDSbkklqivM0wO+vZMYdHZVJ1o7jVW+t9ezFeguR0PTcSdAsqwFKBlisARPPy3rqz8orOY4r4pZXjLULLcRSb58POl1vuDvMoIB5p5XBDtwiwPFrr4xUGyCBQXARKjo2Zimw23CZS6ab3euquoQEXRo+FTPIhlRUPK8/FQSNZtq/5iMZbddqMfS9SUVefGc3M8ES9s9nsrXTqXANl6/GBU33GEU8/1dVyooH2hvkU3PCfrEzis5nUCe+9UqaSrJBzGddXlwWHhjczQNwefrMiyqDCqFZn07Q3LE4kDJb9TDZUmreIDet8FDi0UIvrJlYMvTUSTuSmh1sOhot9IE+Ett3pFawIg7e9sq5aEbakvKnbdqMYaK8PCANjwCypKPcWewWkDS2X98UpEouTd+X8k9WzPrnLeIvQchzFJvhwdoVscTyTwffn3go0rm6Cnsu3qg3+XNp8w3x6XZdoDRs8FjQHAnkRYJFIF64cLcmrnj/3LSWple1aBy/T52VGXiqN7PMZ9nlxV4Xi+bVYuBV154sF8ubpZ4m3hXnzdHJje1JMWi7sLWljCSZcWu7zK/0+YZSlUUDLbaanFpeWGx5Wxa7d4NWF5kAABEAABEAABEAABEDAgwC0XN5yQtZys5/NtZ19JawXOLRc3vA9lrUkmEM3IWm58cW1c531LxSwclQFAiAAAiAAAiAAAiAAAoUmAC0X+lm/0Ojj6A30AQRAAARAAARAAARAAARAAARMAtBy0HIgAAIgAAIgAAIgAAIgAAIgUHwEoOWKb85g0AMBEAABEAABEAABEAABEAABaDloORAAARAAARAAARAAARAAARAoPgLQcsU3Z3gDAQIgAAIgAAIgAAIgAAIgAALQctByIAACIAACIAACIAACIAACIFB8BKDlim/O8AYCBEAABEAAcjJhoQAABl1JREFUBEAABEAABEAABKDloOVAAARAAARAAARAAARAAARAoPgIQMsV35zhDQQIgAAIgAAIgAAIgAAIgAAIQMtBy4EACIAACIAACIAACIAACIBA8RGAliu+OcMbCBAAARAAARAAARAAARAAARCAloOWAwEQAAEQAAEQAAEQAAEQAIHiIwAtV3xzhjcQIAACIAACIAACIAACIAACIAAtBy0HAiAAAiAAAiAAAiAAAiAAAsVHAFqu+OYMbyBAAARAAARAAARAAARAAARAAFoOWg4EQAAEQAAEQAAEQAAEQAAEio8AtFzxzRneQIAACIAACIAACIAACIAACIAAtBy0HAiAAAiAAAiAAAiAAAiAAAgUHwFoueKbM7yBAAEQAAEQAAEQAAEQAAEQAIHQWm5/9/Sy+d/iwt3s7OSV7sb9O4APBEAABEAABEAABEAABEAABEDgDyEQXctZis78d7qr6g/pNBoFARAAARAAARAAARAAARAAgT85gby03PLi+Fs74KMIAiAAAiAAAiAAAiAAAiAAAiCw0QRCa7kk65lWWlnTMb5A1rkbzRvd4z+5+MbwQQAEQAAEQAAEQAAEQAAEQCCR1CJrOZPaKx23mJib7oabJdQsCIAACIAACIAACIAACIAACGw0gXhaTjs2Bi230VOFdw8gAAIgAAIgAAIgAAIgAAIgwAnkq+WWx5p5XfgAAiAAAiAAAiAAAiAAAiAAAiCwMQQ2WMs1j9JGu+Xb3ftoD97GDBWtgAAIgAAIgAAIgAAIgAAIgMBzQwBaDq6SIAACIAACIAACIAACIAACIFB8BKDlim/OnpsXCRgICIAACIAACIAACIAACIBAbAIxtdy+nlnmLBltvxx8LCEdQQAEQAAEQAAEQAAEQAAEQKAABGJquZfbJ5mWW7har4XvB7RceFY4EwRAAARAAARAAARAAARAAAQ8CcTUcok97ZOLpOZu9je+VqYhkAkIgAAIgAAIgAAIgAAIgAAIgMBGEYir5ZLa7tbxuyTneHBKpA6P7e2KgiAAAiAAAiAAAiAAAiAAAiAQnkB8LWe0setw799nF7iSW16GlguPHmeCAAiAAAiAAAiAAAiAAAiAQGwC8bXc9iOXZmGX2yj7aewJRkEQAAEQAAEQAAEQAAEQAIHnkkBcLbej5QYXclOXGl/bXRIhAorn7r3nEjEGBQIgAAIgAAIgAAIgAAIgAAIFJxBTy5W03qTIJ2PHdkCbgQAIgAAIgAAIgAAIgAAIgAAIbCiBmFpuX/c003LXmwuuL1EhCIAACIAACIAACIAACIAACICAP4GYWu7YGAU8iZYrvKrrNhVcnu7av6Gy1R8EfgUBEAABEAABEAABEAABEACBIiIALQc9CQIgAAIgAAIgAAIgAAIgAALFRwBarvjmrIheFaCrIAACIAACIAACIAACIAAC60Rgg7Xc4UGejW42VYPQl0hpAAIgAAIgAAIgAAIgAAIgAAKxCOSr5RaGDkdQma+n7tJ2uZutZREKxhob6gcBEAABEAABEAABEAABEACB55VAvlpuursqPBoR/XK2/1XIMxAAARAAARAAARAAARAAARAAgbgE4mk5EY4yipbb0fp3yyq3MHpsR3gFiDNBAARAAARAAARAAARAAARAAAQcBCJrOa20sr5nku96u9wYOnaI1jy6aGq5W+d3x5Wejt7jKwiAAAiAAAiAAAiAAAiAAAj8OQmE1nL7eXZw2vG2vLy8OHYsfPyS+kumAlwYrA8t/yD5QAAEQAAEQAAEQAAEQAAEQAAEVATy0XILN1pe+XMqYIwaBEAABEAABEAABEAABEAABP5YAtG13OLC3ez0zb91N1aW/LFdR+sgAAIgAAIgAAIgAAIgAAIg8KclEFrLqYx6f1pqGDgIgAAIgAAIgAAIgAAIgAAI/LEEoOWweQ8EQAAEQAAEQAAEQAAEQAAEio9AkJZ7ofiG9MeKY7QOAiAAAiAAAiAAAiAAAiAAAhtAIEjLwbUSBEAABEAABEAABEAABEAABEBg8xGAloPhEQRAAARAAARAAARAAARAAASKj0A4LQdPy82nwjfAaIsmQAAEQAAEQAAEQAAEQAAENi2BcFoOSgYEQAAEQAAEQAAEQAAEQAAEQGAzEYio5WCg20yTt2nfEKBjIAACIAACIAACIAACIAAC603g/wHm5Wj5Cqp/MwAAAABJRU5ErkJggg==;" vertex="1" parent="WIyWlLk6GJQsqaUBKTNV-1">
          <mxGeometry x="-640" y="43" width="387.61" height="164" as="geometry" />
        </mxCell>
        <mxCell id="dZY9HUZP33_P041iUTWh-25" value="&lt;span style=&quot;color: rgb(77, 77, 77); font-family: -apple-system, &amp;quot;SF UI Text&amp;quot;, Arial, &amp;quot;PingFang SC&amp;quot;, &amp;quot;Hiragino Sans GB&amp;quot;, &amp;quot;Microsoft YaHei&amp;quot;, &amp;quot;WenQuanYi Micro Hei&amp;quot;, sans-serif; font-variant-ligatures: no-common-ligatures; text-align: start; background-color: rgb(255, 255, 255);&quot;&gt;React 的&amp;nbsp;&lt;/span&gt;&lt;span style=&quot;box-sizing: border-box; outline: 0px; font-weight: 700; font-synthesis-style: auto; overflow-wrap: break-word; color: rgb(77, 77, 77); font-family: -apple-system, &amp;quot;SF UI Text&amp;quot;, Arial, &amp;quot;PingFang SC&amp;quot;, &amp;quot;Hiragino Sans GB&amp;quot;, &amp;quot;Microsoft YaHei&amp;quot;, &amp;quot;WenQuanYi Micro Hei&amp;quot;, sans-serif; font-variant-ligatures: no-common-ligatures; text-align: start; background-color: rgb(255, 255, 255);&quot;&gt;Element 对象&lt;/span&gt;&lt;span style=&quot;color: rgb(77, 77, 77); font-family: -apple-system, &amp;quot;SF UI Text&amp;quot;, Arial, &amp;quot;PingFang SC&amp;quot;, &amp;quot;Hiragino Sans GB&amp;quot;, &amp;quot;Microsoft YaHei&amp;quot;, &amp;quot;WenQuanYi Micro Hei&amp;quot;, sans-serif; font-variant-ligatures: no-common-ligatures; text-align: start; background-color: rgb(255, 255, 255);&quot;&gt;&amp;nbsp;是通过&amp;nbsp;&lt;/span&gt;&lt;code style=&quot;box-sizing: border-box; outline: 0px; font-family: &amp;quot;Source Code Pro&amp;quot;, &amp;quot;DejaVu Sans Mono&amp;quot;, &amp;quot;Ubuntu Mono&amp;quot;, &amp;quot;Anonymous Pro&amp;quot;, &amp;quot;Droid Sans Mono&amp;quot;, Menlo, Monaco, Consolas, Inconsolata, Courier, monospace, &amp;quot;PingFang SC&amp;quot;, &amp;quot;Microsoft YaHei&amp;quot;, sans-serif; font-size: 14px; line-height: 22px; color: rgb(199, 37, 78); background-color: rgb(249, 242, 244); border-radius: 2px; padding: 2px 4px; font-synthesis-style: auto; overflow-wrap: break-word; font-variant-ligatures: no-common-ligatures; text-align: start;&quot;&gt;React.createElement&lt;/code&gt;&lt;span style=&quot;color: rgb(77, 77, 77); font-family: -apple-system, &amp;quot;SF UI Text&amp;quot;, Arial, &amp;quot;PingFang SC&amp;quot;, &amp;quot;Hiragino Sans GB&amp;quot;, &amp;quot;Microsoft YaHei&amp;quot;, &amp;quot;WenQuanYi Micro Hei&amp;quot;, sans-serif; font-variant-ligatures: no-common-ligatures; text-align: start; background-color: rgb(255, 255, 255);&quot;&gt;&amp;nbsp;&lt;/span&gt;&lt;div&gt;&lt;span style=&quot;color: rgb(77, 77, 77); font-family: -apple-system, &amp;quot;SF UI Text&amp;quot;, Arial, &amp;quot;PingFang SC&amp;quot;, &amp;quot;Hiragino Sans GB&amp;quot;, &amp;quot;Microsoft YaHei&amp;quot;, &amp;quot;WenQuanYi Micro Hei&amp;quot;, sans-serif; font-variant-ligatures: no-common-ligatures; text-align: start; background-color: rgb(255, 255, 255);&quot;&gt;或&amp;nbsp;&lt;/span&gt;&lt;a style=&quot;box-sizing: border-box; outline: none; margin: 0px 3px 0px 0px; padding: 0px 14px 0px 3px; text-decoration-line: none; cursor: pointer; background: url(&amp;quot;../img/iconHighlight.svg&amp;quot;) right top / 12px 14px no-repeat rgb(255, 255, 255); color: rgb(252, 85, 49); font-synthesis-style: auto; overflow-wrap: break-word; border-radius: 3px; box-shadow: none; font-family: -apple-system, &amp;quot;SF UI Text&amp;quot;, Arial, &amp;quot;PingFang SC&amp;quot;, &amp;quot;Hiragino Sans GB&amp;quot;, &amp;quot;Microsoft YaHei&amp;quot;, &amp;quot;WenQuanYi Micro Hei&amp;quot;, sans-serif; font-variant-ligatures: no-common-ligatures; text-align: start;&quot; data-pretit=&quot;jsx&quot; data-tit=&quot;JSX&quot; data-report-click=&quot;{&amp;quot;spm&amp;quot;:&amp;quot;1001.2101.3001.7020&amp;quot;,&amp;quot;dest&amp;quot;:&amp;quot;https://so.csdn.net/so/search?q=JSX&amp;amp;spm=1001.2101.3001.7020&amp;quot;,&amp;quot;extra&amp;quot;:&amp;quot;{\&amp;quot;searchword\&amp;quot;:\&amp;quot;JSX\&amp;quot;}&amp;quot;}&quot; class=&quot;hl hl-1&quot; target=&quot;_blank&quot; href=&quot;https://so.csdn.net/so/search?q=JSX&amp;amp;spm=1001.2101.3001.7020&quot;&gt;JSX&lt;/a&gt;&lt;span style=&quot;color: rgb(77, 77, 77); font-family: -apple-system, &amp;quot;SF UI Text&amp;quot;, Arial, &amp;quot;PingFang SC&amp;quot;, &amp;quot;Hiragino Sans GB&amp;quot;, &amp;quot;Microsoft YaHei&amp;quot;, &amp;quot;WenQuanYi Micro Hei&amp;quot;, sans-serif; font-variant-ligatures: no-common-ligatures; text-align: start; background-color: rgb(255, 255, 255);&quot;&gt;&amp;nbsp;创建的&lt;/span&gt;&lt;code style=&quot;box-sizing: border-box; outline: 0px; font-family: &amp;quot;Source Code Pro&amp;quot;, &amp;quot;DejaVu Sans Mono&amp;quot;, &amp;quot;Ubuntu Mono&amp;quot;, &amp;quot;Anonymous Pro&amp;quot;, &amp;quot;Droid Sans Mono&amp;quot;, Menlo, Monaco, Consolas, Inconsolata, Courier, monospace, &amp;quot;PingFang SC&amp;quot;, &amp;quot;Microsoft YaHei&amp;quot;, sans-serif; font-size: 14px; --el-button-hover-bg-color: light-dark(#6d5ffd, #8e82ff); --el-button-hover-border-color: light-dark(#6d5ffd, #8e82ff); --el-button-active-bg-color: light-dark(#6d5ffd, #8e82ff); --el-button-active-border-color: light-dark(#6d5ffd, #8e82ff); line-height: 22px; color: rgb(199, 37, 78); background-color: rgb(249, 242, 244); border-radius: 2px; padding: 2px 4px; font-synthesis-style: auto; overflow-wrap: break-word; font-variant-ligatures: no-common-ligatures; text-align: start;&quot;&gt;描述 UI 的普通 JavaScript 对象&lt;/code&gt;&lt;/div&gt;" style="text;html=1;align=center;verticalAlign=middle;whiteSpace=wrap;rounded=0;fontSize=16;" vertex="1" parent="WIyWlLk6GJQsqaUBKTNV-1">
          <mxGeometry x="-855" y="220" width="830" height="30" as="geometry" />
        </mxCell>
      </root>
    </mxGraphModel>
  </diagram>
</mxfile>
